<?xml version="1.0" encoding="UTF-8" standalone="no"?>
<svg width="92.4278mm" height="75.1417mm"
 viewBox="0 0 262 213"
 xmlns="http://www.w3.org/2000/svg" xmlns:xlink="http://www.w3.org/1999/xlink"  version="1.2" baseProfile="tiny">
<title>Qt SVG Document</title>
<desc>MATLAB, The MathWorks, Inc. Version 25.1.0.2973910 R2025a Update 1</desc>
<defs>
</defs>
<g fill="none" stroke="black" stroke-width="1" fill-rule="evenodd" stroke-linecap="square" stroke-linejoin="bevel" >

<g fill="#ffffff" fill-opacity="1" stroke="none" transform="matrix(0.5,0,0,0.5,-0.56793,-1.67995)"
font-family=".AppleSystemUIFont" font-size="13" font-weight="400" font-style="normal" 
>
<path vector-effect="none" fill-rule="evenodd" d="M0,2 L524,2 L524,428 L0,428 L0,2"/>
</g>

<g fill="#ffffff" fill-opacity="1" stroke="none" transform="matrix(5e-05,0,0,5e-05,-0.56793,-1.67995)"
font-family=".AppleSystemUIFont" font-size="13" font-weight="400" font-style="normal" 
>
<path vector-effect="none" fill-rule="evenodd" d="M750000,350000 L750000,3.74e+06 L5.21e+06,3.74e+06 L5.21e+06,350000 L750000,350000"/>
</g>

<g fill="#212121" fill-opacity="1" stroke="none" transform="matrix(0.5,0,0,0.5,137.043,210.72)"
font-family=".AppleSystemUIFont" font-size="13" font-weight="400" font-style="normal" 
>
<path vector-effect="none" fill-rule="evenodd" d="M3.37891,0 L3.37891,-0.703125 C4.04948,-0.703125 4.70052,-0.74056 5.33203,-0.81543 C5.96354,-0.890299 6.2793,-1.06445 6.2793,-1.33789 L6.2793,-12.3242 C6.2793,-12.6107 6.19954,-12.7881 6.04004,-12.8564 C5.88053,-12.9248 5.62174,-12.959 5.26367,-12.959 L4.42383,-12.959 C3.32357,-12.959 2.54232,-12.7181 2.08008,-12.2363 C1.83919,-11.9954 1.66667,-11.6097 1.5625,-11.0791 C1.45833,-10.5485 1.37044,-9.88281 1.29883,-9.08203 L0.722656,-9.08203 L1.10352,-13.6621 L13.3203,-13.6621 L13.7012,-9.08203 L13.1152,-9.08203 C13.0371,-9.94141 12.9508,-10.6234 12.8564,-11.1279 C12.762,-11.6325 12.5911,-12.002 12.3438,-12.2363 C11.875,-12.7181 11.0938,-12.959 10,-12.959 L9.16016,-12.959 C8.91927,-12.959 8.7321,-12.9492 8.59863,-12.9297 C8.46517,-12.9102 8.35612,-12.8532 8.27148,-12.7588 C8.18685,-12.6644 8.14453,-12.5195 8.14453,-12.3242 L8.14453,-1.33789 C8.14453,-1.06445 8.46029,-0.890299 9.0918,-0.81543 C9.72331,-0.74056 10.3711,-0.703125 11.0352,-0.703125 L11.0352,0 L3.37891,0"/>
</g>

<g fill="#212121" fill-opacity="1" stroke="none" transform="matrix(0.5,0,0,0.5,144.265,210.72)"
font-family=".AppleSystemUIFont" font-size="13" font-weight="400" font-style="normal" 
>
<path vector-effect="none" fill-rule="evenodd" d="M0.615234,0 L0.615234,-0.703125 C1.07096,-0.703125 1.44531,-0.738932 1.73828,-0.810547 C2.03125,-0.882161 2.17773,-1.05794 2.17773,-1.33789 L2.17773,-6.79688 C2.17773,-7.3112 2.07845,-7.62695 1.87988,-7.74414 C1.68132,-7.86133 1.28906,-7.91992 0.703125,-7.91992 L0.703125,-8.62305 L3.58398,-8.83789 L3.58398,-1.33789 C3.58398,-1.05794 3.71094,-0.882161 3.96484,-0.810547 C4.21875,-0.738932 4.55729,-0.703125 4.98047,-0.703125 L4.98047,0 L0.615234,0 M1.46484,-12.2754 C1.46484,-12.5684 1.57552,-12.8255 1.79688,-13.0469 C2.01823,-13.2682 2.27214,-13.3789 2.55859,-13.3789 C2.7474,-13.3789 2.92969,-13.3301 3.10547,-13.2324 C3.28125,-13.1348 3.41797,-12.998 3.51563,-12.8223 C3.61328,-12.6465 3.66211,-12.4642 3.66211,-12.2754 C3.66211,-11.9889 3.55143,-11.735 3.33008,-11.5137 C3.10872,-11.2923 2.85156,-11.1816 2.55859,-11.1816 C2.27214,-11.1816 2.01823,-11.2923 1.79688,-11.5137 C1.57552,-11.735 1.46484,-11.9889 1.46484,-12.2754 "/>
</g>

<g fill="#212121" fill-opacity="1" stroke="none" transform="matrix(0.5,0,0,0.5,147.043,210.72)"
font-family=".AppleSystemUIFont" font-size="13" font-weight="400" font-style="normal" 
>
<path vector-effect="none" fill-rule="evenodd" d="M0.595703,0 L0.595703,-0.703125 C1.05143,-0.703125 1.42578,-0.738932 1.71875,-0.810547 C2.01172,-0.882161 2.1582,-1.05794 2.1582,-1.33789 L2.1582,-6.79688 C2.1582,-7.15495 2.10449,-7.41374 1.99707,-7.57324 C1.88965,-7.73275 1.73503,-7.8304 1.5332,-7.86621 C1.33138,-7.90202 1.01888,-7.91992 0.595703,-7.91992 L0.595703,-8.62305 L3.49609,-8.83789 L3.49609,-6.88477 C3.76302,-7.45768 4.15853,-7.92643 4.68262,-8.29102 C5.20671,-8.6556 5.77799,-8.83789 6.39648,-8.83789 C7.93294,-8.83789 8.83464,-8.21289 9.10156,-6.96289 C9.36849,-7.52279 9.75911,-7.97526 10.2734,-8.32031 C10.7878,-8.66536 11.3509,-8.83789 11.9629,-8.83789 C12.5684,-8.83789 13.0778,-8.74023 13.4912,-8.54492 C13.9046,-8.34961 14.2155,-8.05176 14.4238,-7.65137 C14.6322,-7.25098 14.7363,-6.74805 14.7363,-6.14258 L14.7363,-1.33789 C14.7363,-1.05794 14.8844,-0.882161 15.1807,-0.810547 C15.4769,-0.738932 15.8496,-0.703125 16.2988,-0.703125 L16.2988,0 L11.7188,0 L11.7188,-0.703125 C12.1745,-0.703125 12.5488,-0.738932 12.8418,-0.810547 C13.1348,-0.882161 13.2813,-1.05794 13.2813,-1.33789 L13.2813,-6.08398 C13.2813,-6.75456 13.1868,-7.29492 12.998,-7.70508 C12.8092,-8.11523 12.4219,-8.32031 11.8359,-8.32031 C11.0677,-8.32031 10.4329,-8.01107 9.93164,-7.39258 C9.43034,-6.77409 9.17969,-6.07096 9.17969,-5.2832 L9.17969,-1.33789 C9.17969,-1.05794 9.32617,-0.882161 9.61914,-0.810547 C9.91211,-0.738932 10.2865,-0.703125 10.7422,-0.703125 L10.7422,0 L6.16211,0 L6.16211,-0.703125 C6.61784,-0.703125 6.99219,-0.738932 7.28516,-0.810547 C7.57813,-0.882161 7.72461,-1.05794 7.72461,-1.33789 L7.72461,-6.08398 C7.72461,-6.73503 7.63021,-7.27051 7.44141,-7.69043 C7.2526,-8.11035 6.86523,-8.32031 6.2793,-8.32031 C5.50456,-8.32031 4.86816,-8.01107 4.37012,-7.39258 C3.87207,-6.77409 3.62305,-6.07096 3.62305,-5.2832 L3.62305,-1.33789 C3.62305,-1.05794 3.76953,-0.882161 4.0625,-0.810547 C4.35547,-0.738932 4.72656,-0.703125 5.17578,-0.703125 L5.17578,0 L0.595703,0"/>
</g>

<g fill="#212121" fill-opacity="1" stroke="none" transform="matrix(0.5,0,0,0.5,155.377,210.72)"
font-family=".AppleSystemUIFont" font-size="13" font-weight="400" font-style="normal" 
>
<path vector-effect="none" fill-rule="evenodd" d="M4.98047,0.224609 C4.16667,0.224609 3.4196,0.0113932 2.73926,-0.415039 C2.05892,-0.841471 1.52507,-1.41113 1.1377,-2.12402 C0.750326,-2.83691 0.556641,-3.59049 0.556641,-4.38477 C0.556641,-5.16602 0.734049,-5.9082 1.08887,-6.61133 C1.44368,-7.31445 1.93848,-7.88249 2.57324,-8.31543 C3.20801,-8.74837 3.91602,-8.96484 4.69727,-8.96484 C5.30924,-8.96484 5.84147,-8.8623 6.29395,-8.65723 C6.74642,-8.45215 7.11914,-8.16732 7.41211,-7.80273 C7.70508,-7.43815 7.92643,-7.00846 8.07617,-6.51367 C8.22591,-6.01888 8.30078,-5.47526 8.30078,-4.88281 C8.30078,-4.70703 8.23242,-4.61914 8.0957,-4.61914 L2.30469,-4.61914 L2.30469,-4.4043 C2.30469,-3.29753 2.52767,-2.34701 2.97363,-1.55273 C3.4196,-0.758464 4.14714,-0.361328 5.15625,-0.361328 C5.56641,-0.361328 5.94564,-0.452474 6.29395,-0.634766 C6.64225,-0.817057 6.94499,-1.07096 7.20215,-1.39648 C7.45931,-1.72201 7.63346,-2.07031 7.72461,-2.44141 C7.73763,-2.48698 7.76204,-2.52767 7.79785,-2.56348 C7.83366,-2.59928 7.87435,-2.61719 7.91992,-2.61719 L8.0957,-2.61719 C8.23242,-2.61719 8.30078,-2.53255 8.30078,-2.36328 C8.11198,-1.60807 7.70508,-0.987956 7.08008,-0.50293 C6.45508,-0.0179036 5.75521,0.224609 4.98047,0.224609 M2.32422,-5.11719 L6.88477,-5.11719 C6.88477,-5.61849 6.81478,-6.1263 6.6748,-6.64063 C6.53483,-7.15495 6.30208,-7.58301 5.97656,-7.9248 C5.65104,-8.2666 5.22461,-8.4375 4.69727,-8.4375 C3.94206,-8.4375 3.35775,-8.08431 2.94434,-7.37793 C2.53092,-6.67155 2.32422,-5.91797 2.32422,-5.11719 "/>
</g>

<g fill="#212121" fill-opacity="1" stroke="#212121" stroke-opacity="1" stroke-width="1" stroke-linecap="square" stroke-linejoin="round" transform="matrix(0.5,0,0,0.5,-0.56793,-1.67995)"
font-family=".AppleSystemUIFont" font-size="13" font-weight="400" font-style="normal" 
>
<polyline fill="none" vector-effect="none" points="75,374 521,374 " />
<polyline fill="none" vector-effect="none" points="75,35 521,35 " />
<polyline fill="none" vector-effect="none" points="75,374 75,369.54 " />
<polyline fill="none" vector-effect="none" points="75,39.46 75,35 " />
<polyline fill="none" vector-effect="none" points="145.983,374 145.983,369.54 " />
<polyline fill="none" vector-effect="none" points="145.983,39.46 145.983,35 " />
<polyline fill="none" vector-effect="none" points="216.966,374 216.966,369.54 " />
<polyline fill="none" vector-effect="none" points="216.966,39.46 216.966,35 " />
<polyline fill="none" vector-effect="none" points="287.949,374 287.949,369.54 " />
<polyline fill="none" vector-effect="none" points="287.949,39.46 287.949,35 " />
<polyline fill="none" vector-effect="none" points="358.932,374 358.932,369.54 " />
<polyline fill="none" vector-effect="none" points="358.932,39.46 358.932,35 " />
<polyline fill="none" vector-effect="none" points="429.916,374 429.916,369.54 " />
<polyline fill="none" vector-effect="none" points="429.916,39.46 429.916,35 " />
<polyline fill="none" vector-effect="none" points="500.899,374 500.899,369.54 " />
<polyline fill="none" vector-effect="none" points="500.899,39.46 500.899,35 " />
</g>

<g fill="#212121" fill-opacity="1" stroke="none" transform="matrix(0.5,0,0,0.5,34.4321,197.72)"
font-family=".AppleSystemUIFont" font-size="13" font-weight="400" font-style="normal" 
>
<path vector-effect="none" fill-rule="evenodd" d="M5,0.439453 C3.36589,0.439453 2.25423,-0.232747 1.66504,-1.57715 C1.07585,-2.92155 0.78125,-4.52148 0.78125,-6.37695 C0.78125,-7.53581 0.887044,-8.6263 1.09863,-9.64844 C1.31022,-10.6706 1.73014,-11.5381 2.3584,-12.251 C2.98665,-12.9639 3.86719,-13.3203 5,-13.3203 C5.87891,-13.3203 6.59831,-13.1055 7.1582,-12.6758 C7.7181,-12.2461 8.14453,-11.6911 8.4375,-11.0107 C8.73047,-10.3304 8.93066,-9.60124 9.03809,-8.82324 C9.14551,-8.04525 9.19922,-7.22982 9.19922,-6.37695 C9.19922,-5.23112 9.09342,-4.15853 8.88184,-3.15918 C8.67025,-2.15983 8.25521,-1.31022 7.63672,-0.610352 C7.01823,0.0895182 6.13932,0.439453 5,0.439453 M5,-0.078125 C5.74219,-0.078125 6.29557,-0.458984 6.66016,-1.2207 C7.02474,-1.98242 7.24935,-2.82552 7.33398,-3.75 C7.41862,-4.67448 7.46094,-5.65755 7.46094,-6.69922 C7.46094,-7.70182 7.41862,-8.6263 7.33398,-9.47266 C7.24935,-10.319 7.02637,-11.0856 6.66504,-11.7725 C6.30371,-12.4593 5.7487,-12.8027 5,-12.8027 C4.24479,-12.8027 3.6849,-12.4577 3.32031,-11.7676 C2.95573,-11.0775 2.73112,-10.3109 2.64648,-9.46777 C2.56185,-8.62467 2.51953,-7.70182 2.51953,-6.69922 C2.51953,-5.95703 2.53743,-5.25716 2.57324,-4.59961 C2.60905,-3.94206 2.70508,-3.26335 2.86133,-2.56348 C3.01758,-1.86361 3.26986,-1.27441 3.61816,-0.795898 C3.96647,-0.317383 4.42708,-0.078125 5,-0.078125 "/>
</g>

<g fill="#212121" fill-opacity="1" stroke="none" transform="matrix(0.5,0,0,0.5,69.9236,197.72)"
font-family=".AppleSystemUIFont" font-size="13" font-weight="400" font-style="normal" 
>
<path vector-effect="none" fill-rule="evenodd" d="M1.85547,0 L1.85547,-0.703125 C3.52214,-0.703125 4.35547,-0.914714 4.35547,-1.33789 L4.35547,-11.8359 C3.66536,-11.5039 2.79297,-11.3379 1.73828,-11.3379 L1.73828,-12.041 C3.3724,-12.041 4.60612,-12.4674 5.43945,-13.3203 L5.72266,-13.3203 C5.76823,-13.3203 5.81217,-13.3024 5.85449,-13.2666 C5.89681,-13.2308 5.91797,-13.1901 5.91797,-13.1445 L5.91797,-1.33789 C5.91797,-0.914714 6.7513,-0.703125 8.41797,-0.703125 L8.41797,0 L1.85547,0"/>
</g>

<g fill="#212121" fill-opacity="1" stroke="none" transform="matrix(0.5,0,0,0.5,105.415,197.72)"
font-family=".AppleSystemUIFont" font-size="13" font-weight="400" font-style="normal" 
>
<path vector-effect="none" fill-rule="evenodd" d="M0.996094,0 L0.996094,-0.537109 C0.996094,-0.569661 1.00911,-0.605469 1.03516,-0.644531 L4.14063,-4.08203 C4.60938,-4.58984 4.99023,-5.01628 5.2832,-5.36133 C5.57617,-5.70638 5.86589,-6.10352 6.15234,-6.55273 C6.4388,-7.00195 6.66504,-7.45931 6.83105,-7.9248 C6.99707,-8.3903 7.08008,-8.88346 7.08008,-9.4043 C7.08008,-9.95117 6.97917,-10.4736 6.77734,-10.9717 C6.57552,-11.4697 6.27441,-11.8685 5.87402,-12.168 C5.47363,-12.4674 4.99023,-12.6172 4.42383,-12.6172 C3.8444,-12.6172 3.32357,-12.443 2.86133,-12.0947 C2.39909,-11.7464 2.07357,-11.2956 1.88477,-10.7422 C1.93685,-10.7552 2.00846,-10.7617 2.09961,-10.7617 C2.39909,-10.7617 2.65462,-10.6608 2.86621,-10.459 C3.0778,-10.2572 3.18359,-9.99674 3.18359,-9.67773 C3.18359,-9.37174 3.0778,-9.11296 2.86621,-8.90137 C2.65462,-8.68978 2.39909,-8.58398 2.09961,-8.58398 C1.78711,-8.58398 1.52507,-8.69303 1.31348,-8.91113 C1.10189,-9.12923 0.996094,-9.38477 0.996094,-9.67773 C0.996094,-10.179 1.09049,-10.6494 1.2793,-11.0889 C1.4681,-11.5283 1.73991,-11.9189 2.09473,-12.2607 C2.44954,-12.6025 2.84993,-12.8646 3.2959,-13.0469 C3.74186,-13.2292 4.21549,-13.3203 4.7168,-13.3203 C5.47852,-13.3203 6.18815,-13.1592 6.8457,-12.8369 C7.50326,-12.5146 8.02409,-12.0589 8.4082,-11.4697 C8.79232,-10.8805 8.98438,-10.1921 8.98438,-9.4043 C8.98438,-8.82487 8.85742,-8.27474 8.60352,-7.75391 C8.34961,-7.23307 8.02409,-6.75944 7.62695,-6.33301 C7.22982,-5.90658 6.72201,-5.42318 6.10352,-4.88281 C5.48503,-4.34245 5.07813,-3.98112 4.88281,-3.79883 L2.61719,-1.62109 L4.54102,-1.62109 C5.48503,-1.62109 6.27441,-1.62923 6.90918,-1.64551 C7.54395,-1.66178 7.88086,-1.6862 7.91992,-1.71875 C8.07617,-1.88802 8.23568,-2.50326 8.39844,-3.56445 L8.98438,-3.56445 L8.41797,0 L0.996094,0"/>
</g>

<g fill="#212121" fill-opacity="1" stroke="none" transform="matrix(0.5,0,0,0.5,140.907,197.72)"
font-family=".AppleSystemUIFont" font-size="13" font-weight="400" font-style="normal" 
>
<path vector-effect="none" fill-rule="evenodd" d="M1.9043,-1.54297 C2.2168,-1.08724 2.63672,-0.748698 3.16406,-0.527344 C3.69141,-0.30599 4.25781,-0.195313 4.86328,-0.195313 C5.63802,-0.195313 6.18815,-0.525716 6.51367,-1.18652 C6.83919,-1.84733 7.00195,-2.59766 7.00195,-3.4375 C7.00195,-3.8151 6.96777,-4.19271 6.89941,-4.57031 C6.83105,-4.94792 6.71549,-5.29948 6.55273,-5.625 C6.38997,-5.95052 6.16699,-6.21094 5.88379,-6.40625 C5.60059,-6.60156 5.25391,-6.69922 4.84375,-6.69922 L3.51563,-6.69922 C3.39844,-6.69922 3.33984,-6.76107 3.33984,-6.88477 L3.33984,-7.06055 C3.33984,-7.16471 3.39844,-7.2168 3.51563,-7.2168 L4.61914,-7.30469 C5.08789,-7.30469 5.47689,-7.48047 5.78613,-7.83203 C6.09538,-8.18359 6.32161,-8.61165 6.46484,-9.11621 C6.60807,-9.62077 6.67969,-10.1009 6.67969,-10.5566 C6.67969,-11.1947 6.52995,-11.7188 6.23047,-12.1289 C5.93099,-12.5391 5.47526,-12.7441 4.86328,-12.7441 C4.35547,-12.7441 3.87044,-12.6481 3.4082,-12.4561 C2.94596,-12.264 2.57813,-11.9727 2.30469,-11.582 C2.33073,-11.5885 2.35352,-11.5934 2.37305,-11.5967 C2.39258,-11.5999 2.41536,-11.6016 2.44141,-11.6016 C2.74089,-11.6016 2.99154,-11.4974 3.19336,-11.2891 C3.39518,-11.0807 3.49609,-10.8301 3.49609,-10.5371 C3.49609,-10.2507 3.39518,-10.0033 3.19336,-9.79492 C2.99154,-9.58659 2.74089,-9.48242 2.44141,-9.48242 C2.14844,-9.48242 1.89779,-9.58659 1.68945,-9.79492 C1.48112,-10.0033 1.37695,-10.2507 1.37695,-10.5371 C1.37695,-11.11 1.54948,-11.6081 1.89453,-12.0313 C2.23958,-12.4544 2.68392,-12.7751 3.22754,-12.9932 C3.77116,-13.2113 4.31641,-13.3203 4.86328,-13.3203 C5.26693,-13.3203 5.69336,-13.2601 6.14258,-13.1396 C6.5918,-13.0192 6.9987,-12.8467 7.36328,-12.6221 C7.72786,-12.3975 8.02572,-12.1094 8.25684,-11.7578 C8.48796,-11.4063 8.60352,-11.0059 8.60352,-10.5566 C8.60352,-9.99674 8.47819,-9.47917 8.22754,-9.00391 C7.97689,-8.52865 7.63346,-8.11849 7.19727,-7.77344 C6.76107,-7.42839 6.28255,-7.17122 5.76172,-7.00195 C6.34115,-6.89128 6.89128,-6.67318 7.41211,-6.34766 C7.93294,-6.02214 8.35124,-5.60547 8.66699,-5.09766 C8.98275,-4.58984 9.14063,-4.04297 9.14063,-3.45703 C9.14063,-2.72135 8.9388,-2.05566 8.53516,-1.45996 C8.13151,-0.864258 7.60091,-0.398763 6.94336,-0.0634766 C6.28581,0.27181 5.59245,0.439453 4.86328,0.439453 C4.23828,0.439453 3.61165,0.320638 2.9834,0.0830078 C2.35514,-0.154622 1.84082,-0.511068 1.44043,-0.986328 C1.04004,-1.46159 0.839844,-2.03125 0.839844,-2.69531 C0.839844,-3.02734 0.950521,-3.30404 1.17188,-3.52539 C1.39323,-3.74674 1.66992,-3.85742 2.00195,-3.85742 C2.2168,-3.85742 2.41374,-3.80697 2.59277,-3.70605 C2.77181,-3.60514 2.91178,-3.46354 3.0127,-3.28125 C3.11361,-3.09896 3.16406,-2.90365 3.16406,-2.69531 C3.16406,-2.36979 3.05013,-2.09635 2.82227,-1.875 C2.5944,-1.65365 2.32096,-1.54297 2.00195,-1.54297 L1.9043,-1.54297"/>
</g>

<g fill="#212121" fill-opacity="1" stroke="none" transform="matrix(0.5,0,0,0.5,176.398,197.72)"
font-family=".AppleSystemUIFont" font-size="13" font-weight="400" font-style="normal" 
>
<path vector-effect="none" fill-rule="evenodd" d="M0.556641,-3.30078 L0.556641,-4.00391 L6.73828,-13.2227 C6.78385,-13.2878 6.85221,-13.3203 6.94336,-13.3203 L7.23633,-13.3203 C7.38607,-13.3203 7.46094,-13.2454 7.46094,-13.0957 L7.46094,-4.00391 L9.42383,-4.00391 L9.42383,-3.30078 L7.46094,-3.30078 L7.46094,-1.33789 C7.46094,-1.06445 7.65625,-0.890299 8.04688,-0.81543 C8.4375,-0.74056 8.88997,-0.703125 9.4043,-0.703125 L9.4043,0 L3.89648,0 L3.89648,-0.703125 C4.41081,-0.703125 4.86328,-0.74056 5.25391,-0.81543 C5.64453,-0.890299 5.83984,-1.06445 5.83984,-1.33789 L5.83984,-3.30078 L0.556641,-3.30078 M1.2207,-4.00391 L5.95703,-4.00391 L5.95703,-11.084 L1.2207,-4.00391"/>
</g>

<g fill="#212121" fill-opacity="1" stroke="none" transform="matrix(0.5,0,0,0.5,211.89,197.72)"
font-family=".AppleSystemUIFont" font-size="13" font-weight="400" font-style="normal" 
>
<path vector-effect="none" fill-rule="evenodd" d="M1.73828,-2.27539 C1.875,-1.88477 2.08496,-1.52995 2.36816,-1.21094 C2.65137,-0.891927 2.98665,-0.642904 3.37402,-0.463867 C3.76139,-0.284831 4.16341,-0.195313 4.58008,-0.195313 C5.54362,-0.195313 6.20768,-0.569661 6.57227,-1.31836 C6.93685,-2.06706 7.11914,-2.97526 7.11914,-4.04297 C7.11914,-4.50521 7.111,-4.89421 7.09473,-5.20996 C7.07845,-5.52572 7.03451,-5.83008 6.96289,-6.12305 C6.83919,-6.5918 6.62272,-7.00195 6.31348,-7.35352 C6.00423,-7.70508 5.625,-7.88086 5.17578,-7.88086 C4.72656,-7.88086 4.34082,-7.8125 4.01855,-7.67578 C3.69629,-7.53906 3.43424,-7.37956 3.23242,-7.19727 C3.0306,-7.01497 2.85156,-6.82292 2.69531,-6.62109 C2.53906,-6.41927 2.44141,-6.31185 2.40234,-6.29883 L2.17773,-6.29883 C2.14518,-6.29883 2.10449,-6.31999 2.05566,-6.3623 C2.00684,-6.40462 1.98242,-6.44531 1.98242,-6.48438 L1.98242,-13.1641 C1.98242,-13.1966 2.00358,-13.2308 2.0459,-13.2666 C2.08822,-13.3024 2.13216,-13.3203 2.17773,-13.3203 L2.23633,-13.3203 C3.13477,-12.8906 4.08854,-12.6758 5.09766,-12.6758 C6.08724,-12.6758 7.04102,-12.8906 7.95898,-13.3203 L8.01758,-13.3203 C8.06315,-13.3203 8.10547,-13.304 8.14453,-13.2715 C8.18359,-13.2389 8.20313,-13.2031 8.20313,-13.1641 L8.20313,-12.9785 C8.20313,-12.9134 8.1901,-12.8809 8.16406,-12.8809 C7.70833,-12.2754 7.13704,-11.8034 6.4502,-11.4648 C5.76335,-11.1263 5.05208,-10.957 4.31641,-10.957 C3.78255,-10.957 3.23568,-11.0319 2.67578,-11.1816 L2.67578,-7.40234 C3.11849,-7.76042 3.514,-8.01595 3.8623,-8.16895 C4.21061,-8.32194 4.65495,-8.39844 5.19531,-8.39844 C5.93099,-8.39844 6.59017,-8.18685 7.17285,-7.76367 C7.75553,-7.34049 8.20313,-6.78874 8.51563,-6.1084 C8.82813,-5.42806 8.98438,-4.73307 8.98438,-4.02344 C8.98438,-3.22266 8.78743,-2.48047 8.39355,-1.79688 C7.99967,-1.11328 7.46419,-0.569661 6.78711,-0.166016 C6.11003,0.23763 5.37435,0.439453 4.58008,0.439453 C3.92253,0.439453 3.31868,0.270182 2.76855,-0.0683594 C2.21842,-0.406901 1.78548,-0.86263 1.46973,-1.43555 C1.15397,-2.00846 0.996094,-2.61719 0.996094,-3.26172 C0.996094,-3.5612 1.09375,-3.80534 1.28906,-3.99414 C1.48438,-4.18294 1.72852,-4.27734 2.02148,-4.27734 C2.31445,-4.27734 2.56022,-4.18132 2.75879,-3.98926 C2.95736,-3.7972 3.05664,-3.55469 3.05664,-3.26172 C3.05664,-2.97526 2.95736,-2.73275 2.75879,-2.53418 C2.56022,-2.33561 2.31445,-2.23633 2.02148,-2.23633 C1.97591,-2.23633 1.92383,-2.24121 1.86523,-2.25098 C1.80664,-2.26074 1.76432,-2.26888 1.73828,-2.27539 "/>
</g>

<g fill="#212121" fill-opacity="1" stroke="none" transform="matrix(0.5,0,0,0.5,247.381,197.72)"
font-family=".AppleSystemUIFont" font-size="13" font-weight="400" font-style="normal" 
>
<path vector-effect="none" fill-rule="evenodd" d="M5,0.439453 C4.17318,0.439453 3.48307,0.219727 2.92969,-0.219727 C2.3763,-0.65918 1.94824,-1.22884 1.64551,-1.92871 C1.34277,-2.62858 1.13281,-3.36263 1.01563,-4.13086 C0.898438,-4.89909 0.839844,-5.67708 0.839844,-6.46484 C0.839844,-7.51953 1.04492,-8.57747 1.45508,-9.63867 C1.86523,-10.6999 2.46908,-11.5788 3.2666,-12.2754 C4.06413,-12.972 5.00977,-13.3203 6.10352,-13.3203 C6.55924,-13.3203 6.98405,-13.234 7.37793,-13.0615 C7.77181,-12.889 8.08105,-12.6351 8.30566,-12.2998 C8.53027,-11.9645 8.64258,-11.5592 8.64258,-11.084 C8.64258,-10.8105 8.5498,-10.5811 8.36426,-10.3955 C8.17871,-10.21 7.94922,-10.1172 7.67578,-10.1172 C7.41536,-10.1172 7.19076,-10.2116 7.00195,-10.4004 C6.81315,-10.5892 6.71875,-10.8171 6.71875,-11.084 C6.71875,-11.3444 6.81315,-11.569 7.00195,-11.7578 C7.19076,-11.9466 7.41536,-12.041 7.67578,-12.041 L7.7832,-12.041 C7.61393,-12.2819 7.37467,-12.4593 7.06543,-12.5732 C6.75618,-12.6872 6.43555,-12.7441 6.10352,-12.7441 C5.69987,-12.7441 5.32715,-12.6563 4.98535,-12.4805 C4.64355,-12.3047 4.33594,-12.0671 4.0625,-11.7676 C3.78906,-11.4681 3.5612,-11.1377 3.37891,-10.7764 C3.19661,-10.415 3.05501,-10.0033 2.9541,-9.54102 C2.85319,-9.07878 2.78971,-8.64583 2.76367,-8.24219 C2.73763,-7.83854 2.72461,-7.33073 2.72461,-6.71875 C2.95898,-7.26563 3.29102,-7.71322 3.7207,-8.06152 C4.15039,-8.40983 4.63542,-8.58398 5.17578,-8.58398 C5.76823,-8.58398 6.30859,-8.46354 6.79688,-8.22266 C7.28516,-7.98177 7.70508,-7.64811 8.05664,-7.22168 C8.4082,-6.79525 8.67676,-6.30859 8.8623,-5.76172 C9.04785,-5.21484 9.14063,-4.66146 9.14063,-4.10156 C9.14063,-3.32031 8.96647,-2.5765 8.61816,-1.87012 C8.26986,-1.16374 7.77995,-0.602214 7.14844,-0.185547 C6.51693,0.23112 5.80078,0.439453 5,0.439453 M5,-0.195313 C5.51432,-0.195313 5.92773,-0.3125 6.24023,-0.546875 C6.55273,-0.78125 6.78223,-1.09212 6.92871,-1.47949 C7.0752,-1.86686 7.16634,-2.25749 7.20215,-2.65137 C7.23796,-3.04525 7.25586,-3.52865 7.25586,-4.10156 C7.25586,-4.85677 7.22005,-5.5013 7.14844,-6.03516 C7.07682,-6.56901 6.88151,-7.03939 6.5625,-7.44629 C6.24349,-7.85319 5.75521,-8.05664 5.09766,-8.05664 C4.55729,-8.05664 4.11296,-7.87435 3.76465,-7.50977 C3.41634,-7.14518 3.16243,-6.68457 3.00293,-6.12793 C2.84342,-5.57129 2.76367,-5.03581 2.76367,-4.52148 C2.76367,-4.3457 2.77018,-4.21224 2.7832,-4.12109 C2.7832,-4.10156 2.78158,-4.08529 2.77832,-4.07227 C2.77507,-4.05924 2.77018,-4.04297 2.76367,-4.02344 C2.76367,-3.45052 2.82227,-2.87109 2.93945,-2.28516 C3.05664,-1.69922 3.28125,-1.20443 3.61328,-0.800781 C3.94531,-0.397135 4.40755,-0.195313 5,-0.195313 "/>
</g>

<g fill="#212121" fill-opacity="1" stroke="none" transform="matrix(0,-0.5,0.5,0,8.5,123.765)"
font-family=".AppleSystemUIFont" font-size="13" font-weight="400" font-style="normal" 
>
<path vector-effect="none" fill-rule="evenodd" d="M0.644531,0 L0.644531,-0.703125 C1.83594,-0.703125 2.56836,-1.09701 2.8418,-1.88477 L7.04102,-14.1016 C7.08008,-14.2448 7.1875,-14.3164 7.36328,-14.3164 L7.61719,-14.3164 C7.79297,-14.3164 7.90039,-14.2448 7.93945,-14.1016 L12.3242,-1.33789 C12.4479,-1.05794 12.6839,-0.882161 13.0322,-0.810547 C13.3805,-0.738932 13.8151,-0.703125 14.3359,-0.703125 L14.3359,0 L8.75977,0 L8.75977,-0.703125 C9.86654,-0.703125 10.4199,-0.882161 10.4199,-1.24023 L10.4199,-1.33789 L9.33594,-4.46289 L4.48242,-4.46289 L3.58398,-1.88477 C3.57096,-1.83919 3.56445,-1.77083 3.56445,-1.67969 C3.56445,-1.34766 3.72233,-1.10189 4.03809,-0.942383 C4.35384,-0.782878 4.69401,-0.703125 5.05859,-0.703125 L5.05859,0 L0.644531,0 M4.7168,-5.15625 L9.10156,-5.15625 L6.9043,-11.543 L4.7168,-5.15625"/>
</g>

<g fill="#212121" fill-opacity="1" stroke="none" transform="matrix(0,-0.5,0.5,0,8.5,116.265)"
font-family=".AppleSystemUIFont" font-size="13" font-weight="400" font-style="normal" 
>
<path vector-effect="none" fill-rule="evenodd" d="M0.595703,0 L0.595703,-0.703125 C1.05143,-0.703125 1.42578,-0.738932 1.71875,-0.810547 C2.01172,-0.882161 2.1582,-1.05794 2.1582,-1.33789 L2.1582,-6.79688 C2.1582,-7.15495 2.10449,-7.41374 1.99707,-7.57324 C1.88965,-7.73275 1.73503,-7.8304 1.5332,-7.86621 C1.33138,-7.90202 1.01888,-7.91992 0.595703,-7.91992 L0.595703,-8.62305 L3.49609,-8.83789 L3.49609,-6.88477 C3.76302,-7.45768 4.15853,-7.92643 4.68262,-8.29102 C5.20671,-8.6556 5.77799,-8.83789 6.39648,-8.83789 C7.93294,-8.83789 8.83464,-8.21289 9.10156,-6.96289 C9.36849,-7.52279 9.75911,-7.97526 10.2734,-8.32031 C10.7878,-8.66536 11.3509,-8.83789 11.9629,-8.83789 C12.5684,-8.83789 13.0778,-8.74023 13.4912,-8.54492 C13.9046,-8.34961 14.2155,-8.05176 14.4238,-7.65137 C14.6322,-7.25098 14.7363,-6.74805 14.7363,-6.14258 L14.7363,-1.33789 C14.7363,-1.05794 14.8844,-0.882161 15.1807,-0.810547 C15.4769,-0.738932 15.8496,-0.703125 16.2988,-0.703125 L16.2988,0 L11.7188,0 L11.7188,-0.703125 C12.1745,-0.703125 12.5488,-0.738932 12.8418,-0.810547 C13.1348,-0.882161 13.2813,-1.05794 13.2813,-1.33789 L13.2813,-6.08398 C13.2813,-6.75456 13.1868,-7.29492 12.998,-7.70508 C12.8092,-8.11523 12.4219,-8.32031 11.8359,-8.32031 C11.0677,-8.32031 10.4329,-8.01107 9.93164,-7.39258 C9.43034,-6.77409 9.17969,-6.07096 9.17969,-5.2832 L9.17969,-1.33789 C9.17969,-1.05794 9.32617,-0.882161 9.61914,-0.810547 C9.91211,-0.738932 10.2865,-0.703125 10.7422,-0.703125 L10.7422,0 L6.16211,0 L6.16211,-0.703125 C6.61784,-0.703125 6.99219,-0.738932 7.28516,-0.810547 C7.57813,-0.882161 7.72461,-1.05794 7.72461,-1.33789 L7.72461,-6.08398 C7.72461,-6.73503 7.63021,-7.27051 7.44141,-7.69043 C7.2526,-8.11035 6.86523,-8.32031 6.2793,-8.32031 C5.50456,-8.32031 4.86816,-8.01107 4.37012,-7.39258 C3.87207,-6.77409 3.62305,-6.07096 3.62305,-5.2832 L3.62305,-1.33789 C3.62305,-1.05794 3.76953,-0.882161 4.0625,-0.810547 C4.35547,-0.738932 4.72656,-0.703125 5.17578,-0.703125 L5.17578,0 L0.595703,0"/>
</g>

<g fill="#212121" fill-opacity="1" stroke="none" transform="matrix(0,-0.5,0.5,0,8.5,107.931)"
font-family=".AppleSystemUIFont" font-size="13" font-weight="400" font-style="normal" 
>
<path vector-effect="none" fill-rule="evenodd" d="M0.517578,3.87695 L0.517578,3.18359 C0.973307,3.18359 1.34766,3.14453 1.64063,3.06641 C1.93359,2.98828 2.08008,2.8125 2.08008,2.53906 L2.08008,-7.09961 C2.08008,-7.46419 1.94987,-7.69206 1.68945,-7.7832 C1.42904,-7.87435 1.03841,-7.91992 0.517578,-7.91992 L0.517578,-8.62305 L3.47656,-8.83789 L3.47656,-7.59766 C3.84115,-8.0013 4.26595,-8.30892 4.75098,-8.52051 C5.236,-8.7321 5.75195,-8.83789 6.29883,-8.83789 C7.08659,-8.83789 7.79622,-8.62467 8.42773,-8.19824 C9.05924,-7.77181 9.55241,-7.21191 9.90723,-6.51855 C10.262,-5.8252 10.4395,-5.09115 10.4395,-4.31641 C10.4395,-3.50911 10.2425,-2.75716 9.84863,-2.06055 C9.45475,-1.36393 8.91764,-0.808919 8.2373,-0.395508 C7.55697,0.0179036 6.8099,0.224609 5.99609,0.224609 C5.02604,0.224609 4.20573,-0.169271 3.53516,-0.957031 L3.53516,2.53906 C3.53516,2.8125 3.68327,2.98828 3.97949,3.06641 C4.27572,3.14453 4.64844,3.18359 5.09766,3.18359 L5.09766,3.87695 L0.517578,3.87695 M3.53516,-1.94336 C3.76953,-1.4681 4.09505,-1.07585 4.51172,-0.766602 C4.92839,-0.457357 5.38411,-0.302734 5.87891,-0.302734 C6.34115,-0.302734 6.74967,-0.426432 7.10449,-0.673828 C7.45931,-0.921224 7.75716,-1.25326 7.99805,-1.66992 C8.23893,-2.08659 8.41634,-2.52441 8.53027,-2.9834 C8.64421,-3.44238 8.70117,-3.88672 8.70117,-4.31641 C8.70117,-4.85026 8.60514,-5.42806 8.41309,-6.0498 C8.22103,-6.67155 7.92806,-7.19564 7.53418,-7.62207 C7.1403,-8.0485 6.66341,-8.26172 6.10352,-8.26172 C5.56315,-8.26172 5.06673,-8.12337 4.61426,-7.84668 C4.16178,-7.56999 3.80208,-7.19401 3.53516,-6.71875 L3.53516,-1.94336"/>
</g>

<g fill="#212121" fill-opacity="1" stroke="none" transform="matrix(0,-0.5,0.5,0,8.5,102.376)"
font-family=".AppleSystemUIFont" font-size="13" font-weight="400" font-style="normal" 
>
<path vector-effect="none" fill-rule="evenodd" d="M0.615234,0 L0.615234,-0.703125 C1.07096,-0.703125 1.44531,-0.738932 1.73828,-0.810547 C2.03125,-0.882161 2.17773,-1.05794 2.17773,-1.33789 L2.17773,-11.8359 C2.17773,-12.194 2.12402,-12.4528 2.0166,-12.6123 C1.90918,-12.7718 1.75456,-12.8695 1.55273,-12.9053 C1.35091,-12.9411 1.03841,-12.959 0.615234,-12.959 L0.615234,-13.6621 L3.58398,-13.877 L3.58398,-1.33789 C3.58398,-1.05794 3.73047,-0.882161 4.02344,-0.810547 C4.31641,-0.738932 4.6875,-0.703125 5.13672,-0.703125 L5.13672,0 L0.615234,0"/>
</g>

<g fill="#212121" fill-opacity="1" stroke="none" transform="matrix(0,-0.5,0.5,0,8.5,99.5978)"
font-family=".AppleSystemUIFont" font-size="13" font-weight="400" font-style="normal" 
>
<path vector-effect="none" fill-rule="evenodd" d="M0.615234,0 L0.615234,-0.703125 C1.07096,-0.703125 1.44531,-0.738932 1.73828,-0.810547 C2.03125,-0.882161 2.17773,-1.05794 2.17773,-1.33789 L2.17773,-6.79688 C2.17773,-7.3112 2.07845,-7.62695 1.87988,-7.74414 C1.68132,-7.86133 1.28906,-7.91992 0.703125,-7.91992 L0.703125,-8.62305 L3.58398,-8.83789 L3.58398,-1.33789 C3.58398,-1.05794 3.71094,-0.882161 3.96484,-0.810547 C4.21875,-0.738932 4.55729,-0.703125 4.98047,-0.703125 L4.98047,0 L0.615234,0 M1.46484,-12.2754 C1.46484,-12.5684 1.57552,-12.8255 1.79688,-13.0469 C2.01823,-13.2682 2.27214,-13.3789 2.55859,-13.3789 C2.7474,-13.3789 2.92969,-13.3301 3.10547,-13.2324 C3.28125,-13.1348 3.41797,-12.998 3.51563,-12.8223 C3.61328,-12.6465 3.66211,-12.4642 3.66211,-12.2754 C3.66211,-11.9889 3.55143,-11.735 3.33008,-11.5137 C3.10872,-11.2923 2.85156,-11.1816 2.55859,-11.1816 C2.27214,-11.1816 2.01823,-11.2923 1.79688,-11.5137 C1.57552,-11.735 1.46484,-11.9889 1.46484,-12.2754 "/>
</g>

<g fill="#212121" fill-opacity="1" stroke="none" transform="matrix(0,-0.5,0.5,0,8.5,96.82)"
font-family=".AppleSystemUIFont" font-size="13" font-weight="400" font-style="normal" 
>
<path vector-effect="none" fill-rule="evenodd" d="M2.04102,-2.40234 L2.04102,-7.91992 L0.380859,-7.91992 L0.380859,-8.4375 C1.25326,-8.4375 1.89453,-8.8444 2.30469,-9.6582 C2.71484,-10.472 2.91992,-11.3542 2.91992,-12.3047 L3.49609,-12.3047 L3.49609,-8.62305 L6.31836,-8.62305 L6.31836,-7.91992 L3.49609,-7.91992 L3.49609,-2.44141 C3.49609,-1.88802 3.58887,-1.40299 3.77441,-0.986328 C3.95996,-0.569661 4.29362,-0.361328 4.77539,-0.361328 C5.23112,-0.361328 5.5599,-0.581055 5.76172,-1.02051 C5.96354,-1.45996 6.06445,-1.93359 6.06445,-2.44141 L6.06445,-3.62305 L6.64063,-3.62305 L6.64063,-2.40234 C6.64063,-1.98568 6.56413,-1.57389 6.41113,-1.16699 C6.25814,-0.760091 6.0319,-0.426432 5.73242,-0.166016 C5.43294,0.094401 5.06836,0.224609 4.63867,0.224609 C3.83789,0.224609 3.20475,-0.0146484 2.73926,-0.493164 C2.27376,-0.97168 2.04102,-1.60807 2.04102,-2.40234 "/>
</g>

<g fill="#212121" fill-opacity="1" stroke="none" transform="matrix(0,-0.5,0.5,0,8.5,92.9311)"
font-family=".AppleSystemUIFont" font-size="13" font-weight="400" font-style="normal" 
>
<path vector-effect="none" fill-rule="evenodd" d="M2.1582,-2.38281 L2.1582,-6.79688 C2.1582,-7.15495 2.10449,-7.41374 1.99707,-7.57324 C1.88965,-7.73275 1.73503,-7.8304 1.5332,-7.86621 C1.33138,-7.90202 1.01888,-7.91992 0.595703,-7.91992 L0.595703,-8.62305 L3.62305,-8.83789 L3.62305,-2.38281 C3.62305,-1.86198 3.66048,-1.45671 3.73535,-1.16699 C3.81022,-0.877279 3.96973,-0.660807 4.21387,-0.517578 C4.45801,-0.374349 4.84701,-0.302734 5.38086,-0.302734 C6.09701,-0.302734 6.66667,-0.602214 7.08984,-1.20117 C7.51302,-1.80013 7.72461,-2.48047 7.72461,-3.24219 L7.72461,-6.79688 C7.72461,-7.15495 7.66927,-7.41374 7.55859,-7.57324 C7.44792,-7.73275 7.29329,-7.8304 7.09473,-7.86621 C6.89616,-7.90202 6.58529,-7.91992 6.16211,-7.91992 L6.16211,-8.62305 L9.17969,-8.83789 L9.17969,-1.81641 C9.17969,-1.46484 9.2334,-1.20931 9.34082,-1.0498 C9.44824,-0.890299 9.60286,-0.792643 9.80469,-0.756836 C10.0065,-0.721029 10.319,-0.703125 10.7422,-0.703125 L10.7422,0 L7.7832,0.224609 L7.7832,-1.46484 C7.53581,-0.963542 7.19076,-0.556641 6.74805,-0.244141 C6.30534,0.0683594 5.81706,0.224609 5.2832,0.224609 C4.32617,0.224609 3.56608,0.0211589 3.00293,-0.385742 C2.43978,-0.792643 2.1582,-1.45833 2.1582,-2.38281 "/>
</g>

<g fill="#212121" fill-opacity="1" stroke="none" transform="matrix(0,-0.5,0.5,0,8.5,87.3756)"
font-family=".AppleSystemUIFont" font-size="13" font-weight="400" font-style="normal" 
>
<path vector-effect="none" fill-rule="evenodd" d="M4.88281,0.224609 C4.09505,0.224609 3.37565,0.0113932 2.72461,-0.415039 C2.07357,-0.841471 1.56738,-1.40299 1.20605,-2.09961 C0.844727,-2.79622 0.664063,-3.53516 0.664063,-4.31641 C0.664063,-5.1237 0.861003,-5.87402 1.25488,-6.56738 C1.64876,-7.26074 2.18424,-7.8125 2.86133,-8.22266 C3.53841,-8.63281 4.28385,-8.83789 5.09766,-8.83789 C5.58594,-8.83789 6.04818,-8.73535 6.48438,-8.53027 C6.92057,-8.3252 7.29818,-8.04036 7.61719,-7.67578 L7.61719,-11.8359 C7.61719,-12.194 7.56348,-12.4528 7.45605,-12.6123 C7.34863,-12.7718 7.19564,-12.8695 6.99707,-12.9053 C6.7985,-12.9411 6.48763,-12.959 6.06445,-12.959 L6.06445,-13.6621 L9.02344,-13.877 L9.02344,-1.81641 C9.02344,-1.46484 9.07715,-1.20931 9.18457,-1.0498 C9.29199,-0.890299 9.44499,-0.792643 9.64355,-0.756836 C9.84212,-0.721029 10.153,-0.703125 10.5762,-0.703125 L10.5762,0 L7.55859,0.224609 L7.55859,-1.03516 C7.21354,-0.638021 6.80339,-0.328776 6.32813,-0.107422 C5.85286,0.113932 5.37109,0.224609 4.88281,0.224609 M2.8418,-1.73828 C3.06966,-1.30208 3.37402,-0.953776 3.75488,-0.693359 C4.13574,-0.432943 4.55078,-0.302734 5,-0.302734 C5.55339,-0.302734 6.0612,-0.46224 6.52344,-0.78125 C6.98568,-1.10026 7.33073,-1.51367 7.55859,-2.02148 L7.55859,-6.81641 C7.40234,-7.10938 7.2054,-7.37142 6.96777,-7.60254 C6.73014,-7.83366 6.46322,-8.01107 6.16699,-8.13477 C5.87077,-8.25846 5.55664,-8.32031 5.22461,-8.32031 C4.52799,-8.32031 3.9681,-8.12337 3.54492,-7.72949 C3.12174,-7.33561 2.82552,-6.83268 2.65625,-6.2207 C2.48698,-5.60872 2.40234,-4.96745 2.40234,-4.29688 C2.40234,-3.76302 2.43001,-3.29753 2.48535,-2.90039 C2.54069,-2.50326 2.65951,-2.11589 2.8418,-1.73828 "/>
</g>

<g fill="#212121" fill-opacity="1" stroke="none" transform="matrix(0,-0.5,0.5,0,8.5,81.82)"
font-family=".AppleSystemUIFont" font-size="13" font-weight="400" font-style="normal" 
>
<path vector-effect="none" fill-rule="evenodd" d="M4.98047,0.224609 C4.16667,0.224609 3.4196,0.0113932 2.73926,-0.415039 C2.05892,-0.841471 1.52507,-1.41113 1.1377,-2.12402 C0.750326,-2.83691 0.556641,-3.59049 0.556641,-4.38477 C0.556641,-5.16602 0.734049,-5.9082 1.08887,-6.61133 C1.44368,-7.31445 1.93848,-7.88249 2.57324,-8.31543 C3.20801,-8.74837 3.91602,-8.96484 4.69727,-8.96484 C5.30924,-8.96484 5.84147,-8.8623 6.29395,-8.65723 C6.74642,-8.45215 7.11914,-8.16732 7.41211,-7.80273 C7.70508,-7.43815 7.92643,-7.00846 8.07617,-6.51367 C8.22591,-6.01888 8.30078,-5.47526 8.30078,-4.88281 C8.30078,-4.70703 8.23242,-4.61914 8.0957,-4.61914 L2.30469,-4.61914 L2.30469,-4.4043 C2.30469,-3.29753 2.52767,-2.34701 2.97363,-1.55273 C3.4196,-0.758464 4.14714,-0.361328 5.15625,-0.361328 C5.56641,-0.361328 5.94564,-0.452474 6.29395,-0.634766 C6.64225,-0.817057 6.94499,-1.07096 7.20215,-1.39648 C7.45931,-1.72201 7.63346,-2.07031 7.72461,-2.44141 C7.73763,-2.48698 7.76204,-2.52767 7.79785,-2.56348 C7.83366,-2.59928 7.87435,-2.61719 7.91992,-2.61719 L8.0957,-2.61719 C8.23242,-2.61719 8.30078,-2.53255 8.30078,-2.36328 C8.11198,-1.60807 7.70508,-0.987956 7.08008,-0.50293 C6.45508,-0.0179036 5.75521,0.224609 4.98047,0.224609 M2.32422,-5.11719 L6.88477,-5.11719 C6.88477,-5.61849 6.81478,-6.1263 6.6748,-6.64063 C6.53483,-7.15495 6.30208,-7.58301 5.97656,-7.9248 C5.65104,-8.2666 5.22461,-8.4375 4.69727,-8.4375 C3.94206,-8.4375 3.35775,-8.08431 2.94434,-7.37793 C2.53092,-6.67155 2.32422,-5.91797 2.32422,-5.11719 "/>
</g>

<g fill="#212121" fill-opacity="1" stroke="#212121" stroke-opacity="1" stroke-width="1" stroke-linecap="square" stroke-linejoin="round" transform="matrix(0.5,0,0,0.5,-0.56793,-1.67995)"
font-family=".AppleSystemUIFont" font-size="13" font-weight="400" font-style="normal" 
>
<polyline fill="none" vector-effect="none" points="75,374 75,35 " />
<polyline fill="none" vector-effect="none" points="521,374 521,35 " />
<polyline fill="none" vector-effect="none" points="75,345.75 79.46,345.75 " />
<polyline fill="none" vector-effect="none" points="516.54,345.75 521,345.75 " />
<polyline fill="none" vector-effect="none" points="75,275.125 79.46,275.125 " />
<polyline fill="none" vector-effect="none" points="516.54,275.125 521,275.125 " />
<polyline fill="none" vector-effect="none" points="75,204.5 79.46,204.5 " />
<polyline fill="none" vector-effect="none" points="516.54,204.5 521,204.5 " />
<polyline fill="none" vector-effect="none" points="75,133.875 79.46,133.875 " />
<polyline fill="none" vector-effect="none" points="516.54,133.875 521,133.875 " />
<polyline fill="none" vector-effect="none" points="75,63.25 79.46,63.25 " />
<polyline fill="none" vector-effect="none" points="516.54,63.25 521,63.25 " />
</g>

<g fill="#212121" fill-opacity="1" stroke="none" transform="matrix(0.5,0,0,0.5,24.5987,173.595)"
font-family=".AppleSystemUIFont" font-size="13" font-weight="400" font-style="normal" 
>
<path vector-effect="none" fill-rule="evenodd" d="M0.224609,-3.70117 L0.224609,-4.94141 L5.51758,-4.94141 L5.51758,-3.70117 L0.224609,-3.70117"/>
</g>

<g fill="#212121" fill-opacity="1" stroke="none" transform="matrix(0.5,0,0,0.5,27.9321,173.595)"
font-family=".AppleSystemUIFont" font-size="13" font-weight="400" font-style="normal" 
>
<path vector-effect="none" fill-rule="evenodd" d="M1.85547,0 L1.85547,-0.703125 C3.52214,-0.703125 4.35547,-0.914714 4.35547,-1.33789 L4.35547,-11.8359 C3.66536,-11.5039 2.79297,-11.3379 1.73828,-11.3379 L1.73828,-12.041 C3.3724,-12.041 4.60612,-12.4674 5.43945,-13.3203 L5.72266,-13.3203 C5.76823,-13.3203 5.81217,-13.3024 5.85449,-13.2666 C5.89681,-13.2308 5.91797,-13.1901 5.91797,-13.1445 L5.91797,-1.33789 C5.91797,-0.914714 6.7513,-0.703125 8.41797,-0.703125 L8.41797,0 L1.85547,0"/>
</g>

<g fill="#212121" fill-opacity="1" stroke="none" transform="matrix(0.5,0,0,0.5,16.8209,138.283)"
font-family=".AppleSystemUIFont" font-size="13" font-weight="400" font-style="normal" 
>
<path vector-effect="none" fill-rule="evenodd" d="M0.224609,-3.70117 L0.224609,-4.94141 L5.51758,-4.94141 L5.51758,-3.70117 L0.224609,-3.70117"/>
</g>

<g fill="#212121" fill-opacity="1" stroke="none" transform="matrix(0.5,0,0,0.5,20.1543,138.283)"
font-family=".AppleSystemUIFont" font-size="13" font-weight="400" font-style="normal" 
>
<path vector-effect="none" fill-rule="evenodd" d="M5,0.439453 C3.36589,0.439453 2.25423,-0.232747 1.66504,-1.57715 C1.07585,-2.92155 0.78125,-4.52148 0.78125,-6.37695 C0.78125,-7.53581 0.887044,-8.6263 1.09863,-9.64844 C1.31022,-10.6706 1.73014,-11.5381 2.3584,-12.251 C2.98665,-12.9639 3.86719,-13.3203 5,-13.3203 C5.87891,-13.3203 6.59831,-13.1055 7.1582,-12.6758 C7.7181,-12.2461 8.14453,-11.6911 8.4375,-11.0107 C8.73047,-10.3304 8.93066,-9.60124 9.03809,-8.82324 C9.14551,-8.04525 9.19922,-7.22982 9.19922,-6.37695 C9.19922,-5.23112 9.09342,-4.15853 8.88184,-3.15918 C8.67025,-2.15983 8.25521,-1.31022 7.63672,-0.610352 C7.01823,0.0895182 6.13932,0.439453 5,0.439453 M5,-0.078125 C5.74219,-0.078125 6.29557,-0.458984 6.66016,-1.2207 C7.02474,-1.98242 7.24935,-2.82552 7.33398,-3.75 C7.41862,-4.67448 7.46094,-5.65755 7.46094,-6.69922 C7.46094,-7.70182 7.41862,-8.6263 7.33398,-9.47266 C7.24935,-10.319 7.02637,-11.0856 6.66504,-11.7725 C6.30371,-12.4593 5.7487,-12.8027 5,-12.8027 C4.24479,-12.8027 3.6849,-12.4577 3.32031,-11.7676 C2.95573,-11.0775 2.73112,-10.3109 2.64648,-9.46777 C2.56185,-8.62467 2.51953,-7.70182 2.51953,-6.69922 C2.51953,-5.95703 2.53743,-5.25716 2.57324,-4.59961 C2.60905,-3.94206 2.70508,-3.26335 2.86133,-2.56348 C3.01758,-1.86361 3.26986,-1.27441 3.61816,-0.795898 C3.96647,-0.317383 4.42708,-0.078125 5,-0.078125 "/>
</g>

<g fill="#212121" fill-opacity="1" stroke="none" transform="matrix(0.5,0,0,0.5,25.1543,138.283)"
font-family=".AppleSystemUIFont" font-size="13" font-weight="400" font-style="normal" 
>
<path vector-effect="none" fill-rule="evenodd" d="M1.67969,-1.10352 C1.67969,-1.40299 1.79036,-1.66016 2.01172,-1.875 C2.23307,-2.08984 2.49023,-2.19727 2.7832,-2.19727 C2.96549,-2.19727 3.14453,-2.14844 3.32031,-2.05078 C3.49609,-1.95313 3.63281,-1.81641 3.73047,-1.64063 C3.82813,-1.46484 3.87695,-1.28581 3.87695,-1.10352 C3.87695,-0.810547 3.76953,-0.553385 3.55469,-0.332031 C3.33984,-0.110677 3.08268,0 2.7832,0 C2.49023,0 2.23307,-0.110677 2.01172,-0.332031 C1.79036,-0.553385 1.67969,-0.810547 1.67969,-1.10352 "/>
</g>

<g fill="#212121" fill-opacity="1" stroke="none" transform="matrix(0.5,0,0,0.5,27.9321,138.283)"
font-family=".AppleSystemUIFont" font-size="13" font-weight="400" font-style="normal" 
>
<path vector-effect="none" fill-rule="evenodd" d="M1.73828,-2.27539 C1.875,-1.88477 2.08496,-1.52995 2.36816,-1.21094 C2.65137,-0.891927 2.98665,-0.642904 3.37402,-0.463867 C3.76139,-0.284831 4.16341,-0.195313 4.58008,-0.195313 C5.54362,-0.195313 6.20768,-0.569661 6.57227,-1.31836 C6.93685,-2.06706 7.11914,-2.97526 7.11914,-4.04297 C7.11914,-4.50521 7.111,-4.89421 7.09473,-5.20996 C7.07845,-5.52572 7.03451,-5.83008 6.96289,-6.12305 C6.83919,-6.5918 6.62272,-7.00195 6.31348,-7.35352 C6.00423,-7.70508 5.625,-7.88086 5.17578,-7.88086 C4.72656,-7.88086 4.34082,-7.8125 4.01855,-7.67578 C3.69629,-7.53906 3.43424,-7.37956 3.23242,-7.19727 C3.0306,-7.01497 2.85156,-6.82292 2.69531,-6.62109 C2.53906,-6.41927 2.44141,-6.31185 2.40234,-6.29883 L2.17773,-6.29883 C2.14518,-6.29883 2.10449,-6.31999 2.05566,-6.3623 C2.00684,-6.40462 1.98242,-6.44531 1.98242,-6.48438 L1.98242,-13.1641 C1.98242,-13.1966 2.00358,-13.2308 2.0459,-13.2666 C2.08822,-13.3024 2.13216,-13.3203 2.17773,-13.3203 L2.23633,-13.3203 C3.13477,-12.8906 4.08854,-12.6758 5.09766,-12.6758 C6.08724,-12.6758 7.04102,-12.8906 7.95898,-13.3203 L8.01758,-13.3203 C8.06315,-13.3203 8.10547,-13.304 8.14453,-13.2715 C8.18359,-13.2389 8.20313,-13.2031 8.20313,-13.1641 L8.20313,-12.9785 C8.20313,-12.9134 8.1901,-12.8809 8.16406,-12.8809 C7.70833,-12.2754 7.13704,-11.8034 6.4502,-11.4648 C5.76335,-11.1263 5.05208,-10.957 4.31641,-10.957 C3.78255,-10.957 3.23568,-11.0319 2.67578,-11.1816 L2.67578,-7.40234 C3.11849,-7.76042 3.514,-8.01595 3.8623,-8.16895 C4.21061,-8.32194 4.65495,-8.39844 5.19531,-8.39844 C5.93099,-8.39844 6.59017,-8.18685 7.17285,-7.76367 C7.75553,-7.34049 8.20313,-6.78874 8.51563,-6.1084 C8.82813,-5.42806 8.98438,-4.73307 8.98438,-4.02344 C8.98438,-3.22266 8.78743,-2.48047 8.39355,-1.79688 C7.99967,-1.11328 7.46419,-0.569661 6.78711,-0.166016 C6.11003,0.23763 5.37435,0.439453 4.58008,0.439453 C3.92253,0.439453 3.31868,0.270182 2.76855,-0.0683594 C2.21842,-0.406901 1.78548,-0.86263 1.46973,-1.43555 C1.15397,-2.00846 0.996094,-2.61719 0.996094,-3.26172 C0.996094,-3.5612 1.09375,-3.80534 1.28906,-3.99414 C1.48438,-4.18294 1.72852,-4.27734 2.02148,-4.27734 C2.31445,-4.27734 2.56022,-4.18132 2.75879,-3.98926 C2.95736,-3.7972 3.05664,-3.55469 3.05664,-3.26172 C3.05664,-2.97526 2.95736,-2.73275 2.75879,-2.53418 C2.56022,-2.33561 2.31445,-2.23633 2.02148,-2.23633 C1.97591,-2.23633 1.92383,-2.24121 1.86523,-2.25098 C1.80664,-2.26074 1.76432,-2.26888 1.73828,-2.27539 "/>
</g>

<g fill="#212121" fill-opacity="1" stroke="none" transform="matrix(0.5,0,0,0.5,27.9321,102.97)"
font-family=".AppleSystemUIFont" font-size="13" font-weight="400" font-style="normal" 
>
<path vector-effect="none" fill-rule="evenodd" d="M5,0.439453 C3.36589,0.439453 2.25423,-0.232747 1.66504,-1.57715 C1.07585,-2.92155 0.78125,-4.52148 0.78125,-6.37695 C0.78125,-7.53581 0.887044,-8.6263 1.09863,-9.64844 C1.31022,-10.6706 1.73014,-11.5381 2.3584,-12.251 C2.98665,-12.9639 3.86719,-13.3203 5,-13.3203 C5.87891,-13.3203 6.59831,-13.1055 7.1582,-12.6758 C7.7181,-12.2461 8.14453,-11.6911 8.4375,-11.0107 C8.73047,-10.3304 8.93066,-9.60124 9.03809,-8.82324 C9.14551,-8.04525 9.19922,-7.22982 9.19922,-6.37695 C9.19922,-5.23112 9.09342,-4.15853 8.88184,-3.15918 C8.67025,-2.15983 8.25521,-1.31022 7.63672,-0.610352 C7.01823,0.0895182 6.13932,0.439453 5,0.439453 M5,-0.078125 C5.74219,-0.078125 6.29557,-0.458984 6.66016,-1.2207 C7.02474,-1.98242 7.24935,-2.82552 7.33398,-3.75 C7.41862,-4.67448 7.46094,-5.65755 7.46094,-6.69922 C7.46094,-7.70182 7.41862,-8.6263 7.33398,-9.47266 C7.24935,-10.319 7.02637,-11.0856 6.66504,-11.7725 C6.30371,-12.4593 5.7487,-12.8027 5,-12.8027 C4.24479,-12.8027 3.6849,-12.4577 3.32031,-11.7676 C2.95573,-11.0775 2.73112,-10.3109 2.64648,-9.46777 C2.56185,-8.62467 2.51953,-7.70182 2.51953,-6.69922 C2.51953,-5.95703 2.53743,-5.25716 2.57324,-4.59961 C2.60905,-3.94206 2.70508,-3.26335 2.86133,-2.56348 C3.01758,-1.86361 3.26986,-1.27441 3.61816,-0.795898 C3.96647,-0.317383 4.42708,-0.078125 5,-0.078125 "/>
</g>

<g fill="#212121" fill-opacity="1" stroke="none" transform="matrix(0.5,0,0,0.5,20.1543,67.6575)"
font-family=".AppleSystemUIFont" font-size="13" font-weight="400" font-style="normal" 
>
<path vector-effect="none" fill-rule="evenodd" d="M5,0.439453 C3.36589,0.439453 2.25423,-0.232747 1.66504,-1.57715 C1.07585,-2.92155 0.78125,-4.52148 0.78125,-6.37695 C0.78125,-7.53581 0.887044,-8.6263 1.09863,-9.64844 C1.31022,-10.6706 1.73014,-11.5381 2.3584,-12.251 C2.98665,-12.9639 3.86719,-13.3203 5,-13.3203 C5.87891,-13.3203 6.59831,-13.1055 7.1582,-12.6758 C7.7181,-12.2461 8.14453,-11.6911 8.4375,-11.0107 C8.73047,-10.3304 8.93066,-9.60124 9.03809,-8.82324 C9.14551,-8.04525 9.19922,-7.22982 9.19922,-6.37695 C9.19922,-5.23112 9.09342,-4.15853 8.88184,-3.15918 C8.67025,-2.15983 8.25521,-1.31022 7.63672,-0.610352 C7.01823,0.0895182 6.13932,0.439453 5,0.439453 M5,-0.078125 C5.74219,-0.078125 6.29557,-0.458984 6.66016,-1.2207 C7.02474,-1.98242 7.24935,-2.82552 7.33398,-3.75 C7.41862,-4.67448 7.46094,-5.65755 7.46094,-6.69922 C7.46094,-7.70182 7.41862,-8.6263 7.33398,-9.47266 C7.24935,-10.319 7.02637,-11.0856 6.66504,-11.7725 C6.30371,-12.4593 5.7487,-12.8027 5,-12.8027 C4.24479,-12.8027 3.6849,-12.4577 3.32031,-11.7676 C2.95573,-11.0775 2.73112,-10.3109 2.64648,-9.46777 C2.56185,-8.62467 2.51953,-7.70182 2.51953,-6.69922 C2.51953,-5.95703 2.53743,-5.25716 2.57324,-4.59961 C2.60905,-3.94206 2.70508,-3.26335 2.86133,-2.56348 C3.01758,-1.86361 3.26986,-1.27441 3.61816,-0.795898 C3.96647,-0.317383 4.42708,-0.078125 5,-0.078125 "/>
</g>

<g fill="#212121" fill-opacity="1" stroke="none" transform="matrix(0.5,0,0,0.5,25.1543,67.6575)"
font-family=".AppleSystemUIFont" font-size="13" font-weight="400" font-style="normal" 
>
<path vector-effect="none" fill-rule="evenodd" d="M1.67969,-1.10352 C1.67969,-1.40299 1.79036,-1.66016 2.01172,-1.875 C2.23307,-2.08984 2.49023,-2.19727 2.7832,-2.19727 C2.96549,-2.19727 3.14453,-2.14844 3.32031,-2.05078 C3.49609,-1.95313 3.63281,-1.81641 3.73047,-1.64063 C3.82813,-1.46484 3.87695,-1.28581 3.87695,-1.10352 C3.87695,-0.810547 3.76953,-0.553385 3.55469,-0.332031 C3.33984,-0.110677 3.08268,0 2.7832,0 C2.49023,0 2.23307,-0.110677 2.01172,-0.332031 C1.79036,-0.553385 1.67969,-0.810547 1.67969,-1.10352 "/>
</g>

<g fill="#212121" fill-opacity="1" stroke="none" transform="matrix(0.5,0,0,0.5,27.9321,67.6575)"
font-family=".AppleSystemUIFont" font-size="13" font-weight="400" font-style="normal" 
>
<path vector-effect="none" fill-rule="evenodd" d="M1.73828,-2.27539 C1.875,-1.88477 2.08496,-1.52995 2.36816,-1.21094 C2.65137,-0.891927 2.98665,-0.642904 3.37402,-0.463867 C3.76139,-0.284831 4.16341,-0.195313 4.58008,-0.195313 C5.54362,-0.195313 6.20768,-0.569661 6.57227,-1.31836 C6.93685,-2.06706 7.11914,-2.97526 7.11914,-4.04297 C7.11914,-4.50521 7.111,-4.89421 7.09473,-5.20996 C7.07845,-5.52572 7.03451,-5.83008 6.96289,-6.12305 C6.83919,-6.5918 6.62272,-7.00195 6.31348,-7.35352 C6.00423,-7.70508 5.625,-7.88086 5.17578,-7.88086 C4.72656,-7.88086 4.34082,-7.8125 4.01855,-7.67578 C3.69629,-7.53906 3.43424,-7.37956 3.23242,-7.19727 C3.0306,-7.01497 2.85156,-6.82292 2.69531,-6.62109 C2.53906,-6.41927 2.44141,-6.31185 2.40234,-6.29883 L2.17773,-6.29883 C2.14518,-6.29883 2.10449,-6.31999 2.05566,-6.3623 C2.00684,-6.40462 1.98242,-6.44531 1.98242,-6.48438 L1.98242,-13.1641 C1.98242,-13.1966 2.00358,-13.2308 2.0459,-13.2666 C2.08822,-13.3024 2.13216,-13.3203 2.17773,-13.3203 L2.23633,-13.3203 C3.13477,-12.8906 4.08854,-12.6758 5.09766,-12.6758 C6.08724,-12.6758 7.04102,-12.8906 7.95898,-13.3203 L8.01758,-13.3203 C8.06315,-13.3203 8.10547,-13.304 8.14453,-13.2715 C8.18359,-13.2389 8.20313,-13.2031 8.20313,-13.1641 L8.20313,-12.9785 C8.20313,-12.9134 8.1901,-12.8809 8.16406,-12.8809 C7.70833,-12.2754 7.13704,-11.8034 6.4502,-11.4648 C5.76335,-11.1263 5.05208,-10.957 4.31641,-10.957 C3.78255,-10.957 3.23568,-11.0319 2.67578,-11.1816 L2.67578,-7.40234 C3.11849,-7.76042 3.514,-8.01595 3.8623,-8.16895 C4.21061,-8.32194 4.65495,-8.39844 5.19531,-8.39844 C5.93099,-8.39844 6.59017,-8.18685 7.17285,-7.76367 C7.75553,-7.34049 8.20313,-6.78874 8.51563,-6.1084 C8.82813,-5.42806 8.98438,-4.73307 8.98438,-4.02344 C8.98438,-3.22266 8.78743,-2.48047 8.39355,-1.79688 C7.99967,-1.11328 7.46419,-0.569661 6.78711,-0.166016 C6.11003,0.23763 5.37435,0.439453 4.58008,0.439453 C3.92253,0.439453 3.31868,0.270182 2.76855,-0.0683594 C2.21842,-0.406901 1.78548,-0.86263 1.46973,-1.43555 C1.15397,-2.00846 0.996094,-2.61719 0.996094,-3.26172 C0.996094,-3.5612 1.09375,-3.80534 1.28906,-3.99414 C1.48438,-4.18294 1.72852,-4.27734 2.02148,-4.27734 C2.31445,-4.27734 2.56022,-4.18132 2.75879,-3.98926 C2.95736,-3.7972 3.05664,-3.55469 3.05664,-3.26172 C3.05664,-2.97526 2.95736,-2.73275 2.75879,-2.53418 C2.56022,-2.33561 2.31445,-2.23633 2.02148,-2.23633 C1.97591,-2.23633 1.92383,-2.24121 1.86523,-2.25098 C1.80664,-2.26074 1.76432,-2.26888 1.73828,-2.27539 "/>
</g>

<g fill="#212121" fill-opacity="1" stroke="none" transform="matrix(0.5,0,0,0.5,27.9321,32.345)"
font-family=".AppleSystemUIFont" font-size="13" font-weight="400" font-style="normal" 
>
<path vector-effect="none" fill-rule="evenodd" d="M1.85547,0 L1.85547,-0.703125 C3.52214,-0.703125 4.35547,-0.914714 4.35547,-1.33789 L4.35547,-11.8359 C3.66536,-11.5039 2.79297,-11.3379 1.73828,-11.3379 L1.73828,-12.041 C3.3724,-12.041 4.60612,-12.4674 5.43945,-13.3203 L5.72266,-13.3203 C5.76823,-13.3203 5.81217,-13.3024 5.85449,-13.2666 C5.89681,-13.2308 5.91797,-13.1901 5.91797,-13.1445 L5.91797,-1.33789 C5.91797,-0.914714 6.7513,-0.703125 8.41797,-0.703125 L8.41797,0 L1.85547,0"/>
</g>

<g fill="#212121" fill-opacity="1" stroke="none" transform="matrix(0.5,0,0,0.5,123.932,10)"
font-family=".AppleSystemUIFont" font-size="13" font-weight="400" font-style="normal" 
>
<path vector-effect="none" fill-rule="evenodd" d="M0.738281,0 L0.738281,-0.84375 C2.38672,-0.84375 3.21094,-1.09766 3.21094,-1.60547 L3.21094,-14.7891 C3.21094,-15.2969 2.38672,-15.5508 0.738281,-15.5508 L0.738281,-16.3945 L8.51953,-16.3945 L8.51953,-15.5508 C6.47266,-15.5508 5.44922,-15.2969 5.44922,-14.7891 L5.44922,-1.60547 C5.44922,-1.26172 5.54688,-1.04883 5.74219,-0.966797 C5.9375,-0.884766 6.24609,-0.84375 6.66797,-0.84375 L8.51953,-0.84375 C9.71484,-0.84375 10.6367,-1.0625 11.2852,-1.5 C11.9336,-1.9375 12.3926,-2.5332 12.6621,-3.28711 C12.9316,-4.04102 13.1367,-5.04297 13.2773,-6.29297 L13.9688,-6.29297 L13.3008,0 L0.738281,0"/>
</g>

<g fill="#212121" fill-opacity="1" stroke="none" transform="matrix(0.5,0,0,0.5,131.432,10)"
font-family=".AppleSystemUIFont" font-size="13" font-weight="400" font-style="normal" 
>
<path vector-effect="none" fill-rule="evenodd" d="M0.738281,0 L0.738281,-0.84375 C1.28516,-0.84375 1.73438,-0.886719 2.08594,-0.972656 C2.4375,-1.05859 2.61328,-1.26953 2.61328,-1.60547 L2.61328,-8.15625 C2.61328,-8.77344 2.49414,-9.15234 2.25586,-9.29297 C2.01758,-9.43359 1.54688,-9.50391 0.84375,-9.50391 L0.84375,-10.3477 L4.30078,-10.6055 L4.30078,-1.60547 C4.30078,-1.26953 4.45313,-1.05859 4.75781,-0.972656 C5.0625,-0.886719 5.46875,-0.84375 5.97656,-0.84375 L5.97656,0 L0.738281,0 M1.75781,-14.7305 C1.75781,-15.082 1.89063,-15.3906 2.15625,-15.6563 C2.42188,-15.9219 2.72656,-16.0547 3.07031,-16.0547 C3.29688,-16.0547 3.51563,-15.9961 3.72656,-15.8789 C3.9375,-15.7617 4.10156,-15.5977 4.21875,-15.3867 C4.33594,-15.1758 4.39453,-14.957 4.39453,-14.7305 C4.39453,-14.3867 4.26172,-14.082 3.99609,-13.8164 C3.73047,-13.5508 3.42188,-13.418 3.07031,-13.418 C2.72656,-13.418 2.42188,-13.5508 2.15625,-13.8164 C1.89063,-14.082 1.75781,-14.3867 1.75781,-14.7305 "/>
</g>

<g fill="#212121" fill-opacity="1" stroke="none" transform="matrix(0.5,0,0,0.5,134.765,10)"
font-family=".AppleSystemUIFont" font-size="13" font-weight="400" font-style="normal" 
>
<path vector-effect="none" fill-rule="evenodd" d="M0.714844,0 L0.714844,-0.84375 C1.26172,-0.84375 1.71094,-0.886719 2.0625,-0.972656 C2.41406,-1.05859 2.58984,-1.26953 2.58984,-1.60547 L2.58984,-8.15625 C2.58984,-8.58594 2.52539,-8.89648 2.39648,-9.08789 C2.26758,-9.2793 2.08203,-9.39648 1.83984,-9.43945 C1.59766,-9.48242 1.22266,-9.50391 0.714844,-9.50391 L0.714844,-10.3477 L4.19531,-10.6055 L4.19531,-8.26172 C4.51563,-8.94922 4.99023,-9.51172 5.61914,-9.94922 C6.24805,-10.3867 6.93359,-10.6055 7.67578,-10.6055 C8.78516,-10.6055 9.61914,-10.3398 10.1777,-9.80859 C10.7363,-9.27734 11.0156,-8.46484 11.0156,-7.37109 L11.0156,-1.60547 C11.0156,-1.26953 11.1914,-1.05859 11.543,-0.972656 C11.8945,-0.886719 12.3438,-0.84375 12.8906,-0.84375 L12.8906,0 L7.39453,0 L7.39453,-0.84375 C7.94141,-0.84375 8.39063,-0.886719 8.74219,-0.972656 C9.09375,-1.05859 9.26953,-1.26953 9.26953,-1.60547 L9.26953,-7.30078 C9.26953,-8.08203 9.15625,-8.72461 8.92969,-9.22852 C8.70313,-9.73242 8.23828,-9.98438 7.53516,-9.98438 C6.60547,-9.98438 5.8418,-9.61328 5.24414,-8.87109 C4.64648,-8.12891 4.34766,-7.28516 4.34766,-6.33984 L4.34766,-1.60547 C4.34766,-1.26953 4.52344,-1.05859 4.875,-0.972656 C5.22656,-0.886719 5.67188,-0.84375 6.21094,-0.84375 L6.21094,0 L0.714844,0"/>
</g>

<g fill="#212121" fill-opacity="1" stroke="none" transform="matrix(0.5,0,0,0.5,141.432,10)"
font-family=".AppleSystemUIFont" font-size="13" font-weight="400" font-style="normal" 
>
<path vector-effect="none" fill-rule="evenodd" d="M5.97656,0.269531 C5,0.269531 4.10352,0.0136719 3.28711,-0.498047 C2.4707,-1.00977 1.83008,-1.69336 1.36523,-2.54883 C0.900391,-3.4043 0.667969,-4.30859 0.667969,-5.26172 C0.667969,-6.19922 0.880859,-7.08984 1.30664,-7.93359 C1.73242,-8.77734 2.32617,-9.45898 3.08789,-9.97852 C3.84961,-10.498 4.69922,-10.7578 5.63672,-10.7578 C6.37109,-10.7578 7.00977,-10.6348 7.55273,-10.3887 C8.0957,-10.1426 8.54297,-9.80078 8.89453,-9.36328 C9.24609,-8.92578 9.51172,-8.41016 9.69141,-7.81641 C9.87109,-7.22266 9.96094,-6.57031 9.96094,-5.85938 C9.96094,-5.64844 9.87891,-5.54297 9.71484,-5.54297 L2.76563,-5.54297 L2.76563,-5.28516 C2.76563,-3.95703 3.0332,-2.81641 3.56836,-1.86328 C4.10352,-0.910156 4.97656,-0.433594 6.1875,-0.433594 C6.67969,-0.433594 7.13477,-0.542969 7.55273,-0.761719 C7.9707,-0.980469 8.33398,-1.28516 8.64258,-1.67578 C8.95117,-2.06641 9.16016,-2.48438 9.26953,-2.92969 C9.28516,-2.98438 9.31445,-3.0332 9.35742,-3.07617 C9.40039,-3.11914 9.44922,-3.14063 9.50391,-3.14063 L9.71484,-3.14063 C9.87891,-3.14063 9.96094,-3.03906 9.96094,-2.83594 C9.73438,-1.92969 9.24609,-1.18555 8.49609,-0.603516 C7.74609,-0.0214844 6.90625,0.269531 5.97656,0.269531 M2.78906,-6.14063 L8.26172,-6.14063 C8.26172,-6.74219 8.17773,-7.35156 8.00977,-7.96875 C7.8418,-8.58594 7.5625,-9.09961 7.17188,-9.50977 C6.78125,-9.91992 6.26953,-10.125 5.63672,-10.125 C4.73047,-10.125 4.0293,-9.70117 3.5332,-8.85352 C3.03711,-8.00586 2.78906,-7.10156 2.78906,-6.14063 "/>
</g>

<g fill="#212121" fill-opacity="1" stroke="none" transform="matrix(0.5,0,0,0.5,150.765,10)"
font-family=".AppleSystemUIFont" font-size="13" font-weight="400" font-style="normal" 
>
<path vector-effect="none" fill-rule="evenodd" d="M0.796875,0 L0.796875,-0.84375 C2.44531,-0.84375 3.26953,-1.09766 3.26953,-1.60547 L3.26953,-14.7891 C3.26953,-15.2969 2.44531,-15.5508 0.796875,-15.5508 L0.796875,-16.3945 L9.33984,-16.3945 C10.2148,-16.3945 11.0898,-16.2148 11.9648,-15.8555 C12.8398,-15.4961 13.5605,-14.9727 14.127,-14.2852 C14.6934,-13.5977 14.9766,-12.7969 14.9766,-11.8828 C14.9766,-10.9922 14.6914,-10.2109 14.1211,-9.53906 C13.5508,-8.86719 12.832,-8.35742 11.9648,-8.00977 C11.0977,-7.66211 10.2227,-7.48828 9.33984,-7.48828 L5.49609,-7.48828 L5.49609,-1.60547 C5.49609,-1.09766 6.32031,-0.84375 7.96875,-0.84375 L7.96875,0 L0.796875,0 M5.42578,-8.20313 L8.68359,-8.20313 C9.56641,-8.20313 10.2813,-8.33008 10.8281,-8.58398 C11.375,-8.83789 11.7754,-9.23242 12.0293,-9.76758 C12.2832,-10.3027 12.4102,-11.0078 12.4102,-11.8828 C12.4102,-13.1875 12.123,-14.125 11.5488,-14.6953 C10.9746,-15.2656 10.0195,-15.5508 8.68359,-15.5508 L6.64453,-15.5508 C6.35547,-15.5508 6.13086,-15.5391 5.9707,-15.5156 C5.81055,-15.4922 5.67969,-15.4238 5.57813,-15.3105 C5.47656,-15.1973 5.42578,-15.0234 5.42578,-14.7891 L5.42578,-8.20313"/>
</g>

<g fill="#212121" fill-opacity="1" stroke="none" transform="matrix(0.5,0,0,0.5,158.932,10)"
font-family=".AppleSystemUIFont" font-size="13" font-weight="400" font-style="normal" 
>
<path vector-effect="none" fill-rule="evenodd" d="M0.738281,0 L0.738281,-0.84375 C1.28516,-0.84375 1.73438,-0.886719 2.08594,-0.972656 C2.4375,-1.05859 2.61328,-1.26953 2.61328,-1.60547 L2.61328,-14.2031 C2.61328,-14.6328 2.54883,-14.9434 2.41992,-15.1348 C2.29102,-15.3262 2.10547,-15.4434 1.86328,-15.4863 C1.62109,-15.5293 1.24609,-15.5508 0.738281,-15.5508 L0.738281,-16.3945 L4.30078,-16.6523 L4.30078,-1.60547 C4.30078,-1.26953 4.47656,-1.05859 4.82813,-0.972656 C5.17969,-0.886719 5.625,-0.84375 6.16406,-0.84375 L6.16406,0 L0.738281,0"/>
</g>

<g fill="#212121" fill-opacity="1" stroke="none" transform="matrix(0.5,0,0,0.5,162.265,10)"
font-family=".AppleSystemUIFont" font-size="13" font-weight="400" font-style="normal" 
>
<path vector-effect="none" fill-rule="evenodd" d="M6,0.269531 C5.03906,0.269531 4.14844,0.0253906 3.32813,-0.462891 C2.50781,-0.951172 1.85938,-1.60547 1.38281,-2.42578 C0.90625,-3.24609 0.667969,-4.14063 0.667969,-5.10938 C0.667969,-5.84375 0.798828,-6.55078 1.06055,-7.23047 C1.32227,-7.91016 1.69727,-8.51758 2.18555,-9.05273 C2.67383,-9.58789 3.24219,-10.0059 3.89063,-10.3066 C4.53906,-10.6074 5.24219,-10.7578 6,-10.7578 C6.98438,-10.7578 7.88086,-10.498 8.68945,-9.97852 C9.49805,-9.45898 10.1367,-8.76367 10.6055,-7.89258 C11.0742,-7.02148 11.3086,-6.09375 11.3086,-5.10938 C11.3086,-4.14844 11.0703,-3.25586 10.5938,-2.43164 C10.1172,-1.60742 9.4707,-0.951172 8.6543,-0.462891 C7.83789,0.0253906 6.95313,0.269531 6,0.269531 M6,-0.433594 C7.28125,-0.433594 8.13672,-0.898438 8.56641,-1.82813 C8.99609,-2.75781 9.21094,-3.94141 9.21094,-5.37891 C9.21094,-6.18359 9.16797,-6.84961 9.08203,-7.37695 C8.99609,-7.9043 8.80859,-8.38281 8.51953,-8.8125 C8.33984,-9.07813 8.11133,-9.31055 7.83398,-9.50977 C7.55664,-9.70898 7.26367,-9.86133 6.95508,-9.9668 C6.64648,-10.0723 6.32813,-10.125 6,-10.125 C5.5,-10.125 5.02539,-10.0117 4.57617,-9.78516 C4.12695,-9.55859 3.75391,-9.23438 3.45703,-8.8125 C3.16016,-8.35938 2.9707,-7.86133 2.88867,-7.31836 C2.80664,-6.77539 2.76563,-6.12891 2.76563,-5.37891 C2.76563,-4.48047 2.84375,-3.67383 3,-2.95898 C3.15625,-2.24414 3.4707,-1.64453 3.94336,-1.16016 C4.41602,-0.675781 5.10156,-0.433594 6,-0.433594 "/>
</g>

<g fill="#212121" fill-opacity="1" stroke="none" transform="matrix(0.5,0,0,0.5,168.265,10)"
font-family=".AppleSystemUIFont" font-size="13" font-weight="400" font-style="normal" 
>
<path vector-effect="none" fill-rule="evenodd" d="M2.44922,-2.88281 L2.44922,-9.50391 L0.457031,-9.50391 L0.457031,-10.125 C1.50391,-10.125 2.27344,-10.6133 2.76563,-11.5898 C3.25781,-12.5664 3.50391,-13.625 3.50391,-14.7656 L4.19531,-14.7656 L4.19531,-10.3477 L7.58203,-10.3477 L7.58203,-9.50391 L4.19531,-9.50391 L4.19531,-2.92969 C4.19531,-2.26563 4.30664,-1.68359 4.5293,-1.18359 C4.75195,-0.683594 5.15234,-0.433594 5.73047,-0.433594 C6.27734,-0.433594 6.67188,-0.697266 6.91406,-1.22461 C7.15625,-1.75195 7.27734,-2.32031 7.27734,-2.92969 L7.27734,-4.34766 L7.96875,-4.34766 L7.96875,-2.88281 C7.96875,-2.38281 7.87695,-1.88867 7.69336,-1.40039 C7.50977,-0.912109 7.23828,-0.511719 6.87891,-0.199219 C6.51953,0.113281 6.08203,0.269531 5.56641,0.269531 C4.60547,0.269531 3.8457,-0.0175781 3.28711,-0.591797 C2.72852,-1.16602 2.44922,-1.92969 2.44922,-2.88281 "/>
</g>

<g fill="none" stroke="#000000" stroke-opacity="1" stroke-width="1" stroke-linecap="butt" stroke-linejoin="round" transform="matrix(0.5,0,0,0.5,-0.56793,-1.67995)"
font-family=".AppleSystemUIFont" font-size="13" font-weight="400" font-style="normal" 
>
<polyline fill="none" vector-effect="none" points="75,204.5 77.2412,200.041 79.4824,195.586 81.7236,191.141 83.9648,186.708 86.206,182.294 88.4472,177.901 90.6884,173.535 92.9296,169.2 95.1709,164.9 97.4121,160.639 99.6533,156.423 101.894,152.254 104.136,148.137 106.377,144.076 108.618,140.076 110.859,136.14 113.101,132.272 115.342,128.476 117.583,124.756 119.824,121.115 122.065,117.557 124.307,114.086 126.548,110.706 128.789,107.418 131.03,104.228 133.271,101.137 135.513,98.1496 137.754,95.2681 139.995,92.4954 142.236,89.8344 144.477,87.2877 146.719,84.8579 148.96,82.5473 151.201,80.3582 153.442,78.2929 155.683,76.3534 157.925,74.5417 160.166,72.8595 162.407,71.3085 164.648,69.8903 166.889,68.6063 169.131,67.4577 171.372,66.4458 173.613,65.5714 175.854,64.8356 178.095,64.2389 180.337,63.7821 182.578,63.4656 184.819,63.2896 187.06,63.2544 189.302,63.36 191.543,63.6063 193.784,63.993 196.025,64.5198 198.266,65.1861 200.508,65.9913 202.749,66.9346 204.99,68.015 207.231,69.2314 209.472,70.5827 211.714,72.0675 213.955,73.6843 216.196,75.4315 218.437,77.3073 220.678,79.31 222.92,81.4374 225.161,83.6875 227.402,86.058 229.643,88.5466 231.884,91.1508 234.126,93.868 236.367,96.6954 238.608,99.6303 240.849,102.67 243.09,105.811 245.332,109.05 247.573,112.385 249.814,115.811 252.055,119.326 254.296,122.925 256.538,126.606 258.779,130.365 261.02,134.197 263.261,138.1 265.503,142.068 267.744,146.099 269.985,150.189 272.226,154.332 274.467,158.525 276.709,162.764 278.95,167.045 281.191,171.363 283.432,175.714 285.673,180.094 287.915,184.498 290.156,188.922 292.397,193.362 294.638,197.813 296.879,202.27 299.121,206.73 301.362,211.187 303.603,215.638 305.844,220.078 308.085,224.502 310.327,228.906 312.568,233.286 314.809,237.637 317.05,241.955 319.291,246.236 321.533,250.475 323.774,254.668 326.015,258.811 328.256,262.901 330.497,266.932 332.739,270.9 334.98,274.803 337.221,278.635 339.462,282.394 341.704,286.075 343.945,289.674 346.186,293.189 348.427,296.615 350.668,299.95 352.91,303.189 355.151,306.33 357.392,309.37 359.633,312.305 361.874,315.132 364.116,317.849 366.357,320.453 368.598,322.942 370.839,325.313 373.08,327.563 375.322,329.69 377.563,331.693 379.804,333.569 382.045,335.316 384.286,336.932 386.528,338.417 388.769,339.769 391.01,340.985 393.251,342.065 395.492,343.009 397.734,343.814 399.975,344.48 402.216,345.007 404.457,345.394 406.698,345.64 408.94,345.746 411.181,345.71 413.422,345.534 415.663,345.218 417.905,344.761 420.146,344.164 422.387,343.429 424.628,342.554 426.869,341.542 429.111,340.394 431.352,339.11 433.593,337.691 435.834,336.141 438.075,334.458 440.317,332.647 442.558,330.707 444.799,328.642 447.04,326.453 449.281,324.142 451.523,321.712 453.764,319.166 456.005,316.505 458.246,313.732 460.487,310.85 462.729,307.863 464.97,304.772 467.211,301.582 469.452,298.294 471.693,294.914 473.935,291.443 476.176,287.885 478.417,284.244 480.658,280.524 482.9,276.728 485.141,272.86 487.382,268.924 489.623,264.924 491.864,260.863 494.106,256.746 496.347,252.577 498.588,248.361 500.829,244.1 503.07,239.8 505.312,235.465 507.553,231.099 509.794,226.706 512.035,222.292 514.276,217.859 516.518,213.414 518.759,208.959 521,204.5 " />
</g>

<g fill="none" stroke="#ff0000" stroke-opacity="1" stroke-dasharray="1,3" stroke-dashoffset="0" stroke-width="1" stroke-linecap="butt" stroke-linejoin="round" transform="matrix(0.5,0,0,0.5,-0.56793,-1.67995)"
font-family=".AppleSystemUIFont" font-size="13" font-weight="400" font-style="normal" 
>
<polyline fill="none" vector-effect="none" points="75,63.25 77.2412,63.3204 79.4824,63.5315 81.7236,63.8832 83.9648,64.375 86.206,65.0065 88.4472,65.7771 90.6884,66.6859 92.9296,67.7321 95.1709,68.9146 97.4121,70.2323 99.6533,71.6839 101.894,73.2678 104.136,74.9826 106.377,76.8264 108.618,78.7975 110.859,80.894 113.101,83.1136 115.342,85.4542 117.583,87.9135 119.824,90.4891 122.065,93.1782 124.307,95.9784 126.548,98.8867 128.789,101.9 131.03,105.016 133.271,108.231 135.513,111.542 137.754,114.946 139.995,118.439 142.236,122.017 144.477,125.678 146.719,129.418 148.96,133.232 151.201,137.118 153.442,141.07 155.683,145.086 157.925,149.161 160.166,153.291 162.407,157.472 164.648,161.701 166.889,165.971 169.131,170.28 171.372,174.624 173.613,178.997 175.854,183.395 178.095,187.815 180.337,192.251 182.578,196.699 184.819,201.155 187.06,205.615 189.302,210.073 191.543,214.526 193.784,218.969 196.025,223.397 198.266,227.807 200.508,232.193 202.749,236.552 204.99,240.879 207.231,245.169 209.472,249.419 211.714,253.624 213.955,257.781 216.196,261.884 218.437,265.93 220.678,269.914 222.92,273.834 225.161,277.684 227.402,281.461 229.643,285.162 231.884,288.782 234.126,292.319 236.367,295.767 238.608,299.125 240.849,302.389 243.09,305.554 245.332,308.62 247.573,311.581 249.814,314.435 252.055,317.18 254.296,319.813 256.538,322.331 258.779,324.731 261.02,327.012 263.261,329.17 265.503,331.204 267.744,333.112 269.985,334.891 272.226,336.541 274.467,338.059 276.709,339.443 278.95,340.694 281.191,341.808 283.432,342.786 285.673,343.626 287.915,344.327 290.156,344.888 292.397,345.31 294.638,345.592 296.879,345.732 299.121,345.732 301.362,345.592 303.603,345.31 305.844,344.888 308.085,344.327 310.327,343.626 312.568,342.786 314.809,341.808 317.05,340.694 319.291,339.443 321.533,338.059 323.774,336.541 326.015,334.891 328.256,333.112 330.497,331.204 332.739,329.17 334.98,327.012 337.221,324.731 339.462,322.331 341.704,319.813 343.945,317.18 346.186,314.435 348.427,311.581 350.668,308.62 352.91,305.554 355.151,302.389 357.392,299.125 359.633,295.767 361.874,292.319 364.116,288.782 366.357,285.162 368.598,281.461 370.839,277.684 373.08,273.834 375.322,269.914 377.563,265.93 379.804,261.884 382.045,257.781 384.286,253.624 386.528,249.419 388.769,245.169 391.01,240.879 393.251,236.552 395.492,232.193 397.734,227.807 399.975,223.397 402.216,218.969 404.457,214.526 406.698,210.073 408.94,205.615 411.181,201.155 413.422,196.699 415.663,192.251 417.905,187.815 420.146,183.395 422.387,178.997 424.628,174.624 426.869,170.28 429.111,165.971 431.352,161.701 433.593,157.472 435.834,153.291 438.075,149.161 440.317,145.086 442.558,141.07 444.799,137.118 447.04,133.232 449.281,129.418 451.523,125.678 453.764,122.017 456.005,118.439 458.246,114.946 460.487,111.542 462.729,108.231 464.97,105.016 467.211,101.9 469.452,98.8867 471.693,95.9784 473.935,93.1782 476.176,90.4891 478.417,87.9135 480.658,85.4542 482.9,83.1136 485.141,80.894 487.382,78.7975 489.623,76.8264 491.864,74.9826 494.106,73.2678 496.347,71.6839 498.588,70.2323 500.829,68.9146 503.07,67.7321 505.312,66.6859 507.553,65.7771 509.794,65.0065 512.035,64.375 514.276,63.8832 516.518,63.5315 518.759,63.3204 521,63.25 " />
</g>

<g fill="none" stroke="#0000ff" stroke-opacity="1" stroke-dasharray="10,6" stroke-dashoffset="0" stroke-width="1" stroke-linecap="butt" stroke-linejoin="round" transform="matrix(0.5,0,0,0.5,-0.56793,-1.67995)"
font-family=".AppleSystemUIFont" font-size="13" font-weight="400" font-style="normal" 
>
<polyline fill="none" vector-effect="none" points="75,190.375 77.2412,185.944 79.4824,181.574 81.7236,177.268 83.9648,173.031 86.206,168.867 88.4472,164.778 90.6884,160.768 92.9296,156.839 95.1709,152.995 97.4121,149.238 99.6533,145.57 101.894,141.994 104.136,138.51 106.377,135.121 108.618,131.828 110.859,128.632 113.101,125.534 115.342,122.534 117.583,119.635 119.824,116.835 122.065,114.135 124.307,111.536 126.548,109.037 128.789,106.638 131.03,104.339 133.271,102.14 135.513,100.039 137.754,98.0374 139.995,96.1333 142.236,94.3263 144.477,92.6158 146.719,91.0008 148.96,89.4806 151.201,88.0544 153.442,86.7212 155.683,85.4802 157.925,84.3306 160.166,83.2715 162.407,82.3021 164.648,81.4216 166.889,80.6294 169.131,79.9247 171.372,79.3069 173.613,78.7755 175.854,78.3299 178.095,77.9697 180.337,77.6947 182.578,77.5044 184.819,77.3988 187.06,77.3776 189.302,77.441 191.543,77.589 193.784,77.8216 196.025,78.1392 198.266,78.542 200.508,79.0304 202.749,79.605 204.99,80.2662 207.231,81.0145 209.472,81.8508 211.714,82.7756 213.955,83.7897 216.196,84.894 218.437,86.0892 220.678,87.3762 222.92,88.7558 225.161,90.2289 227.402,91.7964 229.643,93.4591 231.884,95.2177 234.126,97.0732 236.367,99.0261 238.608,101.077 240.849,103.227 243.09,105.476 245.332,107.825 247.573,110.274 249.814,112.823 252.055,115.473 254.296,118.222 256.538,121.072 258.779,124.022 261.02,127.07 263.261,130.217 265.503,133.462 267.744,136.804 269.985,140.24 272.226,143.771 274.467,147.393 276.709,151.106 278.95,154.907 281.191,158.793 283.432,162.763 285.673,166.813 287.915,170.94 290.156,175.141 292.397,179.413 294.638,183.751 296.879,188.152 299.121,192.612 301.362,197.126 303.603,201.689 305.844,206.296 308.085,210.943 310.327,215.624 312.568,220.334 314.809,225.067 317.05,229.816 319.291,234.577 321.533,239.343 323.774,244.107 326.015,248.863 328.256,253.605 330.497,258.325 332.739,263.018 334.98,267.676 337.221,272.292 339.462,276.86 341.704,281.372 343.945,285.822 346.186,290.202 348.427,294.505 350.668,298.725 352.91,302.855 355.151,306.888 357.392,310.817 359.633,314.635 361.874,318.337 364.116,321.916 366.357,325.366 368.598,328.68 370.839,331.854 373.08,334.881 375.322,337.756 377.563,340.475 379.804,343.031 382.045,345.421 384.286,347.641 386.528,349.685 388.769,351.552 391.01,353.236 393.251,354.736 395.492,356.048 397.734,357.17 399.975,358.1 402.216,358.836 404.457,359.376 406.698,359.721 408.94,359.869 411.181,359.82 413.422,359.573 415.663,359.13 417.905,358.492 420.146,357.659 422.387,356.633 424.628,355.415 426.869,354.009 429.111,352.417 431.352,350.641 433.593,348.685 435.834,346.552 438.075,344.247 440.317,341.773 442.558,339.135 444.799,336.338 447.04,333.386 449.281,330.285 451.523,327.04 453.764,323.658 456.005,320.142 458.246,316.501 460.487,312.74 462.729,308.865 464.97,304.884 467.211,300.802 469.452,296.626 471.693,292.363 473.935,288.021 476.176,283.605 478.417,279.123 480.658,274.583 482.9,269.99 485.141,265.352 487.382,260.676 489.623,255.968 491.864,251.236 494.106,246.486 496.347,241.725 498.588,236.96 500.829,232.196 503.07,227.44 505.312,222.698 507.553,217.976 509.794,213.28 512.035,208.615 514.276,203.987 516.518,199.401 518.759,194.862 521,190.375 " />
</g>

<g fill="#000000" fill-opacity="1" stroke="#000000" stroke-opacity="1" stroke-width="1" stroke-linecap="butt" stroke-linejoin="round" transform="matrix(0.5,0,0,0.5,-0.56793,-1.67995)"
font-family=".AppleSystemUIFont" font-size="13" font-weight="400" font-style="normal" 
>
<polyline fill="none" vector-effect="none" points="122.017,224.743 182.191,224.743 " />
</g>

<g fill="#ff0000" fill-opacity="1" stroke="#ff0000" stroke-opacity="1" stroke-dasharray="1,3" stroke-dashoffset="0" stroke-width="1" stroke-linecap="butt" stroke-linejoin="round" transform="matrix(0.5,0,0,0.5,-0.56793,-1.67995)"
font-family=".AppleSystemUIFont" font-size="13" font-weight="400" font-style="normal" 
>
<polyline fill="none" vector-effect="none" points="122.017,247 182.191,247 " />
</g>

<g fill="#0000ff" fill-opacity="1" stroke="#0000ff" stroke-opacity="1" stroke-dasharray="10,6" stroke-dashoffset="0" stroke-width="1" stroke-linecap="butt" stroke-linejoin="round" transform="matrix(0.5,0,0,0.5,-0.56793,-1.67995)"
font-family=".AppleSystemUIFont" font-size="13" font-weight="400" font-style="normal" 
>
<polyline fill="none" vector-effect="none" points="122.017,269.257 182.191,269.257 " />
</g>

<g fill="#212121" fill-opacity="1" stroke="none" transform="matrix(0.5,0,0,0.5,92.7839,112.852)"
font-family=".AppleSystemUIFont" font-size="13" font-weight="400" font-style="normal" 
>
<path vector-effect="none" fill-rule="evenodd" d="M3.04102,0 L3.04102,-0.632813 C3.64453,-0.632813 4.23047,-0.666504 4.79883,-0.733887 C5.36719,-0.80127 5.65137,-0.958008 5.65137,-1.2041 L5.65137,-11.0918 C5.65137,-11.3496 5.57959,-11.5093 5.43604,-11.5708 C5.29248,-11.6323 5.05957,-11.6631 4.7373,-11.6631 L3.98145,-11.6631 C2.99121,-11.6631 2.28809,-11.4463 1.87207,-11.0127 C1.65527,-10.7959 1.5,-10.4487 1.40625,-9.97119 C1.3125,-9.49365 1.2334,-8.89453 1.16895,-8.17383 L0.650391,-8.17383 L0.993164,-12.2959 L11.9883,-12.2959 L12.3311,-8.17383 L11.8037,-8.17383 C11.7334,-8.94727 11.6558,-9.56104 11.5708,-10.0151 C11.4858,-10.4692 11.332,-10.8018 11.1094,-11.0127 C10.6875,-11.4463 9.98438,-11.6631 9,-11.6631 L8.24414,-11.6631 C8.02734,-11.6631 7.85889,-11.6543 7.73877,-11.6367 C7.61865,-11.6191 7.52051,-11.5679 7.44434,-11.4829 C7.36816,-11.3979 7.33008,-11.2676 7.33008,-11.0918 L7.33008,-1.2041 C7.33008,-0.958008 7.61426,-0.80127 8.18262,-0.733887 C8.75098,-0.666504 9.33398,-0.632813 9.93164,-0.632813 L9.93164,0 L3.04102,0"/>
</g>

<g fill="#212121" fill-opacity="1" stroke="none" transform="matrix(0.5,0,0,0.5,98.5339,112.852)"
font-family=".AppleSystemUIFont" font-size="13" font-weight="400" font-style="normal" 
>
<path vector-effect="none" fill-rule="evenodd" d="M0.46582,0 L0.46582,-0.632813 C0.875977,-0.632813 1.21289,-0.665039 1.47656,-0.729492 C1.74023,-0.793945 1.87207,-0.952148 1.87207,-1.2041 L1.87207,-6.11719 C1.87207,-6.43945 1.82373,-6.67236 1.72705,-6.81592 C1.63037,-6.95947 1.49121,-7.04736 1.30957,-7.07959 C1.12793,-7.11182 0.84668,-7.12793 0.46582,-7.12793 L0.46582,-7.76074 L3.04102,-7.9541 L3.04102,-6.19629 C3.23438,-6.71777 3.50977,-7.14111 3.86719,-7.46631 C4.22461,-7.7915 4.6582,-7.9541 5.16797,-7.9541 C5.52539,-7.9541 5.84473,-7.84863 6.12598,-7.6377 C6.40723,-7.42676 6.54785,-7.14844 6.54785,-6.80273 C6.54785,-6.58594 6.47021,-6.39697 6.31494,-6.23584 C6.15967,-6.07471 5.96777,-5.99414 5.73926,-5.99414 C5.5166,-5.99414 5.32617,-6.07324 5.16797,-6.23145 C5.00977,-6.38965 4.93066,-6.58008 4.93066,-6.80273 C4.93066,-7.125 5.04492,-7.35352 5.27344,-7.48828 L5.16797,-7.48828 C4.68164,-7.48828 4.28467,-7.3125 3.97705,-6.96094 C3.66943,-6.60938 3.45117,-6.17285 3.32227,-5.65137 C3.19336,-5.12988 3.12891,-4.63184 3.12891,-4.15723 L3.12891,-1.2041 C3.12891,-0.823242 3.71191,-0.632813 4.87793,-0.632813 L4.87793,0 L0.46582,0"/>
</g>

<g fill="#212121" fill-opacity="1" stroke="none" transform="matrix(0.5,0,0,0.5,102.059,112.852)"
font-family=".AppleSystemUIFont" font-size="13" font-weight="400" font-style="normal" 
>
<path vector-effect="none" fill-rule="evenodd" d="M1.94238,-2.14453 L1.94238,-6.11719 C1.94238,-6.43945 1.89404,-6.67236 1.79736,-6.81592 C1.70068,-6.95947 1.56152,-7.04736 1.37988,-7.07959 C1.19824,-7.11182 0.916992,-7.12793 0.536133,-7.12793 L0.536133,-7.76074 L3.26074,-7.9541 L3.26074,-2.14453 C3.26074,-1.67578 3.29443,-1.31104 3.36182,-1.05029 C3.4292,-0.789551 3.57275,-0.594727 3.79248,-0.46582 C4.01221,-0.336914 4.3623,-0.272461 4.84277,-0.272461 C5.4873,-0.272461 6,-0.541992 6.38086,-1.08105 C6.76172,-1.62012 6.95215,-2.23242 6.95215,-2.91797 L6.95215,-6.11719 C6.95215,-6.43945 6.90234,-6.67236 6.80273,-6.81592 C6.70313,-6.95947 6.56396,-7.04736 6.38525,-7.07959 C6.20654,-7.11182 5.92676,-7.12793 5.5459,-7.12793 L5.5459,-7.76074 L8.26172,-7.9541 L8.26172,-1.63477 C8.26172,-1.31836 8.31006,-1.08838 8.40674,-0.944824 C8.50342,-0.80127 8.64258,-0.713379 8.82422,-0.681152 C9.00586,-0.648926 9.28711,-0.632813 9.66797,-0.632813 L9.66797,0 L7.00488,0.202148 L7.00488,-1.31836 C6.78223,-0.867188 6.47168,-0.500977 6.07324,-0.219727 C5.6748,0.0615234 5.23535,0.202148 4.75488,0.202148 C3.89355,0.202148 3.20947,0.019043 2.70264,-0.347168 C2.1958,-0.713379 1.94238,-1.3125 1.94238,-2.14453 "/>
</g>

<g fill="#212121" fill-opacity="1" stroke="none" transform="matrix(0.5,0,0,0.5,107.059,112.852)"
font-family=".AppleSystemUIFont" font-size="13" font-weight="400" font-style="normal" 
>
<path vector-effect="none" fill-rule="evenodd" d="M1.83691,-2.16211 L1.83691,-7.12793 L0.342773,-7.12793 L0.342773,-7.59375 C1.12793,-7.59375 1.70508,-7.95996 2.07422,-8.69238 C2.44336,-9.4248 2.62793,-10.2188 2.62793,-11.0742 L3.14648,-11.0742 L3.14648,-7.76074 L5.68652,-7.76074 L5.68652,-7.12793 L3.14648,-7.12793 L3.14648,-2.19727 C3.14648,-1.69922 3.22998,-1.2627 3.39697,-0.887695 C3.56396,-0.512695 3.86426,-0.325195 4.29785,-0.325195 C4.70801,-0.325195 5.00391,-0.522949 5.18555,-0.918457 C5.36719,-1.31396 5.45801,-1.74023 5.45801,-2.19727 L5.45801,-3.26074 L5.97656,-3.26074 L5.97656,-2.16211 C5.97656,-1.78711 5.90771,-1.4165 5.77002,-1.05029 C5.63232,-0.684082 5.42871,-0.383789 5.15918,-0.149414 C4.88965,0.0849609 4.56152,0.202148 4.1748,0.202148 C3.4541,0.202148 2.88428,-0.0131836 2.46533,-0.443848 C2.04639,-0.874512 1.83691,-1.44727 1.83691,-2.16211 "/>
</g>

<g fill="#212121" fill-opacity="1" stroke="none" transform="matrix(0.5,0,0,0.5,110.559,112.852)"
font-family=".AppleSystemUIFont" font-size="13" font-weight="400" font-style="normal" 
>
<path vector-effect="none" fill-rule="evenodd" d="M0.536133,0 L0.536133,-0.632813 C0.946289,-0.632813 1.2832,-0.665039 1.54688,-0.729492 C1.81055,-0.793945 1.94238,-0.952148 1.94238,-1.2041 L1.94238,-10.6523 C1.94238,-10.9746 1.89404,-11.2075 1.79736,-11.3511 C1.70068,-11.4946 1.56152,-11.5825 1.37988,-11.6147 C1.19824,-11.647 0.916992,-11.6631 0.536133,-11.6631 L0.536133,-12.2959 L3.20801,-12.4893 L3.20801,-6.30176 C3.45996,-6.7998 3.81152,-7.19971 4.2627,-7.50146 C4.71387,-7.80322 5.21191,-7.9541 5.75684,-7.9541 C6.58887,-7.9541 7.21436,-7.75488 7.6333,-7.35645 C8.05225,-6.95801 8.26172,-6.34863 8.26172,-5.52832 L8.26172,-1.2041 C8.26172,-0.952148 8.39355,-0.793945 8.65723,-0.729492 C8.9209,-0.665039 9.25781,-0.632813 9.66797,-0.632813 L9.66797,0 L5.5459,0 L5.5459,-0.632813 C5.95605,-0.632813 6.29297,-0.665039 6.55664,-0.729492 C6.82031,-0.793945 6.95215,-0.952148 6.95215,-1.2041 L6.95215,-5.47559 C6.95215,-6.06152 6.86719,-6.54346 6.69727,-6.92139 C6.52734,-7.29932 6.17871,-7.48828 5.65137,-7.48828 C4.9541,-7.48828 4.38135,-7.20996 3.93311,-6.65332 C3.48486,-6.09668 3.26074,-5.46387 3.26074,-4.75488 L3.26074,-1.2041 C3.26074,-0.952148 3.39258,-0.793945 3.65625,-0.729492 C3.91992,-0.665039 4.25391,-0.632813 4.6582,-0.632813 L4.6582,0 L0.536133,0"/>
</g>

<g fill="#212121" fill-opacity="1" stroke="none" transform="matrix(0.5,0,0,0.5,92.7839,123.98)"
font-family=".AppleSystemUIFont" font-size="13" font-weight="400" font-style="normal" 
>
<path vector-effect="none" fill-rule="evenodd" d="M0.632813,0 L0.632813,-0.632813 C1.86914,-0.632813 2.4873,-0.987305 2.4873,-1.69629 L2.4873,-11.0918 C2.4873,-11.4727 1.86914,-11.6631 0.632813,-11.6631 L0.632813,-12.2959 L4.03418,-12.2959 C4.18066,-12.2959 4.27734,-12.2285 4.32422,-12.0938 L8.24414,-1.90723 L12.1641,-12.0938 C12.2109,-12.2285 12.3076,-12.2959 12.4541,-12.2959 L15.8555,-12.2959 L15.8555,-11.6631 C14.6191,-11.6631 14.001,-11.4727 14.001,-11.0918 L14.001,-1.2041 C14.001,-0.823242 14.6191,-0.632813 15.8555,-0.632813 L15.8555,0 L10.6172,0 L10.6172,-0.632813 C11.8535,-0.632813 12.4717,-0.823242 12.4717,-1.2041 L12.4717,-11.6807 L8.04199,-0.202148 C7.98926,-0.0673828 7.88965,0 7.74316,0 C7.59082,0 7.48828,-0.0673828 7.43555,-0.202148 L3.05859,-11.54 L3.05859,-1.69629 C3.05859,-0.987305 3.67676,-0.632813 4.91309,-0.632813 L4.91309,0 L0.632813,0"/>
</g>

<g fill="#212121" fill-opacity="1" stroke="none" transform="matrix(0.5,0,0,0.5,101.034,123.98)"
font-family=".AppleSystemUIFont" font-size="13" font-weight="400" font-style="normal" 
>
<path vector-effect="none" fill-rule="evenodd" d="M4.5,0.202148 C3.7793,0.202148 3.11133,0.019043 2.49609,-0.347168 C1.88086,-0.713379 1.39453,-1.2041 1.03711,-1.81934 C0.679688,-2.43457 0.500977,-3.10547 0.500977,-3.83203 C0.500977,-4.38281 0.599121,-4.91309 0.79541,-5.42285 C0.991699,-5.93262 1.27295,-6.38818 1.63916,-6.78955 C2.00537,-7.19092 2.43164,-7.50439 2.91797,-7.72998 C3.4043,-7.95557 3.93164,-8.06836 4.5,-8.06836 C5.23828,-8.06836 5.91064,-7.87354 6.51709,-7.48389 C7.12354,-7.09424 7.60254,-6.57275 7.9541,-5.91943 C8.30566,-5.26611 8.48145,-4.57031 8.48145,-3.83203 C8.48145,-3.11133 8.30273,-2.44189 7.94531,-1.82373 C7.58789,-1.20557 7.10303,-0.713379 6.49072,-0.347168 C5.87842,0.019043 5.21484,0.202148 4.5,0.202148 M4.5,-0.325195 C5.46094,-0.325195 6.10254,-0.673828 6.4248,-1.37109 C6.74707,-2.06836 6.9082,-2.95605 6.9082,-4.03418 C6.9082,-4.6377 6.87598,-5.13721 6.81152,-5.53271 C6.74707,-5.92822 6.60645,-6.28711 6.38965,-6.60938 C6.25488,-6.80859 6.0835,-6.98291 5.87549,-7.13232 C5.66748,-7.28174 5.44775,-7.396 5.21631,-7.4751 C4.98486,-7.5542 4.74609,-7.59375 4.5,-7.59375 C4.125,-7.59375 3.76904,-7.50879 3.43213,-7.33887 C3.09521,-7.16895 2.81543,-6.92578 2.59277,-6.60938 C2.37012,-6.26953 2.22803,-5.896 2.1665,-5.48877 C2.10498,-5.08154 2.07422,-4.59668 2.07422,-4.03418 C2.07422,-3.36035 2.13281,-2.75537 2.25,-2.21924 C2.36719,-1.68311 2.60303,-1.2334 2.95752,-0.870117 C3.31201,-0.506836 3.82617,-0.325195 4.5,-0.325195 "/>
</g>

<g fill="#212121" fill-opacity="1" stroke="none" transform="matrix(0.5,0,0,0.5,105.784,123.98)"
font-family=".AppleSystemUIFont" font-size="13" font-weight="400" font-style="normal" 
>
<path vector-effect="none" fill-rule="evenodd" d="M4.39453,0.202148 C3.68555,0.202148 3.03809,0.0102539 2.45215,-0.373535 C1.86621,-0.757324 1.41064,-1.2627 1.08545,-1.88965 C0.760254,-2.5166 0.597656,-3.18164 0.597656,-3.88477 C0.597656,-4.61133 0.774902,-5.28662 1.12939,-5.91064 C1.48389,-6.53467 1.96582,-7.03125 2.5752,-7.40039 C3.18457,-7.76953 3.85547,-7.9541 4.58789,-7.9541 C5.02734,-7.9541 5.44336,-7.86182 5.83594,-7.67725 C6.22852,-7.49268 6.56836,-7.23633 6.85547,-6.9082 L6.85547,-10.6523 C6.85547,-10.9746 6.80713,-11.2075 6.71045,-11.3511 C6.61377,-11.4946 6.47607,-11.5825 6.29736,-11.6147 C6.11865,-11.647 5.83887,-11.6631 5.45801,-11.6631 L5.45801,-12.2959 L8.12109,-12.4893 L8.12109,-1.63477 C8.12109,-1.31836 8.16943,-1.08838 8.26611,-0.944824 C8.36279,-0.80127 8.50049,-0.713379 8.6792,-0.681152 C8.85791,-0.648926 9.1377,-0.632813 9.51855,-0.632813 L9.51855,0 L6.80273,0.202148 L6.80273,-0.931641 C6.49219,-0.574219 6.12305,-0.295898 5.69531,-0.0966797 C5.26758,0.102539 4.83398,0.202148 4.39453,0.202148 M2.55762,-1.56445 C2.7627,-1.17188 3.03662,-0.858398 3.37939,-0.624023 C3.72217,-0.389648 4.0957,-0.272461 4.5,-0.272461 C4.99805,-0.272461 5.45508,-0.416016 5.87109,-0.703125 C6.28711,-0.990234 6.59766,-1.3623 6.80273,-1.81934 L6.80273,-6.13477 C6.66211,-6.39844 6.48486,-6.63428 6.271,-6.84229 C6.05713,-7.05029 5.81689,-7.20996 5.55029,-7.32129 C5.28369,-7.43262 5.00098,-7.48828 4.70215,-7.48828 C4.0752,-7.48828 3.57129,-7.31104 3.19043,-6.95654 C2.80957,-6.60205 2.54297,-6.14941 2.39063,-5.59863 C2.23828,-5.04785 2.16211,-4.4707 2.16211,-3.86719 C2.16211,-3.38672 2.18701,-2.96777 2.23682,-2.61035 C2.28662,-2.25293 2.39355,-1.9043 2.55762,-1.56445 "/>
</g>

<g fill="#212121" fill-opacity="1" stroke="none" transform="matrix(0.5,0,0,0.5,110.784,123.98)"
font-family=".AppleSystemUIFont" font-size="13" font-weight="400" font-style="normal" 
>
<path vector-effect="none" fill-rule="evenodd" d="M4.48242,0.202148 C3.75,0.202148 3.07764,0.0102539 2.46533,-0.373535 C1.85303,-0.757324 1.37256,-1.27002 1.02393,-1.91162 C0.675293,-2.55322 0.500977,-3.23145 0.500977,-3.94629 C0.500977,-4.64941 0.660645,-5.31738 0.97998,-5.9502 C1.29932,-6.58301 1.74463,-7.09424 2.31592,-7.48389 C2.88721,-7.87354 3.52441,-8.06836 4.22754,-8.06836 C4.77832,-8.06836 5.25732,-7.97607 5.66455,-7.7915 C6.07178,-7.60693 6.40723,-7.35059 6.6709,-7.02246 C6.93457,-6.69434 7.13379,-6.30762 7.26855,-5.8623 C7.40332,-5.41699 7.4707,-4.92773 7.4707,-4.39453 C7.4707,-4.23633 7.40918,-4.15723 7.28613,-4.15723 L2.07422,-4.15723 L2.07422,-3.96387 C2.07422,-2.96777 2.2749,-2.1123 2.67627,-1.39746 C3.07764,-0.682617 3.73242,-0.325195 4.64063,-0.325195 C5.00977,-0.325195 5.35107,-0.407227 5.66455,-0.571289 C5.97803,-0.735352 6.25049,-0.963867 6.48193,-1.25684 C6.71338,-1.5498 6.87012,-1.86328 6.95215,-2.19727 C6.96387,-2.23828 6.98584,-2.2749 7.01807,-2.30713 C7.05029,-2.33936 7.08691,-2.35547 7.12793,-2.35547 L7.28613,-2.35547 C7.40918,-2.35547 7.4707,-2.2793 7.4707,-2.12695 C7.30078,-1.44727 6.93457,-0.88916 6.37207,-0.452637 C5.80957,-0.0161133 5.17969,0.202148 4.48242,0.202148 M2.0918,-4.60547 L6.19629,-4.60547 C6.19629,-5.05664 6.1333,-5.51367 6.00732,-5.97656 C5.88135,-6.43945 5.67188,-6.82471 5.37891,-7.13232 C5.08594,-7.43994 4.70215,-7.59375 4.22754,-7.59375 C3.54785,-7.59375 3.02197,-7.27588 2.6499,-6.64014 C2.27783,-6.00439 2.0918,-5.32617 2.0918,-4.60547 "/>
</g>

<g fill="#212121" fill-opacity="1" stroke="none" transform="matrix(0.5,0,0,0.5,114.784,123.98)"
font-family=".AppleSystemUIFont" font-size="13" font-weight="400" font-style="normal" 
>
<path vector-effect="none" fill-rule="evenodd" d="M0.553711,0 L0.553711,-0.632813 C0.963867,-0.632813 1.30078,-0.665039 1.56445,-0.729492 C1.82813,-0.793945 1.95996,-0.952148 1.95996,-1.2041 L1.95996,-10.6523 C1.95996,-10.9746 1.91162,-11.2075 1.81494,-11.3511 C1.71826,-11.4946 1.5791,-11.5825 1.39746,-11.6147 C1.21582,-11.647 0.93457,-11.6631 0.553711,-11.6631 L0.553711,-12.2959 L3.22559,-12.4893 L3.22559,-1.2041 C3.22559,-0.952148 3.35742,-0.793945 3.62109,-0.729492 C3.88477,-0.665039 4.21875,-0.632813 4.62305,-0.632813 L4.62305,0 L0.553711,0"/>
</g>

<g fill="#212121" fill-opacity="1" stroke="none" transform="matrix(0.5,0,0,0.5,120.284,123.98)"
font-family=".AppleSystemUIFont" font-size="13" font-weight="400" font-style="normal" 
>
<path vector-effect="none" fill-rule="evenodd" d="M1.66992,0 L1.66992,-0.632813 C3.16992,-0.632813 3.91992,-0.823242 3.91992,-1.2041 L3.91992,-10.6523 C3.29883,-10.3535 2.51367,-10.2041 1.56445,-10.2041 L1.56445,-10.8369 C3.03516,-10.8369 4.14551,-11.2207 4.89551,-11.9883 L5.15039,-11.9883 C5.19141,-11.9883 5.23096,-11.9722 5.26904,-11.9399 C5.30713,-11.9077 5.32617,-11.8711 5.32617,-11.8301 L5.32617,-1.2041 C5.32617,-0.823242 6.07617,-0.632813 7.57617,-0.632813 L7.57617,0 L1.66992,0"/>
</g>

<g fill="#212121" fill-opacity="1" stroke="none" transform="matrix(0.5,0,0,0.5,92.7839,135.108)"
font-family=".AppleSystemUIFont" font-size="13" font-weight="400" font-style="normal" 
>
<path vector-effect="none" fill-rule="evenodd" d="M0.632813,0 L0.632813,-0.632813 C1.86914,-0.632813 2.4873,-0.987305 2.4873,-1.69629 L2.4873,-11.0918 C2.4873,-11.4727 1.86914,-11.6631 0.632813,-11.6631 L0.632813,-12.2959 L4.03418,-12.2959 C4.18066,-12.2959 4.27734,-12.2285 4.32422,-12.0938 L8.24414,-1.90723 L12.1641,-12.0938 C12.2109,-12.2285 12.3076,-12.2959 12.4541,-12.2959 L15.8555,-12.2959 L15.8555,-11.6631 C14.6191,-11.6631 14.001,-11.4727 14.001,-11.0918 L14.001,-1.2041 C14.001,-0.823242 14.6191,-0.632813 15.8555,-0.632813 L15.8555,0 L10.6172,0 L10.6172,-0.632813 C11.8535,-0.632813 12.4717,-0.823242 12.4717,-1.2041 L12.4717,-11.6807 L8.04199,-0.202148 C7.98926,-0.0673828 7.88965,0 7.74316,0 C7.59082,0 7.48828,-0.0673828 7.43555,-0.202148 L3.05859,-11.54 L3.05859,-1.69629 C3.05859,-0.987305 3.67676,-0.632813 4.91309,-0.632813 L4.91309,0 L0.632813,0"/>
</g>

<g fill="#212121" fill-opacity="1" stroke="none" transform="matrix(0.5,0,0,0.5,101.034,135.108)"
font-family=".AppleSystemUIFont" font-size="13" font-weight="400" font-style="normal" 
>
<path vector-effect="none" fill-rule="evenodd" d="M4.5,0.202148 C3.7793,0.202148 3.11133,0.019043 2.49609,-0.347168 C1.88086,-0.713379 1.39453,-1.2041 1.03711,-1.81934 C0.679688,-2.43457 0.500977,-3.10547 0.500977,-3.83203 C0.500977,-4.38281 0.599121,-4.91309 0.79541,-5.42285 C0.991699,-5.93262 1.27295,-6.38818 1.63916,-6.78955 C2.00537,-7.19092 2.43164,-7.50439 2.91797,-7.72998 C3.4043,-7.95557 3.93164,-8.06836 4.5,-8.06836 C5.23828,-8.06836 5.91064,-7.87354 6.51709,-7.48389 C7.12354,-7.09424 7.60254,-6.57275 7.9541,-5.91943 C8.30566,-5.26611 8.48145,-4.57031 8.48145,-3.83203 C8.48145,-3.11133 8.30273,-2.44189 7.94531,-1.82373 C7.58789,-1.20557 7.10303,-0.713379 6.49072,-0.347168 C5.87842,0.019043 5.21484,0.202148 4.5,0.202148 M4.5,-0.325195 C5.46094,-0.325195 6.10254,-0.673828 6.4248,-1.37109 C6.74707,-2.06836 6.9082,-2.95605 6.9082,-4.03418 C6.9082,-4.6377 6.87598,-5.13721 6.81152,-5.53271 C6.74707,-5.92822 6.60645,-6.28711 6.38965,-6.60938 C6.25488,-6.80859 6.0835,-6.98291 5.87549,-7.13232 C5.66748,-7.28174 5.44775,-7.396 5.21631,-7.4751 C4.98486,-7.5542 4.74609,-7.59375 4.5,-7.59375 C4.125,-7.59375 3.76904,-7.50879 3.43213,-7.33887 C3.09521,-7.16895 2.81543,-6.92578 2.59277,-6.60938 C2.37012,-6.26953 2.22803,-5.896 2.1665,-5.48877 C2.10498,-5.08154 2.07422,-4.59668 2.07422,-4.03418 C2.07422,-3.36035 2.13281,-2.75537 2.25,-2.21924 C2.36719,-1.68311 2.60303,-1.2334 2.95752,-0.870117 C3.31201,-0.506836 3.82617,-0.325195 4.5,-0.325195 "/>
</g>

<g fill="#212121" fill-opacity="1" stroke="none" transform="matrix(0.5,0,0,0.5,105.784,135.108)"
font-family=".AppleSystemUIFont" font-size="13" font-weight="400" font-style="normal" 
>
<path vector-effect="none" fill-rule="evenodd" d="M4.39453,0.202148 C3.68555,0.202148 3.03809,0.0102539 2.45215,-0.373535 C1.86621,-0.757324 1.41064,-1.2627 1.08545,-1.88965 C0.760254,-2.5166 0.597656,-3.18164 0.597656,-3.88477 C0.597656,-4.61133 0.774902,-5.28662 1.12939,-5.91064 C1.48389,-6.53467 1.96582,-7.03125 2.5752,-7.40039 C3.18457,-7.76953 3.85547,-7.9541 4.58789,-7.9541 C5.02734,-7.9541 5.44336,-7.86182 5.83594,-7.67725 C6.22852,-7.49268 6.56836,-7.23633 6.85547,-6.9082 L6.85547,-10.6523 C6.85547,-10.9746 6.80713,-11.2075 6.71045,-11.3511 C6.61377,-11.4946 6.47607,-11.5825 6.29736,-11.6147 C6.11865,-11.647 5.83887,-11.6631 5.45801,-11.6631 L5.45801,-12.2959 L8.12109,-12.4893 L8.12109,-1.63477 C8.12109,-1.31836 8.16943,-1.08838 8.26611,-0.944824 C8.36279,-0.80127 8.50049,-0.713379 8.6792,-0.681152 C8.85791,-0.648926 9.1377,-0.632813 9.51855,-0.632813 L9.51855,0 L6.80273,0.202148 L6.80273,-0.931641 C6.49219,-0.574219 6.12305,-0.295898 5.69531,-0.0966797 C5.26758,0.102539 4.83398,0.202148 4.39453,0.202148 M2.55762,-1.56445 C2.7627,-1.17188 3.03662,-0.858398 3.37939,-0.624023 C3.72217,-0.389648 4.0957,-0.272461 4.5,-0.272461 C4.99805,-0.272461 5.45508,-0.416016 5.87109,-0.703125 C6.28711,-0.990234 6.59766,-1.3623 6.80273,-1.81934 L6.80273,-6.13477 C6.66211,-6.39844 6.48486,-6.63428 6.271,-6.84229 C6.05713,-7.05029 5.81689,-7.20996 5.55029,-7.32129 C5.28369,-7.43262 5.00098,-7.48828 4.70215,-7.48828 C4.0752,-7.48828 3.57129,-7.31104 3.19043,-6.95654 C2.80957,-6.60205 2.54297,-6.14941 2.39063,-5.59863 C2.23828,-5.04785 2.16211,-4.4707 2.16211,-3.86719 C2.16211,-3.38672 2.18701,-2.96777 2.23682,-2.61035 C2.28662,-2.25293 2.39355,-1.9043 2.55762,-1.56445 "/>
</g>

<g fill="#212121" fill-opacity="1" stroke="none" transform="matrix(0.5,0,0,0.5,110.784,135.108)"
font-family=".AppleSystemUIFont" font-size="13" font-weight="400" font-style="normal" 
>
<path vector-effect="none" fill-rule="evenodd" d="M4.48242,0.202148 C3.75,0.202148 3.07764,0.0102539 2.46533,-0.373535 C1.85303,-0.757324 1.37256,-1.27002 1.02393,-1.91162 C0.675293,-2.55322 0.500977,-3.23145 0.500977,-3.94629 C0.500977,-4.64941 0.660645,-5.31738 0.97998,-5.9502 C1.29932,-6.58301 1.74463,-7.09424 2.31592,-7.48389 C2.88721,-7.87354 3.52441,-8.06836 4.22754,-8.06836 C4.77832,-8.06836 5.25732,-7.97607 5.66455,-7.7915 C6.07178,-7.60693 6.40723,-7.35059 6.6709,-7.02246 C6.93457,-6.69434 7.13379,-6.30762 7.26855,-5.8623 C7.40332,-5.41699 7.4707,-4.92773 7.4707,-4.39453 C7.4707,-4.23633 7.40918,-4.15723 7.28613,-4.15723 L2.07422,-4.15723 L2.07422,-3.96387 C2.07422,-2.96777 2.2749,-2.1123 2.67627,-1.39746 C3.07764,-0.682617 3.73242,-0.325195 4.64063,-0.325195 C5.00977,-0.325195 5.35107,-0.407227 5.66455,-0.571289 C5.97803,-0.735352 6.25049,-0.963867 6.48193,-1.25684 C6.71338,-1.5498 6.87012,-1.86328 6.95215,-2.19727 C6.96387,-2.23828 6.98584,-2.2749 7.01807,-2.30713 C7.05029,-2.33936 7.08691,-2.35547 7.12793,-2.35547 L7.28613,-2.35547 C7.40918,-2.35547 7.4707,-2.2793 7.4707,-2.12695 C7.30078,-1.44727 6.93457,-0.88916 6.37207,-0.452637 C5.80957,-0.0161133 5.17969,0.202148 4.48242,0.202148 M2.0918,-4.60547 L6.19629,-4.60547 C6.19629,-5.05664 6.1333,-5.51367 6.00732,-5.97656 C5.88135,-6.43945 5.67188,-6.82471 5.37891,-7.13232 C5.08594,-7.43994 4.70215,-7.59375 4.22754,-7.59375 C3.54785,-7.59375 3.02197,-7.27588 2.6499,-6.64014 C2.27783,-6.00439 2.0918,-5.32617 2.0918,-4.60547 "/>
</g>

<g fill="#212121" fill-opacity="1" stroke="none" transform="matrix(0.5,0,0,0.5,114.784,135.108)"
font-family=".AppleSystemUIFont" font-size="13" font-weight="400" font-style="normal" 
>
<path vector-effect="none" fill-rule="evenodd" d="M0.553711,0 L0.553711,-0.632813 C0.963867,-0.632813 1.30078,-0.665039 1.56445,-0.729492 C1.82813,-0.793945 1.95996,-0.952148 1.95996,-1.2041 L1.95996,-10.6523 C1.95996,-10.9746 1.91162,-11.2075 1.81494,-11.3511 C1.71826,-11.4946 1.5791,-11.5825 1.39746,-11.6147 C1.21582,-11.647 0.93457,-11.6631 0.553711,-11.6631 L0.553711,-12.2959 L3.22559,-12.4893 L3.22559,-1.2041 C3.22559,-0.952148 3.35742,-0.793945 3.62109,-0.729492 C3.88477,-0.665039 4.21875,-0.632813 4.62305,-0.632813 L4.62305,0 L0.553711,0"/>
</g>

<g fill="#212121" fill-opacity="1" stroke="none" transform="matrix(0.5,0,0,0.5,120.284,135.108)"
font-family=".AppleSystemUIFont" font-size="13" font-weight="400" font-style="normal" 
>
<path vector-effect="none" fill-rule="evenodd" d="M0.896484,0 L0.896484,-0.483398 C0.896484,-0.512695 0.908203,-0.544922 0.931641,-0.580078 L3.72656,-3.67383 C4.14844,-4.13086 4.49121,-4.51465 4.75488,-4.8252 C5.01855,-5.13574 5.2793,-5.49316 5.53711,-5.89746 C5.79492,-6.30176 5.99854,-6.71338 6.14795,-7.13232 C6.29736,-7.55127 6.37207,-7.99512 6.37207,-8.46387 C6.37207,-8.95605 6.28125,-9.42627 6.09961,-9.87451 C5.91797,-10.3228 5.64697,-10.6816 5.28662,-10.9512 C4.92627,-11.2207 4.49121,-11.3555 3.98145,-11.3555 C3.45996,-11.3555 2.99121,-11.1987 2.5752,-10.8853 C2.15918,-10.5718 1.86621,-10.166 1.69629,-9.66797 C1.74316,-9.67969 1.80762,-9.68555 1.88965,-9.68555 C2.15918,-9.68555 2.38916,-9.59473 2.57959,-9.41309 C2.77002,-9.23145 2.86523,-8.99707 2.86523,-8.70996 C2.86523,-8.43457 2.77002,-8.20166 2.57959,-8.01123 C2.38916,-7.8208 2.15918,-7.72559 1.88965,-7.72559 C1.6084,-7.72559 1.37256,-7.82373 1.18213,-8.02002 C0.991699,-8.21631 0.896484,-8.44629 0.896484,-8.70996 C0.896484,-9.16113 0.981445,-9.58447 1.15137,-9.97998 C1.32129,-10.3755 1.56592,-10.7271 1.88525,-11.0347 C2.20459,-11.3423 2.56494,-11.5781 2.96631,-11.7422 C3.36768,-11.9063 3.79395,-11.9883 4.24512,-11.9883 C4.93066,-11.9883 5.56934,-11.8433 6.16113,-11.5532 C6.75293,-11.2632 7.22168,-10.853 7.56738,-10.3228 C7.91309,-9.79248 8.08594,-9.17285 8.08594,-8.46387 C8.08594,-7.94238 7.97168,-7.44727 7.74316,-6.97852 C7.51465,-6.50977 7.22168,-6.0835 6.86426,-5.69971 C6.50684,-5.31592 6.0498,-4.88086 5.49316,-4.39453 C4.93652,-3.9082 4.57031,-3.58301 4.39453,-3.41895 L2.35547,-1.45898 L4.08691,-1.45898 C4.93652,-1.45898 5.64697,-1.46631 6.21826,-1.48096 C6.78955,-1.49561 7.09277,-1.51758 7.12793,-1.54688 C7.26855,-1.69922 7.41211,-2.25293 7.55859,-3.20801 L8.08594,-3.20801 L7.57617,0 L0.896484,0"/>
</g>
</g>
</svg>
