<?xml version="1.0" encoding="utf-8" standalone="no"?>
<!DOCTYPE svg PUBLIC "-//W3C//DTD SVG 1.1//EN"
  "http://www.w3.org/Graphics/SVG/1.1/DTD/svg11.dtd">
<svg xmlns:xlink="http://www.w3.org/1999/xlink" width="296.39952pt" height="224.39952pt" viewBox="0 0 296.39952 224.39952" xmlns="http://www.w3.org/2000/svg" version="1.1">
 <metadata>
  <rdf:RDF xmlns:dc="http://purl.org/dc/elements/1.1/" xmlns:cc="http://creativecommons.org/ns#" xmlns:rdf="http://www.w3.org/1999/02/22-rdf-syntax-ns#">
   <cc:Work>
    <dc:type rdf:resource="http://purl.org/dc/dcmitype/StillImage"/>
    <dc:date>2025-07-23T16:21:05.798306</dc:date>
    <dc:format>image/svg+xml</dc:format>
    <dc:creator>
     <cc:Agent>
      <dc:title>Matplotlib v3.10.0, https://matplotlib.org/</dc:title>
     </cc:Agent>
    </dc:creator>
   </cc:Work>
  </rdf:RDF>
 </metadata>
 <defs>
  <style type="text/css">*{stroke-linejoin: round; stroke-linecap: butt}</style>
 </defs>
 <g id="figure_1">
  <g id="patch_1">
   <path d="M 0 224.39952 
L 296.39952 224.39952 
L 296.39952 0 
L 0 0 
z
" style="fill: #ffffff"/>
  </g>
  <g id="axes_1">
   <g id="patch_2">
    <path d="M 45.805598 190.217068 
L 289.19952 190.217068 
L 289.19952 7.2 
L 45.805598 7.2 
z
" style="fill: #ffffff"/>
   </g>
   <g id="line2d_1">
    <path d="M 56.868958 98.003727 
L 61.31654 90.703164 
L 65.764122 83.887262 
L 69.099809 79.143806 
L 72.435495 74.745242 
L 75.771182 70.709592 
L 79.106868 67.048013 
L 82.442555 63.765583 
L 85.778241 60.862252 
L 89.113927 58.3339 
L 92.449614 56.173448 
L 95.7853 54.371987 
L 99.120987 52.919874 
L 102.456673 51.807736 
L 105.79236 51.027356 
L 109.128046 50.5724 
L 112.463733 50.438951 
L 115.799419 50.625826 
L 119.135106 51.134677 
L 122.470792 51.969851 
L 125.806478 53.138041 
L 129.142165 54.647708 
L 132.477851 56.508338 
L 135.813538 58.729524 
L 139.149224 61.319947 
L 142.484911 64.286271 
L 145.820597 67.632015 
L 149.156284 71.356445 
L 152.49197 75.453531 
L 155.827657 79.911025 
L 159.163343 84.709692 
L 163.610925 91.591191 
L 168.058507 98.945298 
L 173.617984 108.632043 
L 190.296417 138.180737 
L 194.743999 145.350652 
L 198.079685 150.30948 
L 201.415371 154.826361 
L 203.639162 157.557447 
L 205.862953 160.041952 
L 208.086744 162.262304 
L 210.310535 164.202633 
L 212.534326 165.848944 
L 214.758117 167.189269 
L 216.981908 168.213804 
L 219.205699 168.915019 
L 221.42949 169.287743 
L 223.653281 169.329221 
L 225.877072 169.039145 
L 228.100863 168.419662 
L 230.324654 167.475341 
L 232.548445 166.213132 
L 234.772236 164.642278 
L 236.996027 162.774218 
L 239.219818 160.622454 
L 241.443609 158.202404 
L 243.6674 155.53123 
L 247.003086 151.094935 
L 250.338773 146.204699 
L 253.674459 140.934369 
L 258.122041 133.44988 
L 263.681519 123.622454 
L 275.912369 101.803177 
L 278.13616 98.003727 
L 278.13616 98.003727 
" clip-path="url(#p71e4d4a989)" style="fill: none; stroke-dasharray: 5.55,2.4; stroke-dashoffset: 0; stroke: #0000ff; stroke-width: 1.5"/>
   </g>
   <g id="matplotlib.axis_1">
    <g id="xtick_1">
     <g id="line2d_2">
      <defs>
       <path id="mfb9bb95967" d="M 0 0 
L 0 -3.5 
" style="stroke: #000000; stroke-width: 0.8"/>
      </defs>
      <g>
       <use xlink:href="#mfb9bb95967" x="56.868958" y="190.217068" style="stroke: #000000; stroke-width: 0.8"/>
      </g>
     </g>
     <g id="line2d_3">
      <defs>
       <path id="m000c5d1f46" d="M 0 0 
L 0 3.5 
" style="stroke: #000000; stroke-width: 0.8"/>
      </defs>
      <g>
       <use xlink:href="#m000c5d1f46" x="56.868958" y="7.2" style="stroke: #000000; stroke-width: 0.8"/>
      </g>
     </g>
     <g id="text_1">
      <!-- $\mathdefault{0}$ -->
      <g transform="translate(54.378291 200.635566) scale(0.1 -0.1)">
       <defs>
        <path id="CMR17-30" d="M 2688 2038 
C 2688 2430 2682 3099 2413 3613 
C 2176 4063 1798 4224 1466 4224 
C 1158 4224 768 4082 525 3620 
C 269 3137 243 2539 243 2038 
C 243 1671 250 1112 448 623 
C 723 -39 1216 -128 1466 -128 
C 1760 -128 2208 -7 2470 604 
C 2662 1048 2688 1568 2688 2038 
z
M 1466 -26 
C 1056 -26 813 328 723 816 
C 653 1196 653 1749 653 2109 
C 653 2604 653 3015 736 3407 
C 858 3954 1216 4121 1466 4121 
C 1728 4121 2067 3947 2189 3420 
C 2272 3054 2278 2623 2278 2109 
C 2278 1691 2278 1176 2202 797 
C 2067 96 1690 -26 1466 -26 
z
" transform="scale(0.015625)"/>
       </defs>
       <use xlink:href="#CMR17-30" transform="scale(0.996264)"/>
      </g>
     </g>
    </g>
    <g id="xtick_2">
     <g id="line2d_4">
      <g>
       <use xlink:href="#mfb9bb95967" x="92.084727" y="190.217068" style="stroke: #000000; stroke-width: 0.8"/>
      </g>
     </g>
     <g id="line2d_5">
      <g>
       <use xlink:href="#m000c5d1f46" x="92.084727" y="7.2" style="stroke: #000000; stroke-width: 0.8"/>
      </g>
     </g>
     <g id="text_2">
      <!-- $\mathdefault{1}$ -->
      <g transform="translate(89.59406 200.635566) scale(0.1 -0.1)">
       <defs>
        <path id="CMR17-31" d="M 1702 4083 
C 1702 4217 1696 4224 1606 4224 
C 1357 3927 979 3833 621 3820 
C 602 3820 570 3820 563 3808 
C 557 3795 557 3782 557 3648 
C 755 3648 1088 3686 1344 3839 
L 1344 467 
C 1344 243 1331 166 781 166 
L 589 166 
L 589 0 
C 896 6 1216 12 1523 12 
C 1830 12 2150 6 2458 0 
L 2458 166 
L 2266 166 
C 1715 166 1702 236 1702 467 
L 1702 4083 
z
" transform="scale(0.015625)"/>
       </defs>
       <use xlink:href="#CMR17-31" transform="scale(0.996264)"/>
      </g>
     </g>
    </g>
    <g id="xtick_3">
     <g id="line2d_6">
      <g>
       <use xlink:href="#mfb9bb95967" x="127.300496" y="190.217068" style="stroke: #000000; stroke-width: 0.8"/>
      </g>
     </g>
     <g id="line2d_7">
      <g>
       <use xlink:href="#m000c5d1f46" x="127.300496" y="7.2" style="stroke: #000000; stroke-width: 0.8"/>
      </g>
     </g>
     <g id="text_3">
      <!-- $\mathdefault{2}$ -->
      <g transform="translate(124.809828 200.635566) scale(0.1 -0.1)">
       <defs>
        <path id="CMR17-32" d="M 2669 990 
L 2554 990 
C 2490 537 2438 460 2413 422 
C 2381 371 1920 371 1830 371 
L 602 371 
C 832 620 1280 1073 1824 1596 
C 2214 1966 2669 2400 2669 3033 
C 2669 3788 2067 4224 1395 4224 
C 691 4224 262 3603 262 3027 
C 262 2777 448 2745 525 2745 
C 589 2745 781 2783 781 3007 
C 781 3206 614 3264 525 3264 
C 486 3264 448 3257 422 3244 
C 544 3788 915 4057 1306 4057 
C 1862 4057 2227 3616 2227 3033 
C 2227 2477 1901 1998 1536 1583 
L 262 147 
L 262 0 
L 2515 0 
L 2669 990 
z
" transform="scale(0.015625)"/>
       </defs>
       <use xlink:href="#CMR17-32" transform="scale(0.996264)"/>
      </g>
     </g>
    </g>
    <g id="xtick_4">
     <g id="line2d_8">
      <g>
       <use xlink:href="#mfb9bb95967" x="162.516265" y="190.217068" style="stroke: #000000; stroke-width: 0.8"/>
      </g>
     </g>
     <g id="line2d_9">
      <g>
       <use xlink:href="#m000c5d1f46" x="162.516265" y="7.2" style="stroke: #000000; stroke-width: 0.8"/>
      </g>
     </g>
     <g id="text_4">
      <!-- $\mathdefault{3}$ -->
      <g transform="translate(160.025597 200.635566) scale(0.1 -0.1)">
       <defs>
        <path id="CMR17-33" d="M 1414 2176 
C 1984 2176 2234 1673 2234 1094 
C 2234 322 1824 25 1453 25 
C 1114 25 563 193 390 691 
C 422 678 454 678 486 678 
C 640 678 755 780 755 947 
C 755 1132 614 1216 486 1216 
C 378 1216 211 1164 211 927 
C 211 335 787 -128 1466 -128 
C 2176 -128 2720 432 2720 1087 
C 2720 1718 2208 2176 1600 2246 
C 2086 2347 2554 2776 2554 3353 
C 2554 3856 2048 4224 1472 4224 
C 890 4224 378 3862 378 3347 
C 378 3123 544 3084 627 3084 
C 762 3084 877 3167 877 3334 
C 877 3500 762 3584 627 3584 
C 602 3584 570 3584 544 3571 
C 730 3999 1235 4076 1459 4076 
C 1683 4076 2106 3966 2106 3347 
C 2106 3167 2080 2851 1862 2574 
C 1670 2329 1453 2316 1242 2297 
C 1210 2297 1062 2284 1037 2284 
C 992 2278 966 2272 966 2227 
C 966 2182 973 2176 1101 2176 
L 1414 2176 
z
" transform="scale(0.015625)"/>
       </defs>
       <use xlink:href="#CMR17-33" transform="scale(0.996264)"/>
      </g>
     </g>
    </g>
    <g id="xtick_5">
     <g id="line2d_10">
      <g>
       <use xlink:href="#mfb9bb95967" x="197.732034" y="190.217068" style="stroke: #000000; stroke-width: 0.8"/>
      </g>
     </g>
     <g id="line2d_11">
      <g>
       <use xlink:href="#m000c5d1f46" x="197.732034" y="7.2" style="stroke: #000000; stroke-width: 0.8"/>
      </g>
     </g>
     <g id="text_5">
      <!-- $\mathdefault{4}$ -->
      <g transform="translate(195.241366 200.635566) scale(0.1 -0.1)">
       <defs>
        <path id="CMR17-34" d="M 2150 4147 
C 2150 4281 2144 4288 2029 4288 
L 128 1254 
L 128 1088 
L 1779 1088 
L 1779 460 
C 1779 230 1766 166 1318 166 
L 1197 166 
L 1197 0 
C 1402 12 1747 12 1965 12 
C 2182 12 2528 12 2733 0 
L 2733 166 
L 2611 166 
C 2163 166 2150 230 2150 460 
L 2150 1088 
L 2803 1088 
L 2803 1254 
L 2150 1254 
L 2150 4147 
z
M 1798 3723 
L 1798 1254 
L 256 1254 
L 1798 3723 
z
" transform="scale(0.015625)"/>
       </defs>
       <use xlink:href="#CMR17-34" transform="scale(0.996264)"/>
      </g>
     </g>
    </g>
    <g id="xtick_6">
     <g id="line2d_12">
      <g>
       <use xlink:href="#mfb9bb95967" x="232.947803" y="190.217068" style="stroke: #000000; stroke-width: 0.8"/>
      </g>
     </g>
     <g id="line2d_13">
      <g>
       <use xlink:href="#m000c5d1f46" x="232.947803" y="7.2" style="stroke: #000000; stroke-width: 0.8"/>
      </g>
     </g>
     <g id="text_6">
      <!-- $\mathdefault{5}$ -->
      <g transform="translate(230.457135 200.635566) scale(0.1 -0.1)">
       <defs>
        <path id="CMR17-35" d="M 730 3750 
C 794 3724 1056 3641 1325 3641 
C 1920 3641 2246 3961 2432 4140 
C 2432 4191 2432 4224 2394 4224 
C 2387 4224 2374 4224 2323 4198 
C 2099 4102 1837 4032 1517 4032 
C 1325 4032 1037 4055 723 4191 
C 653 4224 640 4224 634 4224 
C 602 4224 595 4217 595 4090 
L 595 2231 
C 595 2113 595 2080 659 2080 
C 691 2080 704 2093 736 2139 
C 941 2435 1222 2560 1542 2560 
C 1766 2560 2246 2415 2246 1293 
C 2246 1087 2246 716 2054 422 
C 1894 159 1645 25 1370 25 
C 947 25 518 319 403 812 
C 429 806 480 793 506 793 
C 589 793 749 838 749 1036 
C 749 1209 627 1280 506 1280 
C 358 1280 262 1190 262 1011 
C 262 454 704 -128 1382 -128 
C 2042 -128 2669 441 2669 1267 
C 2669 2054 2170 2662 1549 2662 
C 1222 2662 947 2540 730 2304 
L 730 3750 
z
" transform="scale(0.015625)"/>
       </defs>
       <use xlink:href="#CMR17-35" transform="scale(0.996264)"/>
      </g>
     </g>
    </g>
    <g id="xtick_7">
     <g id="line2d_14">
      <g>
       <use xlink:href="#mfb9bb95967" x="268.163572" y="190.217068" style="stroke: #000000; stroke-width: 0.8"/>
      </g>
     </g>
     <g id="line2d_15">
      <g>
       <use xlink:href="#m000c5d1f46" x="268.163572" y="7.2" style="stroke: #000000; stroke-width: 0.8"/>
      </g>
     </g>
     <g id="text_7">
      <!-- $\mathdefault{6}$ -->
      <g transform="translate(265.672904 200.635566) scale(0.1 -0.1)">
       <defs>
        <path id="CMR17-36" d="M 678 2198 
C 678 3712 1395 4076 1811 4076 
C 1946 4076 2272 4049 2400 3782 
C 2298 3782 2106 3782 2106 3558 
C 2106 3385 2246 3328 2336 3328 
C 2394 3328 2566 3353 2566 3571 
C 2566 3987 2246 4224 1805 4224 
C 1043 4224 243 3411 243 2011 
C 243 257 966 -128 1478 -128 
C 2099 -128 2688 431 2688 1295 
C 2688 2101 2170 2688 1517 2688 
C 1126 2688 838 2430 678 1979 
L 678 2198 
z
M 1478 25 
C 691 25 691 1212 691 1450 
C 691 1914 909 2585 1504 2585 
C 1613 2585 1926 2585 2138 2140 
C 2253 1889 2253 1624 2253 1302 
C 2253 954 2253 696 2118 438 
C 1978 173 1773 25 1478 25 
z
" transform="scale(0.015625)"/>
       </defs>
       <use xlink:href="#CMR17-36" transform="scale(0.996264)"/>
      </g>
     </g>
    </g>
    <g id="xtick_8">
     <g id="line2d_16">
      <defs>
       <path id="m57c9ef386d" d="M 0 0 
L 0 -2 
" style="stroke: #000000; stroke-width: 0.6"/>
      </defs>
      <g>
       <use xlink:href="#m57c9ef386d" x="49.825805" y="190.217068" style="stroke: #000000; stroke-width: 0.6"/>
      </g>
     </g>
     <g id="line2d_17">
      <defs>
       <path id="mf3cd4a7fbe" d="M 0 0 
L 0 2 
" style="stroke: #000000; stroke-width: 0.6"/>
      </defs>
      <g>
       <use xlink:href="#mf3cd4a7fbe" x="49.825805" y="7.2" style="stroke: #000000; stroke-width: 0.6"/>
      </g>
     </g>
    </g>
    <g id="xtick_9">
     <g id="line2d_18">
      <g>
       <use xlink:href="#m57c9ef386d" x="63.912112" y="190.217068" style="stroke: #000000; stroke-width: 0.6"/>
      </g>
     </g>
     <g id="line2d_19">
      <g>
       <use xlink:href="#mf3cd4a7fbe" x="63.912112" y="7.2" style="stroke: #000000; stroke-width: 0.6"/>
      </g>
     </g>
    </g>
    <g id="xtick_10">
     <g id="line2d_20">
      <g>
       <use xlink:href="#m57c9ef386d" x="70.955266" y="190.217068" style="stroke: #000000; stroke-width: 0.6"/>
      </g>
     </g>
     <g id="line2d_21">
      <g>
       <use xlink:href="#mf3cd4a7fbe" x="70.955266" y="7.2" style="stroke: #000000; stroke-width: 0.6"/>
      </g>
     </g>
    </g>
    <g id="xtick_11">
     <g id="line2d_22">
      <g>
       <use xlink:href="#m57c9ef386d" x="77.99842" y="190.217068" style="stroke: #000000; stroke-width: 0.6"/>
      </g>
     </g>
     <g id="line2d_23">
      <g>
       <use xlink:href="#mf3cd4a7fbe" x="77.99842" y="7.2" style="stroke: #000000; stroke-width: 0.6"/>
      </g>
     </g>
    </g>
    <g id="xtick_12">
     <g id="line2d_24">
      <g>
       <use xlink:href="#m57c9ef386d" x="85.041573" y="190.217068" style="stroke: #000000; stroke-width: 0.6"/>
      </g>
     </g>
     <g id="line2d_25">
      <g>
       <use xlink:href="#mf3cd4a7fbe" x="85.041573" y="7.2" style="stroke: #000000; stroke-width: 0.6"/>
      </g>
     </g>
    </g>
    <g id="xtick_13">
     <g id="line2d_26">
      <g>
       <use xlink:href="#m57c9ef386d" x="99.127881" y="190.217068" style="stroke: #000000; stroke-width: 0.6"/>
      </g>
     </g>
     <g id="line2d_27">
      <g>
       <use xlink:href="#mf3cd4a7fbe" x="99.127881" y="7.2" style="stroke: #000000; stroke-width: 0.6"/>
      </g>
     </g>
    </g>
    <g id="xtick_14">
     <g id="line2d_28">
      <g>
       <use xlink:href="#m57c9ef386d" x="106.171035" y="190.217068" style="stroke: #000000; stroke-width: 0.6"/>
      </g>
     </g>
     <g id="line2d_29">
      <g>
       <use xlink:href="#mf3cd4a7fbe" x="106.171035" y="7.2" style="stroke: #000000; stroke-width: 0.6"/>
      </g>
     </g>
    </g>
    <g id="xtick_15">
     <g id="line2d_30">
      <g>
       <use xlink:href="#m57c9ef386d" x="113.214189" y="190.217068" style="stroke: #000000; stroke-width: 0.6"/>
      </g>
     </g>
     <g id="line2d_31">
      <g>
       <use xlink:href="#mf3cd4a7fbe" x="113.214189" y="7.2" style="stroke: #000000; stroke-width: 0.6"/>
      </g>
     </g>
    </g>
    <g id="xtick_16">
     <g id="line2d_32">
      <g>
       <use xlink:href="#m57c9ef386d" x="120.257342" y="190.217068" style="stroke: #000000; stroke-width: 0.6"/>
      </g>
     </g>
     <g id="line2d_33">
      <g>
       <use xlink:href="#mf3cd4a7fbe" x="120.257342" y="7.2" style="stroke: #000000; stroke-width: 0.6"/>
      </g>
     </g>
    </g>
    <g id="xtick_17">
     <g id="line2d_34">
      <g>
       <use xlink:href="#m57c9ef386d" x="134.34365" y="190.217068" style="stroke: #000000; stroke-width: 0.6"/>
      </g>
     </g>
     <g id="line2d_35">
      <g>
       <use xlink:href="#mf3cd4a7fbe" x="134.34365" y="7.2" style="stroke: #000000; stroke-width: 0.6"/>
      </g>
     </g>
    </g>
    <g id="xtick_18">
     <g id="line2d_36">
      <g>
       <use xlink:href="#m57c9ef386d" x="141.386804" y="190.217068" style="stroke: #000000; stroke-width: 0.6"/>
      </g>
     </g>
     <g id="line2d_37">
      <g>
       <use xlink:href="#mf3cd4a7fbe" x="141.386804" y="7.2" style="stroke: #000000; stroke-width: 0.6"/>
      </g>
     </g>
    </g>
    <g id="xtick_19">
     <g id="line2d_38">
      <g>
       <use xlink:href="#m57c9ef386d" x="148.429957" y="190.217068" style="stroke: #000000; stroke-width: 0.6"/>
      </g>
     </g>
     <g id="line2d_39">
      <g>
       <use xlink:href="#mf3cd4a7fbe" x="148.429957" y="7.2" style="stroke: #000000; stroke-width: 0.6"/>
      </g>
     </g>
    </g>
    <g id="xtick_20">
     <g id="line2d_40">
      <g>
       <use xlink:href="#m57c9ef386d" x="155.473111" y="190.217068" style="stroke: #000000; stroke-width: 0.6"/>
      </g>
     </g>
     <g id="line2d_41">
      <g>
       <use xlink:href="#mf3cd4a7fbe" x="155.473111" y="7.2" style="stroke: #000000; stroke-width: 0.6"/>
      </g>
     </g>
    </g>
    <g id="xtick_21">
     <g id="line2d_42">
      <g>
       <use xlink:href="#m57c9ef386d" x="169.559419" y="190.217068" style="stroke: #000000; stroke-width: 0.6"/>
      </g>
     </g>
     <g id="line2d_43">
      <g>
       <use xlink:href="#mf3cd4a7fbe" x="169.559419" y="7.2" style="stroke: #000000; stroke-width: 0.6"/>
      </g>
     </g>
    </g>
    <g id="xtick_22">
     <g id="line2d_44">
      <g>
       <use xlink:href="#m57c9ef386d" x="176.602573" y="190.217068" style="stroke: #000000; stroke-width: 0.6"/>
      </g>
     </g>
     <g id="line2d_45">
      <g>
       <use xlink:href="#mf3cd4a7fbe" x="176.602573" y="7.2" style="stroke: #000000; stroke-width: 0.6"/>
      </g>
     </g>
    </g>
    <g id="xtick_23">
     <g id="line2d_46">
      <g>
       <use xlink:href="#m57c9ef386d" x="183.645726" y="190.217068" style="stroke: #000000; stroke-width: 0.6"/>
      </g>
     </g>
     <g id="line2d_47">
      <g>
       <use xlink:href="#mf3cd4a7fbe" x="183.645726" y="7.2" style="stroke: #000000; stroke-width: 0.6"/>
      </g>
     </g>
    </g>
    <g id="xtick_24">
     <g id="line2d_48">
      <g>
       <use xlink:href="#m57c9ef386d" x="190.68888" y="190.217068" style="stroke: #000000; stroke-width: 0.6"/>
      </g>
     </g>
     <g id="line2d_49">
      <g>
       <use xlink:href="#mf3cd4a7fbe" x="190.68888" y="7.2" style="stroke: #000000; stroke-width: 0.6"/>
      </g>
     </g>
    </g>
    <g id="xtick_25">
     <g id="line2d_50">
      <g>
       <use xlink:href="#m57c9ef386d" x="204.775188" y="190.217068" style="stroke: #000000; stroke-width: 0.6"/>
      </g>
     </g>
     <g id="line2d_51">
      <g>
       <use xlink:href="#mf3cd4a7fbe" x="204.775188" y="7.2" style="stroke: #000000; stroke-width: 0.6"/>
      </g>
     </g>
    </g>
    <g id="xtick_26">
     <g id="line2d_52">
      <g>
       <use xlink:href="#m57c9ef386d" x="211.818341" y="190.217068" style="stroke: #000000; stroke-width: 0.6"/>
      </g>
     </g>
     <g id="line2d_53">
      <g>
       <use xlink:href="#mf3cd4a7fbe" x="211.818341" y="7.2" style="stroke: #000000; stroke-width: 0.6"/>
      </g>
     </g>
    </g>
    <g id="xtick_27">
     <g id="line2d_54">
      <g>
       <use xlink:href="#m57c9ef386d" x="218.861495" y="190.217068" style="stroke: #000000; stroke-width: 0.6"/>
      </g>
     </g>
     <g id="line2d_55">
      <g>
       <use xlink:href="#mf3cd4a7fbe" x="218.861495" y="7.2" style="stroke: #000000; stroke-width: 0.6"/>
      </g>
     </g>
    </g>
    <g id="xtick_28">
     <g id="line2d_56">
      <g>
       <use xlink:href="#m57c9ef386d" x="225.904649" y="190.217068" style="stroke: #000000; stroke-width: 0.6"/>
      </g>
     </g>
     <g id="line2d_57">
      <g>
       <use xlink:href="#mf3cd4a7fbe" x="225.904649" y="7.2" style="stroke: #000000; stroke-width: 0.6"/>
      </g>
     </g>
    </g>
    <g id="xtick_29">
     <g id="line2d_58">
      <g>
       <use xlink:href="#m57c9ef386d" x="239.990956" y="190.217068" style="stroke: #000000; stroke-width: 0.6"/>
      </g>
     </g>
     <g id="line2d_59">
      <g>
       <use xlink:href="#mf3cd4a7fbe" x="239.990956" y="7.2" style="stroke: #000000; stroke-width: 0.6"/>
      </g>
     </g>
    </g>
    <g id="xtick_30">
     <g id="line2d_60">
      <g>
       <use xlink:href="#m57c9ef386d" x="247.03411" y="190.217068" style="stroke: #000000; stroke-width: 0.6"/>
      </g>
     </g>
     <g id="line2d_61">
      <g>
       <use xlink:href="#mf3cd4a7fbe" x="247.03411" y="7.2" style="stroke: #000000; stroke-width: 0.6"/>
      </g>
     </g>
    </g>
    <g id="xtick_31">
     <g id="line2d_62">
      <g>
       <use xlink:href="#m57c9ef386d" x="254.077264" y="190.217068" style="stroke: #000000; stroke-width: 0.6"/>
      </g>
     </g>
     <g id="line2d_63">
      <g>
       <use xlink:href="#mf3cd4a7fbe" x="254.077264" y="7.2" style="stroke: #000000; stroke-width: 0.6"/>
      </g>
     </g>
    </g>
    <g id="xtick_32">
     <g id="line2d_64">
      <g>
       <use xlink:href="#m57c9ef386d" x="261.120418" y="190.217068" style="stroke: #000000; stroke-width: 0.6"/>
      </g>
     </g>
     <g id="line2d_65">
      <g>
       <use xlink:href="#mf3cd4a7fbe" x="261.120418" y="7.2" style="stroke: #000000; stroke-width: 0.6"/>
      </g>
     </g>
    </g>
    <g id="xtick_33">
     <g id="line2d_66">
      <g>
       <use xlink:href="#m57c9ef386d" x="275.206725" y="190.217068" style="stroke: #000000; stroke-width: 0.6"/>
      </g>
     </g>
     <g id="line2d_67">
      <g>
       <use xlink:href="#mf3cd4a7fbe" x="275.206725" y="7.2" style="stroke: #000000; stroke-width: 0.6"/>
      </g>
     </g>
    </g>
    <g id="xtick_34">
     <g id="line2d_68">
      <g>
       <use xlink:href="#m57c9ef386d" x="282.249879" y="190.217068" style="stroke: #000000; stroke-width: 0.6"/>
      </g>
     </g>
     <g id="line2d_69">
      <g>
       <use xlink:href="#mf3cd4a7fbe" x="282.249879" y="7.2" style="stroke: #000000; stroke-width: 0.6"/>
      </g>
     </g>
    </g>
    <g id="text_8">
     <!-- Time -->
     <g transform="translate(154.170748 214.874924) scale(0.12 -0.12)">
      <defs>
       <path id="CMR17-54" d="M 3981 4332 
L 288 4332 
L 179 2924 
L 294 2924 
C 378 3981 467 4166 1453 4166 
C 1568 4166 1754 4166 1805 4159 
C 1926 4140 1926 4064 1926 3917 
L 1926 465 
C 1926 236 1907 166 1376 166 
L 1197 166 
L 1197 0 
C 1504 6 1824 12 2138 12 
C 2451 12 2771 6 3078 0 
L 3078 166 
L 2899 166 
C 2368 166 2349 236 2349 465 
L 2349 3917 
C 2349 4057 2349 4134 2464 4159 
C 2515 4166 2701 4166 2816 4166 
C 3795 4166 3891 3981 3974 2924 
L 4090 2924 
L 3981 4332 
z
" transform="scale(0.015625)"/>
       <path id="CMR17-69" d="M 992 3961 
C 992 4102 877 4224 730 4224 
C 589 4224 467 4108 467 3961 
C 467 3820 582 3699 730 3699 
C 870 3699 992 3814 992 3961 
z
M 243 2745 
L 243 2579 
C 602 2579 653 2540 653 2231 
L 653 443 
C 653 198 627 166 218 166 
L 218 0 
C 371 12 646 12 806 12 
C 960 12 1222 12 1370 0 
L 1370 166 
C 992 166 979 205 979 436 
L 979 2816 
L 243 2745 
z
" transform="scale(0.015625)"/>
       <path id="CMR17-6d" d="M 4326 1954 
C 4326 2276 4269 2816 3507 2816 
C 3072 2816 2771 2520 2656 2173 
L 2650 2173 
C 2573 2700 2195 2816 1837 2816 
C 1331 2816 1069 2424 973 2166 
L 966 2166 
L 966 2816 
L 211 2745 
L 211 2578 
C 589 2578 646 2540 646 2231 
L 646 443 
C 646 198 621 166 211 166 
L 211 0 
C 365 12 646 12 813 12 
C 979 12 1267 12 1421 0 
L 1421 166 
C 1011 166 986 192 986 443 
L 986 1678 
C 986 2269 1344 2713 1792 2713 
C 2266 2713 2317 2289 2317 1980 
L 2317 443 
C 2317 198 2291 166 1882 166 
L 1882 0 
C 2035 12 2317 12 2483 12 
C 2650 12 2938 12 3091 0 
L 3091 166 
C 2682 166 2656 192 2656 443 
L 2656 1678 
C 2656 2269 3014 2713 3462 2713 
C 3936 2713 3987 2289 3987 1980 
L 3987 443 
C 3987 198 3962 166 3552 166 
L 3552 0 
C 3706 12 3987 12 4154 12 
C 4320 12 4608 12 4762 0 
L 4762 166 
C 4352 166 4326 192 4326 443 
L 4326 1954 
z
" transform="scale(0.015625)"/>
       <path id="CMR17-65" d="M 2438 1503 
C 2464 1529 2464 1542 2464 1606 
C 2464 2251 2118 2816 1389 2816 
C 710 2816 173 2175 173 1394 
C 173 554 781 -64 1459 -64 
C 2176 -64 2458 619 2458 755 
C 2458 800 2419 800 2406 800 
C 2362 800 2355 787 2330 709 
C 2189 270 1837 51 1504 51 
C 1229 51 954 206 781 490 
C 582 819 582 1200 582 1503 
L 2438 1503 
z
M 589 1600 
C 634 2511 1126 2713 1382 2713 
C 1818 2713 2112 2308 2118 1600 
L 589 1600 
z
" transform="scale(0.015625)"/>
      </defs>
      <use xlink:href="#CMR17-54" transform="scale(0.996264)"/>
      <use xlink:href="#CMR17-69" transform="translate(66.509881 0) scale(0.996264)"/>
      <use xlink:href="#CMR17-6d" transform="translate(91.380939 0) scale(0.996264)"/>
      <use xlink:href="#CMR17-65" transform="translate(168.300529 0) scale(0.996264)"/>
     </g>
    </g>
   </g>
   <g id="matplotlib.axis_2">
    <g id="ytick_1">
     <g id="line2d_70">
      <defs>
       <path id="m0b6877b8c0" d="M 0 0 
L 3.5 0 
" style="stroke: #000000; stroke-width: 0.8"/>
      </defs>
      <g>
       <use xlink:href="#m0b6877b8c0" x="45.805598" y="163.406822" style="stroke: #000000; stroke-width: 0.8"/>
      </g>
     </g>
     <g id="line2d_71">
      <defs>
       <path id="m8088fdbd9a" d="M 0 0 
L -3.5 0 
" style="stroke: #000000; stroke-width: 0.8"/>
      </defs>
      <g>
       <use xlink:href="#m8088fdbd9a" x="289.19952" y="163.406822" style="stroke: #000000; stroke-width: 0.8"/>
      </g>
     </g>
     <g id="text_9">
      <!-- $\mathdefault{−1.0}$ -->
      <g transform="translate(21.826776 166.866071) scale(0.1 -0.1)">
       <defs>
        <path id="CMSY10-0" d="M 4218 1472 
C 4326 1472 4442 1472 4442 1600 
C 4442 1728 4326 1728 4218 1728 
L 755 1728 
C 646 1728 531 1728 531 1600 
C 531 1472 646 1472 755 1472 
L 4218 1472 
z
" transform="scale(0.015625)"/>
        <path id="CMMI12-3a" d="M 1178 307 
C 1178 492 1024 620 870 620 
C 685 620 557 467 557 313 
C 557 128 710 0 864 0 
C 1050 0 1178 153 1178 307 
z
" transform="scale(0.015625)"/>
       </defs>
       <use xlink:href="#CMSY10-0" transform="scale(0.996264)"/>
       <use xlink:href="#CMR17-31" transform="translate(77.487468 0) scale(0.996264)"/>
       <use xlink:href="#CMMI12-3a" transform="translate(123.177945 0) scale(0.996264)"/>
       <use xlink:href="#CMR17-30" transform="translate(150.275122 0) scale(0.996264)"/>
      </g>
     </g>
    </g>
    <g id="ytick_2">
     <g id="line2d_72">
      <g>
       <use xlink:href="#m0b6877b8c0" x="45.805598" y="133.678142" style="stroke: #000000; stroke-width: 0.8"/>
      </g>
     </g>
     <g id="line2d_73">
      <g>
       <use xlink:href="#m8088fdbd9a" x="289.19952" y="133.678142" style="stroke: #000000; stroke-width: 0.8"/>
      </g>
     </g>
     <g id="text_10">
      <!-- $\mathdefault{−0.5}$ -->
      <g transform="translate(21.826776 137.137391) scale(0.1 -0.1)">
       <use xlink:href="#CMSY10-0" transform="scale(0.996264)"/>
       <use xlink:href="#CMR17-30" transform="translate(77.487468 0) scale(0.996264)"/>
       <use xlink:href="#CMMI12-3a" transform="translate(123.177945 0) scale(0.996264)"/>
       <use xlink:href="#CMR17-35" transform="translate(150.275122 0) scale(0.996264)"/>
      </g>
     </g>
    </g>
    <g id="ytick_3">
     <g id="line2d_74">
      <g>
       <use xlink:href="#m0b6877b8c0" x="45.805598" y="103.949463" style="stroke: #000000; stroke-width: 0.8"/>
      </g>
     </g>
     <g id="line2d_75">
      <g>
       <use xlink:href="#m8088fdbd9a" x="289.19952" y="103.949463" style="stroke: #000000; stroke-width: 0.8"/>
      </g>
     </g>
     <g id="text_11">
      <!-- $\mathdefault{0.0}$ -->
      <g transform="translate(29.575519 107.408712) scale(0.1 -0.1)">
       <use xlink:href="#CMR17-30" transform="scale(0.996264)"/>
       <use xlink:href="#CMMI12-3a" transform="translate(45.690477 0) scale(0.996264)"/>
       <use xlink:href="#CMR17-30" transform="translate(72.787654 0) scale(0.996264)"/>
      </g>
     </g>
    </g>
    <g id="ytick_4">
     <g id="line2d_76">
      <g>
       <use xlink:href="#m0b6877b8c0" x="45.805598" y="74.220783" style="stroke: #000000; stroke-width: 0.8"/>
      </g>
     </g>
     <g id="line2d_77">
      <g>
       <use xlink:href="#m8088fdbd9a" x="289.19952" y="74.220783" style="stroke: #000000; stroke-width: 0.8"/>
      </g>
     </g>
     <g id="text_12">
      <!-- $\mathdefault{0.5}$ -->
      <g transform="translate(29.575519 77.680032) scale(0.1 -0.1)">
       <use xlink:href="#CMR17-30" transform="scale(0.996264)"/>
       <use xlink:href="#CMMI12-3a" transform="translate(45.690477 0) scale(0.996264)"/>
       <use xlink:href="#CMR17-35" transform="translate(72.787654 0) scale(0.996264)"/>
      </g>
     </g>
    </g>
    <g id="ytick_5">
     <g id="line2d_78">
      <g>
       <use xlink:href="#m0b6877b8c0" x="45.805598" y="44.492104" style="stroke: #000000; stroke-width: 0.8"/>
      </g>
     </g>
     <g id="line2d_79">
      <g>
       <use xlink:href="#m8088fdbd9a" x="289.19952" y="44.492104" style="stroke: #000000; stroke-width: 0.8"/>
      </g>
     </g>
     <g id="text_13">
      <!-- $\mathdefault{1.0}$ -->
      <g transform="translate(29.575519 47.951353) scale(0.1 -0.1)">
       <use xlink:href="#CMR17-31" transform="scale(0.996264)"/>
       <use xlink:href="#CMMI12-3a" transform="translate(45.690477 0) scale(0.996264)"/>
       <use xlink:href="#CMR17-30" transform="translate(72.787654 0) scale(0.996264)"/>
      </g>
     </g>
    </g>
    <g id="ytick_6">
     <g id="line2d_80">
      <g>
       <use xlink:href="#m0b6877b8c0" x="45.805598" y="14.763424" style="stroke: #000000; stroke-width: 0.8"/>
      </g>
     </g>
     <g id="line2d_81">
      <g>
       <use xlink:href="#m8088fdbd9a" x="289.19952" y="14.763424" style="stroke: #000000; stroke-width: 0.8"/>
      </g>
     </g>
     <g id="text_14">
      <!-- $\mathdefault{1.5}$ -->
      <g transform="translate(29.575519 18.222673) scale(0.1 -0.1)">
       <use xlink:href="#CMR17-31" transform="scale(0.996264)"/>
       <use xlink:href="#CMMI12-3a" transform="translate(45.690477 0) scale(0.996264)"/>
       <use xlink:href="#CMR17-35" transform="translate(72.787654 0) scale(0.996264)"/>
      </g>
     </g>
    </g>
    <g id="ytick_7">
     <g id="line2d_82">
      <defs>
       <path id="m7843504f45" d="M 0 0 
L 2 0 
" style="stroke: #000000; stroke-width: 0.6"/>
      </defs>
      <g>
       <use xlink:href="#m7843504f45" x="45.805598" y="187.189765" style="stroke: #000000; stroke-width: 0.6"/>
      </g>
     </g>
     <g id="line2d_83">
      <defs>
       <path id="m530673b3fb" d="M 0 0 
L -2 0 
" style="stroke: #000000; stroke-width: 0.6"/>
      </defs>
      <g>
       <use xlink:href="#m530673b3fb" x="289.19952" y="187.189765" style="stroke: #000000; stroke-width: 0.6"/>
      </g>
     </g>
    </g>
    <g id="ytick_8">
     <g id="line2d_84">
      <g>
       <use xlink:href="#m7843504f45" x="45.805598" y="181.24403" style="stroke: #000000; stroke-width: 0.6"/>
      </g>
     </g>
     <g id="line2d_85">
      <g>
       <use xlink:href="#m530673b3fb" x="289.19952" y="181.24403" style="stroke: #000000; stroke-width: 0.6"/>
      </g>
     </g>
    </g>
    <g id="ytick_9">
     <g id="line2d_86">
      <g>
       <use xlink:href="#m7843504f45" x="45.805598" y="175.298294" style="stroke: #000000; stroke-width: 0.6"/>
      </g>
     </g>
     <g id="line2d_87">
      <g>
       <use xlink:href="#m530673b3fb" x="289.19952" y="175.298294" style="stroke: #000000; stroke-width: 0.6"/>
      </g>
     </g>
    </g>
    <g id="ytick_10">
     <g id="line2d_88">
      <g>
       <use xlink:href="#m7843504f45" x="45.805598" y="169.352558" style="stroke: #000000; stroke-width: 0.6"/>
      </g>
     </g>
     <g id="line2d_89">
      <g>
       <use xlink:href="#m530673b3fb" x="289.19952" y="169.352558" style="stroke: #000000; stroke-width: 0.6"/>
      </g>
     </g>
    </g>
    <g id="ytick_11">
     <g id="line2d_90">
      <g>
       <use xlink:href="#m7843504f45" x="45.805598" y="157.461086" style="stroke: #000000; stroke-width: 0.6"/>
      </g>
     </g>
     <g id="line2d_91">
      <g>
       <use xlink:href="#m530673b3fb" x="289.19952" y="157.461086" style="stroke: #000000; stroke-width: 0.6"/>
      </g>
     </g>
    </g>
    <g id="ytick_12">
     <g id="line2d_92">
      <g>
       <use xlink:href="#m7843504f45" x="45.805598" y="151.51535" style="stroke: #000000; stroke-width: 0.6"/>
      </g>
     </g>
     <g id="line2d_93">
      <g>
       <use xlink:href="#m530673b3fb" x="289.19952" y="151.51535" style="stroke: #000000; stroke-width: 0.6"/>
      </g>
     </g>
    </g>
    <g id="ytick_13">
     <g id="line2d_94">
      <g>
       <use xlink:href="#m7843504f45" x="45.805598" y="145.569614" style="stroke: #000000; stroke-width: 0.6"/>
      </g>
     </g>
     <g id="line2d_95">
      <g>
       <use xlink:href="#m530673b3fb" x="289.19952" y="145.569614" style="stroke: #000000; stroke-width: 0.6"/>
      </g>
     </g>
    </g>
    <g id="ytick_14">
     <g id="line2d_96">
      <g>
       <use xlink:href="#m7843504f45" x="45.805598" y="139.623878" style="stroke: #000000; stroke-width: 0.6"/>
      </g>
     </g>
     <g id="line2d_97">
      <g>
       <use xlink:href="#m530673b3fb" x="289.19952" y="139.623878" style="stroke: #000000; stroke-width: 0.6"/>
      </g>
     </g>
    </g>
    <g id="ytick_15">
     <g id="line2d_98">
      <g>
       <use xlink:href="#m7843504f45" x="45.805598" y="127.732406" style="stroke: #000000; stroke-width: 0.6"/>
      </g>
     </g>
     <g id="line2d_99">
      <g>
       <use xlink:href="#m530673b3fb" x="289.19952" y="127.732406" style="stroke: #000000; stroke-width: 0.6"/>
      </g>
     </g>
    </g>
    <g id="ytick_16">
     <g id="line2d_100">
      <g>
       <use xlink:href="#m7843504f45" x="45.805598" y="121.78667" style="stroke: #000000; stroke-width: 0.6"/>
      </g>
     </g>
     <g id="line2d_101">
      <g>
       <use xlink:href="#m530673b3fb" x="289.19952" y="121.78667" style="stroke: #000000; stroke-width: 0.6"/>
      </g>
     </g>
    </g>
    <g id="ytick_17">
     <g id="line2d_102">
      <g>
       <use xlink:href="#m7843504f45" x="45.805598" y="115.840935" style="stroke: #000000; stroke-width: 0.6"/>
      </g>
     </g>
     <g id="line2d_103">
      <g>
       <use xlink:href="#m530673b3fb" x="289.19952" y="115.840935" style="stroke: #000000; stroke-width: 0.6"/>
      </g>
     </g>
    </g>
    <g id="ytick_18">
     <g id="line2d_104">
      <g>
       <use xlink:href="#m7843504f45" x="45.805598" y="109.895199" style="stroke: #000000; stroke-width: 0.6"/>
      </g>
     </g>
     <g id="line2d_105">
      <g>
       <use xlink:href="#m530673b3fb" x="289.19952" y="109.895199" style="stroke: #000000; stroke-width: 0.6"/>
      </g>
     </g>
    </g>
    <g id="ytick_19">
     <g id="line2d_106">
      <g>
       <use xlink:href="#m7843504f45" x="45.805598" y="98.003727" style="stroke: #000000; stroke-width: 0.6"/>
      </g>
     </g>
     <g id="line2d_107">
      <g>
       <use xlink:href="#m530673b3fb" x="289.19952" y="98.003727" style="stroke: #000000; stroke-width: 0.6"/>
      </g>
     </g>
    </g>
    <g id="ytick_20">
     <g id="line2d_108">
      <g>
       <use xlink:href="#m7843504f45" x="45.805598" y="92.057991" style="stroke: #000000; stroke-width: 0.6"/>
      </g>
     </g>
     <g id="line2d_109">
      <g>
       <use xlink:href="#m530673b3fb" x="289.19952" y="92.057991" style="stroke: #000000; stroke-width: 0.6"/>
      </g>
     </g>
    </g>
    <g id="ytick_21">
     <g id="line2d_110">
      <g>
       <use xlink:href="#m7843504f45" x="45.805598" y="86.112255" style="stroke: #000000; stroke-width: 0.6"/>
      </g>
     </g>
     <g id="line2d_111">
      <g>
       <use xlink:href="#m530673b3fb" x="289.19952" y="86.112255" style="stroke: #000000; stroke-width: 0.6"/>
      </g>
     </g>
    </g>
    <g id="ytick_22">
     <g id="line2d_112">
      <g>
       <use xlink:href="#m7843504f45" x="45.805598" y="80.166519" style="stroke: #000000; stroke-width: 0.6"/>
      </g>
     </g>
     <g id="line2d_113">
      <g>
       <use xlink:href="#m530673b3fb" x="289.19952" y="80.166519" style="stroke: #000000; stroke-width: 0.6"/>
      </g>
     </g>
    </g>
    <g id="ytick_23">
     <g id="line2d_114">
      <g>
       <use xlink:href="#m7843504f45" x="45.805598" y="68.275047" style="stroke: #000000; stroke-width: 0.6"/>
      </g>
     </g>
     <g id="line2d_115">
      <g>
       <use xlink:href="#m530673b3fb" x="289.19952" y="68.275047" style="stroke: #000000; stroke-width: 0.6"/>
      </g>
     </g>
    </g>
    <g id="ytick_24">
     <g id="line2d_116">
      <g>
       <use xlink:href="#m7843504f45" x="45.805598" y="62.329311" style="stroke: #000000; stroke-width: 0.6"/>
      </g>
     </g>
     <g id="line2d_117">
      <g>
       <use xlink:href="#m530673b3fb" x="289.19952" y="62.329311" style="stroke: #000000; stroke-width: 0.6"/>
      </g>
     </g>
    </g>
    <g id="ytick_25">
     <g id="line2d_118">
      <g>
       <use xlink:href="#m7843504f45" x="45.805598" y="56.383575" style="stroke: #000000; stroke-width: 0.6"/>
      </g>
     </g>
     <g id="line2d_119">
      <g>
       <use xlink:href="#m530673b3fb" x="289.19952" y="56.383575" style="stroke: #000000; stroke-width: 0.6"/>
      </g>
     </g>
    </g>
    <g id="ytick_26">
     <g id="line2d_120">
      <g>
       <use xlink:href="#m7843504f45" x="45.805598" y="50.43784" style="stroke: #000000; stroke-width: 0.6"/>
      </g>
     </g>
     <g id="line2d_121">
      <g>
       <use xlink:href="#m530673b3fb" x="289.19952" y="50.43784" style="stroke: #000000; stroke-width: 0.6"/>
      </g>
     </g>
    </g>
    <g id="ytick_27">
     <g id="line2d_122">
      <g>
       <use xlink:href="#m7843504f45" x="45.805598" y="38.546368" style="stroke: #000000; stroke-width: 0.6"/>
      </g>
     </g>
     <g id="line2d_123">
      <g>
       <use xlink:href="#m530673b3fb" x="289.19952" y="38.546368" style="stroke: #000000; stroke-width: 0.6"/>
      </g>
     </g>
    </g>
    <g id="ytick_28">
     <g id="line2d_124">
      <g>
       <use xlink:href="#m7843504f45" x="45.805598" y="32.600632" style="stroke: #000000; stroke-width: 0.6"/>
      </g>
     </g>
     <g id="line2d_125">
      <g>
       <use xlink:href="#m530673b3fb" x="289.19952" y="32.600632" style="stroke: #000000; stroke-width: 0.6"/>
      </g>
     </g>
    </g>
    <g id="ytick_29">
     <g id="line2d_126">
      <g>
       <use xlink:href="#m7843504f45" x="45.805598" y="26.654896" style="stroke: #000000; stroke-width: 0.6"/>
      </g>
     </g>
     <g id="line2d_127">
      <g>
       <use xlink:href="#m530673b3fb" x="289.19952" y="26.654896" style="stroke: #000000; stroke-width: 0.6"/>
      </g>
     </g>
    </g>
    <g id="ytick_30">
     <g id="line2d_128">
      <g>
       <use xlink:href="#m7843504f45" x="45.805598" y="20.70916" style="stroke: #000000; stroke-width: 0.6"/>
      </g>
     </g>
     <g id="line2d_129">
      <g>
       <use xlink:href="#m530673b3fb" x="289.19952" y="20.70916" style="stroke: #000000; stroke-width: 0.6"/>
      </g>
     </g>
    </g>
    <g id="ytick_31">
     <g id="line2d_130">
      <g>
       <use xlink:href="#m7843504f45" x="45.805598" y="8.817688" style="stroke: #000000; stroke-width: 0.6"/>
      </g>
     </g>
     <g id="line2d_131">
      <g>
       <use xlink:href="#m530673b3fb" x="289.19952" y="8.817688" style="stroke: #000000; stroke-width: 0.6"/>
      </g>
     </g>
    </g>
    <g id="text_15">
     <!-- Amplitude -->
     <g transform="translate(15.50218 125.85783) rotate(-90) scale(0.12 -0.12)">
      <defs>
       <path id="CMR17-41" d="M 2323 4441 
C 2291 4524 2278 4544 2214 4544 
C 2150 4544 2138 4524 2106 4441 
L 749 580 
C 627 236 371 166 147 166 
L 147 0 
C 262 12 518 12 640 12 
C 800 12 1056 12 1210 0 
L 1210 166 
C 909 179 864 382 864 459 
C 864 516 877 548 890 586 
L 1229 1536 
L 2906 1536 
L 3290 453 
C 3322 376 3322 363 3322 338 
C 3322 166 3046 166 2925 166 
L 2925 0 
C 3110 12 3443 12 3642 12 
C 3808 12 4128 12 4282 0 
L 4282 166 
C 3942 166 3827 166 3744 402 
L 2323 4441 
z
M 2067 3924 
L 2848 1702 
L 1286 1702 
L 2067 3924 
z
" transform="scale(0.015625)"/>
       <path id="CMR17-70" d="M 1408 -1114 
C 998 -1114 973 -1088 973 -834 
L 973 380 
C 1158 109 1427 -64 1766 -64 
C 2406 -64 3053 503 3053 1382 
C 3053 2196 2496 2816 1837 2816 
C 1453 2816 1139 2603 960 2345 
L 960 2816 
L 198 2745 
L 198 2577 
C 576 2577 634 2539 634 2228 
L 634 -834 
C 634 -1081 608 -1114 198 -1114 
L 198 -1280 
C 352 -1268 634 -1268 800 -1268 
C 966 -1268 1254 -1268 1408 -1280 
L 1408 -1114 
z
M 973 2015 
C 973 2106 973 2241 1222 2481 
C 1254 2506 1472 2700 1792 2700 
C 2259 2700 2643 2112 2643 1376 
C 2643 639 2234 38 1728 38 
C 1498 38 1248 148 1056 451 
C 973 594 973 632 973 736 
L 973 2015 
z
" transform="scale(0.015625)"/>
       <path id="CMR17-6c" d="M 979 4416 
L 218 4345 
L 218 4179 
C 595 4179 653 4141 653 3835 
L 653 439 
C 653 198 627 166 218 166 
L 218 0 
C 371 12 653 12 813 12 
C 979 12 1261 12 1414 0 
L 1414 166 
C 1005 166 979 191 979 439 
L 979 4416 
z
" transform="scale(0.015625)"/>
       <path id="CMR17-74" d="M 966 2585 
L 1862 2585 
L 1862 2752 
L 966 2752 
L 966 3968 
L 851 3968 
C 838 3292 614 2700 70 2687 
L 70 2585 
L 627 2585 
L 627 778 
C 627 655 627 -64 1370 -64 
C 1747 -64 1965 308 1965 784 
L 1965 1151 
L 1850 1151 
L 1850 790 
C 1850 347 1677 51 1408 51 
C 1222 51 966 179 966 765 
L 966 2585 
z
" transform="scale(0.015625)"/>
       <path id="CMR17-75" d="M 1882 2745 
L 1882 2579 
C 2259 2579 2317 2540 2317 2229 
L 2317 1053 
C 2317 510 2029 38 1555 38 
C 1030 38 986 355 986 691 
L 986 2816 
L 211 2745 
L 211 2579 
C 467 2579 640 2579 646 2320 
L 646 1079 
C 646 646 646 368 813 187 
C 896 103 1056 -64 1517 -64 
C 2061 -64 2272 400 2323 536 
L 2330 536 
L 2330 -64 
L 3091 -13 
L 3091 154 
C 2714 154 2656 193 2656 503 
L 2656 2816 
L 1882 2745 
z
" transform="scale(0.015625)"/>
       <path id="CMR17-64" d="M 1869 4345 
L 1869 4179 
C 2246 4179 2304 4141 2304 3843 
L 2304 2371 
C 2278 2403 2016 2816 1498 2816 
C 845 2816 211 2228 211 1376 
C 211 529 806 -64 1434 -64 
C 1978 -64 2259 361 2291 406 
L 2291 -64 
L 3066 -13 
L 3066 154 
C 2688 154 2630 193 2630 503 
L 2630 4416 
L 1869 4345 
z
M 2291 762 
C 2291 568 2176 393 2029 264 
C 1811 70 1594 38 1472 38 
C 1286 38 621 135 621 1369 
C 621 2636 1363 2713 1530 2713 
C 1824 2713 2061 2545 2208 2313 
C 2291 2177 2291 2157 2291 2041 
L 2291 762 
z
" transform="scale(0.015625)"/>
      </defs>
      <use xlink:href="#CMR17-41" transform="scale(0.996264)"/>
      <use xlink:href="#CMR17-6d" transform="translate(69.07243 0) scale(0.996264)"/>
      <use xlink:href="#CMR17-70" transform="translate(145.99202 0) scale(0.996264)"/>
      <use xlink:href="#CMR17-6c" transform="translate(196.887389 0) scale(0.996264)"/>
      <use xlink:href="#CMR17-69" transform="translate(221.758448 0) scale(0.996264)"/>
      <use xlink:href="#CMR17-74" transform="translate(246.629506 0) scale(0.996264)"/>
      <use xlink:href="#CMR17-75" transform="translate(281.910274 0) scale(0.996264)"/>
      <use xlink:href="#CMR17-64" transform="translate(332.805644 0) scale(0.996264)"/>
      <use xlink:href="#CMR17-65" transform="translate(383.701014 0) scale(0.996264)"/>
     </g>
    </g>
   </g>
   <g id="line2d_132">
    <path d="M 56.868958 92.791887 
L 57.980854 108.209011 
L 59.092749 99.054351 
L 60.204645 103.823131 
L 61.31654 101.627031 
L 62.428436 98.278443 
L 63.540331 90.111451 
L 64.652227 96.608152 
L 65.764122 74.157509 
L 66.876018 97.918479 
L 67.987913 87.709059 
L 69.099809 88.940933 
L 70.211704 64.750364 
L 71.3236 77.886834 
L 72.435495 66.244758 
L 73.547391 94.496511 
L 74.659286 71.998525 
L 75.771182 62.966945 
L 76.883077 70.969613 
L 77.994973 57.711986 
L 79.106868 75.000923 
L 80.218764 50.592861 
L 81.330659 38.553749 
L 82.442555 68.782609 
L 83.55445 68.381854 
L 84.666345 44.458277 
L 85.778241 41.656779 
L 86.890136 65.400221 
L 88.002032 62.966339 
L 89.113927 60.153421 
L 90.225823 71.669967 
L 91.337718 65.534594 
L 92.449614 65.528362 
L 93.561509 61.745276 
L 94.673405 52.106041 
L 95.7853 48.039071 
L 96.897196 31.570096 
L 98.009091 61.117098 
L 99.120987 36.832057 
L 100.232882 50.428878 
L 101.344778 47.875455 
L 102.456673 38.722168 
L 103.568569 59.614108 
L 104.680464 41.289906 
L 105.79236 43.489915 
L 106.904255 39.303558 
L 108.016151 41.469742 
L 109.128046 15.518958 
L 110.239942 52.16651 
L 111.351837 50.823109 
L 112.463733 51.904014 
L 113.575628 51.143845 
L 114.687524 52.221547 
L 115.799419 30.66571 
L 116.911315 28.134727 
L 118.02321 52.094109 
L 119.135106 55.543966 
L 120.247001 40.437265 
L 121.358896 53.064613 
L 122.470792 39.483426 
L 123.582687 45.165669 
L 124.694583 66.228149 
L 125.806478 30.482173 
L 126.918374 28.264115 
L 128.030269 57.696317 
L 129.142165 55.862683 
L 130.25406 48.748494 
L 131.365956 49.117821 
L 132.477851 46.261787 
L 133.589747 31.236098 
L 134.701642 58.340747 
L 136.925433 74.972654 
L 139.149224 61.479274 
L 140.26112 41.067555 
L 141.373015 69.926203 
L 142.484911 62.513478 
L 143.596806 66.812194 
L 144.708702 53.964626 
L 145.820597 39.562634 
L 146.932493 77.473829 
L 148.044388 78.563295 
L 149.156284 61.939758 
L 150.268179 67.890402 
L 151.380075 55.709617 
L 152.49197 72.422705 
L 153.603866 85.360273 
L 154.715761 75.808085 
L 155.827657 71.412853 
L 158.051448 82.15109 
L 159.163343 77.316642 
L 160.275238 77.927882 
L 161.387134 77.240255 
L 163.610925 99.379577 
L 164.72282 97.516457 
L 165.834716 86.787406 
L 166.946611 112.725422 
L 168.058507 100.504003 
L 169.170402 111.441729 
L 170.282298 108.296009 
L 171.394193 95.303954 
L 172.506089 110.096444 
L 173.617984 113.670567 
L 174.72988 132.237089 
L 175.841775 109.023898 
L 176.953671 112.039844 
L 178.065566 95.793251 
L 179.177462 126.961891 
L 180.289357 122.461065 
L 181.401253 123.845625 
L 182.513148 109.774213 
L 183.625044 131.362444 
L 184.736939 128.581853 
L 185.848835 126.313773 
L 186.96073 132.936729 
L 188.072626 142.046661 
L 189.184521 135.97933 
L 190.296417 127.035492 
L 191.408312 153.488801 
L 192.520208 141.143074 
L 193.632103 152.45335 
L 194.743999 131.280573 
L 195.855894 164.926514 
L 198.079685 144.842803 
L 199.19158 131.9022 
L 200.303476 152.444209 
L 201.415371 159.360676 
L 202.527267 131.436351 
L 203.639162 172.022937 
L 204.751058 181.89811 
L 205.862953 151.414165 
L 206.974849 163.459732 
L 208.086744 170.423143 
L 209.19864 150.591238 
L 210.310535 156.796055 
L 211.422431 167.027928 
L 212.534326 176.113713 
L 213.646222 151.026255 
L 214.758117 154.123986 
L 215.870013 163.432239 
L 216.981908 140.632598 
L 218.093804 175.597195 
L 219.205699 181.234799 
L 220.317595 171.484655 
L 221.42949 163.902605 
L 222.541386 160.511305 
L 223.653281 166.258804 
L 224.765177 159.129626 
L 225.877072 178.065481 
L 226.988968 145.822057 
L 228.100863 163.716296 
L 229.212759 149.143356 
L 230.324654 157.986096 
L 232.548445 154.376789 
L 233.660341 155.287753 
L 234.772236 152.37177 
L 235.884131 143.556247 
L 236.996027 156.316801 
L 238.107922 149.459998 
L 239.219818 158.141786 
L 240.331713 139.080226 
L 241.443609 163.327193 
L 242.555504 132.895442 
L 243.6674 153.765992 
L 244.779295 169.230475 
L 245.891191 149.572988 
L 247.003086 158.027932 
L 248.114982 138.719791 
L 249.226877 155.219369 
L 250.338773 151.463545 
L 251.450668 167.284172 
L 252.562564 148.809589 
L 253.674459 170.831386 
L 254.786355 159.381785 
L 255.89825 130.006874 
L 257.010146 128.172489 
L 258.122041 130.891518 
L 259.233937 145.85173 
L 260.345832 133.292138 
L 261.457728 131.110754 
L 262.569623 143.158678 
L 263.681519 109.797147 
L 264.793414 115.508736 
L 265.90531 126.814631 
L 267.017205 122.092333 
L 268.129101 118.140666 
L 269.240996 143.08786 
L 270.352892 119.923102 
L 271.464787 123.255774 
L 272.576682 125.207731 
L 273.688578 114.78139 
L 274.800473 88.19579 
L 277.024264 112.618604 
L 278.13616 97.140611 
L 278.13616 97.140611 
" clip-path="url(#p71e4d4a989)" style="fill: none; stroke: #ff0000; stroke-opacity: 0.8; stroke-width: 1.5; stroke-linecap: square"/>
   </g>
   <g id="patch_3">
    <path d="M 45.805598 190.217068 
L 45.805598 7.2 
" style="fill: none; stroke: #000000; stroke-width: 0.8; stroke-linejoin: miter; stroke-linecap: square"/>
   </g>
   <g id="patch_4">
    <path d="M 289.19952 190.217068 
L 289.19952 7.2 
" style="fill: none; stroke: #000000; stroke-width: 0.8; stroke-linejoin: miter; stroke-linecap: square"/>
   </g>
   <g id="patch_5">
    <path d="M 45.805598 190.217068 
L 289.19952 190.217068 
" style="fill: none; stroke: #000000; stroke-width: 0.8; stroke-linejoin: miter; stroke-linecap: square"/>
   </g>
   <g id="patch_6">
    <path d="M 45.805598 7.2 
L 289.19952 7.2 
" style="fill: none; stroke: #000000; stroke-width: 0.8; stroke-linejoin: miter; stroke-linecap: square"/>
   </g>
   <g id="line2d_133">
    <path d="M 56.868958 103.949463 
L 65.764122 89.090298 
L 71.3236 80.22416 
L 75.771182 73.545965 
L 79.106868 68.849602 
L 82.442555 64.467925 
L 85.778241 60.440216 
L 89.113927 56.802587 
L 92.449614 53.587651 
L 94.673405 51.693586 
L 96.897196 50.007829 
L 99.120987 48.537099 
L 101.344778 47.287259 
L 103.568569 46.263291 
L 105.79236 45.469277 
L 108.016151 44.908382 
L 110.239942 44.582843 
L 112.463733 44.493956 
L 114.687524 44.642076 
L 116.911315 45.026613 
L 119.135106 45.646034 
L 121.358896 46.497869 
L 123.582687 47.578723 
L 125.806478 48.884287 
L 128.030269 50.409358 
L 130.25406 52.147854 
L 132.477851 54.092848 
L 135.813538 57.380341 
L 139.149224 61.085346 
L 142.484911 65.174646 
L 145.820597 69.61158 
L 150.268179 75.999096 
L 154.715761 82.831841 
L 160.275238 91.832528 
L 170.282298 108.637827 
L 178.065566 121.517534 
L 182.513148 128.532455 
L 186.96073 135.155786 
L 190.296417 139.802554 
L 193.632103 144.127883 
L 196.967789 148.092995 
L 200.303476 151.662341 
L 203.639162 154.803921 
L 205.862953 156.646584 
L 208.086744 158.279182 
L 210.310535 159.695205 
L 212.534326 160.889009 
L 214.758117 161.855835 
L 216.981908 162.59183 
L 219.205699 163.094059 
L 221.42949 163.360521 
L 223.653281 163.390152 
L 225.877072 163.182835 
L 228.100863 162.739397 
L 230.324654 162.061605 
L 232.548445 161.152161 
L 234.772236 160.01469 
L 236.996027 158.653727 
L 239.219818 157.074696 
L 241.443609 155.283893 
L 243.6674 153.288455 
L 247.003086 149.929226 
L 250.338773 146.157768 
L 253.674459 142.007894 
L 257.010146 137.516809 
L 261.457728 131.067914 
L 265.90531 124.187042 
L 271.464787 115.145977 
L 278.13616 103.949463 
L 278.13616 103.949463 
" clip-path="url(#p71e4d4a989)" style="fill: none; stroke: #000000; stroke-linecap: square"/>
   </g>
   <g id="legend_1">
    <g id="line2d_134">
     <path d="M 200.260061 22.2 
L 212.260061 22.2 
L 224.260061 22.2 
" style="fill: none; stroke: #000000; stroke-linecap: square"/>
    </g>
    <g id="text_16">
     <!-- Truth -->
     <g transform="translate(233.860061 26.4) scale(0.12 -0.12)">
      <defs>
       <path id="CMR17-72" d="M 960 1517 
C 960 2134 1222 2713 1702 2713 
C 1747 2713 1792 2707 1837 2687 
C 1837 2687 1696 2642 1696 2475 
C 1696 2321 1818 2257 1914 2257 
C 1990 2257 2131 2302 2131 2482 
C 2131 2687 1926 2816 1709 2816 
C 1222 2816 1011 2340 947 2115 
L 941 2115 
L 941 2816 
L 198 2745 
L 198 2578 
C 576 2578 634 2540 634 2231 
L 634 443 
C 634 198 608 166 198 166 
L 198 0 
C 352 12 646 12 813 12 
C 998 12 1325 12 1498 0 
L 1498 166 
C 1037 166 960 166 960 455 
L 960 1517 
z
" transform="scale(0.015625)"/>
       <path id="CMR17-68" d="M 2656 1954 
C 2656 2282 2592 2816 1837 2816 
C 1312 2816 1056 2392 979 2179 
L 973 2179 
L 973 4416 
L 211 4345 
L 211 4179 
C 589 4179 646 4141 646 3843 
L 646 443 
C 646 198 621 166 211 166 
L 211 0 
C 365 12 646 12 813 12 
C 979 12 1267 12 1421 0 
L 1421 166 
C 1011 166 986 192 986 443 
L 986 1678 
C 986 2269 1344 2713 1792 2713 
C 2266 2713 2317 2289 2317 1980 
L 2317 443 
C 2317 198 2291 166 1882 166 
L 1882 0 
C 2035 12 2317 12 2483 12 
C 2650 12 2938 12 3091 0 
L 3091 166 
C 2682 166 2656 192 2656 443 
L 2656 1954 
z
" transform="scale(0.015625)"/>
      </defs>
      <use xlink:href="#CMR17-54" transform="scale(0.996264)"/>
      <use xlink:href="#CMR17-72" transform="translate(58.702625 0) scale(0.996264)"/>
      <use xlink:href="#CMR17-75" transform="translate(93.983393 0) scale(0.996264)"/>
      <use xlink:href="#CMR17-74" transform="translate(144.878763 0) scale(0.996264)"/>
      <use xlink:href="#CMR17-68" transform="translate(180.159531 0) scale(0.996264)"/>
     </g>
    </g>
    <g id="line2d_135">
     <path d="M 200.260061 38.924596 
L 212.260061 38.924596 
L 224.260061 38.924596 
" style="fill: none; stroke: #ff0000; stroke-opacity: 0.8; stroke-width: 1.5; stroke-linecap: square"/>
    </g>
    <g id="text_17">
     <!-- Model A -->
     <g transform="translate(233.860061 43.124596) scale(0.12 -0.12)">
      <defs>
       <path id="CMR17-4d" d="M 1338 4249 
C 1299 4345 1293 4352 1158 4352 
L 339 4352 
L 339 4185 
C 781 4185 851 4185 851 3898 
L 851 624 
C 851 465 851 166 339 166 
L 339 0 
C 486 12 755 12 915 12 
C 1075 12 1344 12 1491 0 
L 1491 166 
C 979 166 979 465 979 624 
L 979 4159 
L 986 4159 
L 2490 102 
C 2515 38 2528 0 2579 0 
C 2630 0 2643 38 2669 102 
L 4186 4191 
L 4192 4191 
L 4192 453 
C 4192 166 4122 166 3680 166 
L 3680 0 
C 3853 12 4198 12 4384 12 
C 4570 12 4922 12 5094 0 
L 5094 166 
C 4653 166 4582 166 4582 453 
L 4582 3898 
C 4582 4185 4653 4185 5094 4185 
L 5094 4352 
L 4282 4352 
C 4147 4352 4141 4345 4102 4249 
L 2720 516 
L 1338 4249 
z
" transform="scale(0.015625)"/>
       <path id="CMR17-6f" d="M 2758 1356 
C 2758 2176 2163 2816 1466 2816 
C 768 2816 173 2176 173 1356 
C 173 550 768 -64 1466 -64 
C 2163 -64 2758 550 2758 1356 
z
M 1466 51 
C 1165 51 909 230 762 480 
C 602 768 582 1126 582 1408 
C 582 1676 595 2009 762 2297 
C 890 2508 1139 2713 1466 2713 
C 1754 2713 1997 2553 2150 2329 
C 2349 2028 2349 1606 2349 1408 
C 2349 1158 2336 774 2163 467 
C 1984 172 1709 51 1466 51 
z
" transform="scale(0.015625)"/>
      </defs>
      <use xlink:href="#CMR17-4d" transform="scale(0.996264)"/>
      <use xlink:href="#CMR17-6f" transform="translate(84.686941 0) scale(0.996264)"/>
      <use xlink:href="#CMR17-64" transform="translate(132.979856 0) scale(0.996264)"/>
      <use xlink:href="#CMR17-65" transform="translate(183.875226 0) scale(0.996264)"/>
      <use xlink:href="#CMR17-6c" transform="translate(224.360887 0) scale(0.996264)"/>
      <use xlink:href="#CMR17-41" transform="translate(279.307911 0) scale(0.996264)"/>
     </g>
    </g>
    <g id="line2d_136">
     <path d="M 200.260061 55.649192 
L 212.260061 55.649192 
L 224.260061 55.649192 
" style="fill: none; stroke-dasharray: 5.55,2.4; stroke-dashoffset: 0; stroke: #0000ff; stroke-width: 1.5"/>
    </g>
    <g id="text_18">
     <!-- Model B -->
     <g transform="translate(233.860061 59.849192) scale(0.12 -0.12)">
      <defs>
       <path id="CMR17-42" d="M 333 4352 
L 333 4185 
C 774 4185 845 4185 845 3897 
L 845 451 
C 845 166 774 166 333 166 
L 333 0 
L 2534 0 
C 3354 0 3885 578 3885 1155 
C 3885 1726 3360 2214 2675 2259 
C 3290 2380 3718 2790 3718 3276 
C 3718 3808 3194 4352 2368 4352 
L 333 4352 
z
M 1248 2304 
L 1248 3936 
C 1248 4153 1261 4185 1517 4185 
L 2336 4185 
C 2970 4185 3251 3673 3251 3276 
C 3251 2790 2861 2304 2170 2304 
L 1248 2304 
z
M 1517 166 
C 1261 166 1248 198 1248 413 
L 1248 2201 
L 2432 2201 
C 3091 2201 3411 1624 3411 1161 
C 3411 698 3046 166 2349 166 
L 1517 166 
z
" transform="scale(0.015625)"/>
      </defs>
      <use xlink:href="#CMR17-4d" transform="scale(0.996264)"/>
      <use xlink:href="#CMR17-6f" transform="translate(84.686941 0) scale(0.996264)"/>
      <use xlink:href="#CMR17-64" transform="translate(132.979856 0) scale(0.996264)"/>
      <use xlink:href="#CMR17-65" transform="translate(183.875226 0) scale(0.996264)"/>
      <use xlink:href="#CMR17-6c" transform="translate(224.360887 0) scale(0.996264)"/>
      <use xlink:href="#CMR17-42" transform="translate(279.307911 0) scale(0.996264)"/>
     </g>
    </g>
   </g>
  </g>
 </g>
 <defs>
  <clipPath id="p71e4d4a989">
   <rect x="45.805598" y="7.2" width="243.393922" height="183.017068"/>
  </clipPath>
 </defs>
</svg>
